<svg xmlns="http://www.w3.org/2000/svg" viewBox="0 0 108.75 27.53">
 <defs>
  <style>
   .cls-1 {
    fill: #fff;
   }
  </style>
 </defs>
 <rect class="cls-1" x="53.68" width=".97" height="6.88" />
 <path
  class="cls-1"
  d="m65.8,6.88v-3.38c0-1.05-.7-1.66-1.93-1.66-1.12,0-1.91.55-2.01,1.4h.94c.11-.35.48-.55,1.03-.55.66,0,1.01.3,1.01.82v.43l-1.33.08c-1.17.07-1.83.59-1.83,1.48,0,.21.05.42.13.61s.21.36.36.5.34.24.53.31c.2.06.41.09.61.07.29.01.58-.05.84-.19.26-.14.48-.34.63-.59h.08v.7h.93v-.03h.01Zm-.96-1.82c-.01.16-.05.31-.12.45s-.17.26-.29.36-.26.18-.41.22c-.15.05-.31.06-.46.05-.53,0-.91-.26-.91-.7s.31-.67.99-.71l1.2-.08s0,.41,0,.41Z"
 />
 <path
  class="cls-1"
  d="m33.51,3.58c.05-.43,0-.86-.12-1.27-.13-.41-.35-.78-.65-1.09-.29-.31-.65-.55-1.05-.71-.4-.16-.83-.22-1.25-.19h-2.36v6.56h2.36c1.94,0,3.07-1.2,3.07-3.3Zm-4.41,2.37V1.25h1.23c.3-.02.61.03.89.15.28.11.53.29.74.51.21.22.36.49.45.78s.12.6.08.9c.04.3.02.61-.07.91-.09.29-.24.56-.45.79s-.46.4-.74.52c-.28.11-.59.17-.89.15h-1.24Z"
 />
 <path
  class="cls-1"
  d="m97.07,14.67c-.43.33-.74.79-.87,1.32h-.05v-1.69h-1.94v9.95h2.03v-5.9c-.03-.3,0-.59.09-.88.09-.28.24-.54.45-.76.2-.22.45-.39.72-.5.27-.11.57-.17.86-.15.31,0,.62.03.91.12v-1.91c-.23-.05-.46-.08-.7-.08-.54-.02-1.07.15-1.51.47h.01Z"
 />
 <path
  class="cls-1"
  d="m13.19,4.15c.89-1.07,1.32-2.45,1.22-3.84-1.35.14-2.61.79-3.51,1.82-.44.5-.78,1.09-.99,1.72s-.3,1.3-.26,1.97c.68,0,1.35-.14,1.96-.43s1.15-.72,1.58-1.25h0Z"
 />
 <path
  class="cls-1"
  d="m17.04,15.94c-.57-.86-.87-1.87-.87-2.9.01-.92.25-1.82.7-2.61.45-.8,1.09-1.47,1.87-1.95-.49-.71-1.14-1.29-1.9-1.7s-1.6-.64-2.46-.67c-1.84-.19-3.61,1.1-4.55,1.1s-2.39-1.09-3.94-1.05c-1,.03-1.98.33-2.84.85-.86.53-1.56,1.27-2.05,2.15-2.11,3.68-.54,9.09,1.49,12.07,1.01,1.46,2.2,3.08,3.75,3.03,1.52-.06,2.08-.97,3.91-.97s2.34.97,3.92.94c1.63-.03,2.65-1.46,3.63-2.93.73-1.04,1.29-2.19,1.66-3.4-.95-.4-1.75-1.08-2.32-1.93v-.03Z"
 />
 <path
  class="cls-1"
  d="m69.12,6.96c.31.01.62-.06.89-.22.27-.15.5-.38.65-.65h.08v.78h.93V0h-.97v2.72h-.07c-.14-.27-.36-.5-.63-.65-.27-.15-.57-.23-.88-.21-1.24,0-2.04.99-2.04,2.55s.79,2.56,2.04,2.56h0Zm.28-4.26c.81,0,1.32.65,1.32,1.68s-.51,1.68-1.32,1.68-1.31-.63-1.31-1.68.5-1.68,1.31-1.68Z"
 />
 <path
  class="cls-1"
  d="m71.86,16.54l-1.5-.37c-1.75-.43-2.46-1-2.46-1.97,0-1.21,1.12-2.04,2.76-2.04s2.76.82,2.88,2.18h2.05c-.07-2.36-2.03-3.97-4.9-3.97s-4.94,1.62-4.94,3.97c0,1.9,1.16,3.07,3.65,3.68l1.76.43c1.76.43,2.5,1.07,2.5,2.13,0,1.22-1.23,2.11-2.94,2.11s-3.09-.89-3.24-2.24h-2.08c.13,2.47,2.16,4.03,5.17,4.03,3.22,0,5.24-1.6,5.24-4.15,0-2-1.16-3.12-3.94-3.78h0Z"
 />
 <path
  class="cls-1"
  d="m99.26,5.39c.09.31.26.6.47.84.22.24.48.44.78.57.3.13.62.19.94.18.47.05.93-.06,1.33-.33.39-.26.67-.65.81-1.11h-.93c-.11.21-.29.37-.49.48-.21.11-.44.15-.68.12-.18,0-.36-.03-.53-.11-.17-.07-.32-.18-.44-.31s-.22-.29-.28-.46-.08-.36-.07-.54v-.05h3.47v-.34c0-1.55-.83-2.5-2.19-2.5-.33,0-.65.06-.94.2s-.56.33-.78.57c-.22.25-.38.53-.47.85s-.12.64-.08.97c-.04.32-.02.65.08.96h0Zm1.01-1.91c.06-.16.16-.3.28-.42.12-.12.26-.21.41-.28.16-.06.32-.1.49-.09.17,0,.33.03.48.09s.29.16.4.28.2.26.26.42c.05.16.08.32.07.49h-2.49c0-.17.03-.34.09-.49h0Z"
 />
 <path
  class="cls-1"
  d="m90.32,5.57c0,.95.43,1.34,1.51,1.34.18,0,.35-.02.53-.05v-.81c-.12.01-.25.02-.37.02-.48,0-.7-.23-.7-.75v-2.55h1.07v-.82h-1.07V.7h-.97v1.25h-.78v.82h.78v2.8Z"
 />
 <path
  class="cls-1"
  d="m108.75,19.78v-.7c0-3.02-1.72-4.91-4.46-4.91s-4.58,2.02-4.58,5.15,1.79,5.05,4.66,5.05c2.24,0,3.99-1.24,4.26-3.05h-1.93c-.18.45-.5.83-.91,1.08s-.89.36-1.37.32c-.36.01-.73-.05-1.07-.19-.34-.14-.64-.35-.9-.62-.25-.27-.44-.58-.57-.93-.12-.35-.17-.72-.13-1.08v-.12s7,0,7,0Zm-6.79-2.4c.13-.31.31-.59.55-.82.23-.23.51-.42.82-.55.31-.13.63-.19.96-.19s.65.05.96.18c.3.13.58.31.8.55.23.24.4.52.52.83.11.31.16.64.15.97h-4.95c0-.33.06-.66.19-.97Z"
 />
 <path
  class="cls-1"
  d="m83.78,2.73c.72,0,1.06.4,1.06,1.19v2.96h.97v-3.2c.04-.24.02-.48-.05-.71s-.19-.44-.36-.62c-.16-.18-.36-.31-.59-.4-.22-.09-.46-.12-.7-.11-.31-.02-.61.05-.87.2-.26.16-.47.39-.59.68h-.07v-.79h-.93v4.95h.97v-2.9c-.02-.16,0-.33.05-.48.05-.16.14-.3.25-.42.11-.12.25-.21.4-.27s.31-.09.48-.08h-.02Z"
 />
 <path
  class="cls-1"
  d="m51.16,6.88h.97v-3.2c.04-.24.02-.48-.05-.71s-.19-.44-.36-.62c-.16-.18-.36-.31-.59-.4-.22-.09-.46-.12-.7-.11-.31-.02-.61.05-.87.2-.26.16-.47.39-.59.68h-.07v-.79h-.93v4.95h.97v-2.9c-.02-.16,0-.33.05-.48.05-.16.14-.3.25-.42.11-.12.25-.21.4-.27s.31-.09.48-.08c.72,0,1.06.4,1.06,1.19v2.96h-.02Z"
 />
 <path
  class="cls-1"
  d="m78.01,6.98c.33,0,.65-.07.94-.2.3-.13.56-.33.78-.57.22-.24.38-.53.49-.84.1-.31.14-.64.11-.97.03-.33,0-.65-.11-.96-.1-.31-.27-.6-.49-.84s-.48-.43-.78-.57c-.3-.13-.62-.2-.94-.2s-.65.07-.94.2c-.3.13-.56.33-.78.57s-.38.53-.49.84c-.1.31-.14.64-.11.96-.03.33,0,.65.11.97.1.31.27.6.49.84.22.24.49.44.78.57.3.13.62.2.94.2Zm0-4.27c.84,0,1.32.63,1.32,1.7s-.48,1.7-1.32,1.7-1.32-.62-1.32-1.7.47-1.7,1.32-1.7Z"
 />
 <path
  class="cls-1"
  d="m56.1,14.19c-.63-.02-1.26.13-1.82.44-.55.31-1.02.77-1.33,1.32h-.04v-1.66h-1.97v13.24h2.03v-4.93h.05c.3.55.76,1.01,1.31,1.32.55.31,1.18.45,1.81.42,2.48,0,4.13-1.99,4.13-5.08s-1.66-5.08-4.17-5.08h0Zm-.54,8.45c-1.55,0-2.6-1.34-2.6-3.35s1.04-3.34,2.6-3.34,2.61,1.32,2.61,3.34-1.04,3.35-2.61,3.35Z"
 />
 <path
  class="cls-1"
  d="m80.18,11.94h-2.04v2.36h-1.44v1.62h1.44v5.7c0,1.93.78,2.69,2.78,2.69.38,0,.76-.02,1.13-.09v-1.61c-.22.03-.44.04-.67.05-.83,0-1.2-.4-1.2-1.25v-5.49h1.88v-1.62h-1.88s0-2.36,0-2.36Z"
 />
 <path
  class="cls-1"
  d="m60.05,2.6c-.22-.24-.48-.44-.78-.57-.3-.13-.62-.2-.94-.2s-.65.07-.94.2c-.3.13-.56.33-.78.57-.22.24-.38.53-.49.84-.1.31-.14.64-.11.96-.03.33,0,.65.11.96s.27.6.49.84c.22.24.49.44.78.57.3.13.62.2.94.2s.65-.07.94-.2c.3-.13.56-.33.78-.57.22-.24.38-.53.49-.84s.14-.64.11-.96c.03-.33,0-.65-.11-.96-.1-.31-.27-.6-.49-.84Zm-1.72,3.5c-.84,0-1.32-.62-1.32-1.7s.47-1.7,1.32-1.7,1.32.63,1.32,1.7-.48,1.7-1.32,1.7Z"
 />
 <path
  class="cls-1"
  d="m94.66,3.99c-.01-.17,0-.34.06-.5s.15-.3.27-.42c.12-.12.26-.21.42-.27.16-.06.32-.08.49-.07.69,0,1.05.4,1.05,1.19v2.95h.97v-3.2c.03-.24.01-.48-.06-.71s-.19-.44-.36-.62c-.16-.18-.36-.31-.58-.4s-.46-.13-.7-.12c-.31-.03-.62.05-.89.2s-.48.4-.61.68h-.08V0h-.96v6.88h.97v-2.89h.01Z"
 />
 <path
  class="cls-1"
  d="m38.7,2.6c-.22-.24-.48-.43-.78-.57-.3-.13-.62-.2-.94-.2s-.65.07-.94.2c-.3.13-.56.33-.78.57s-.38.53-.49.84c-.1.31-.14.64-.11.96-.03.33,0,.65.11.97.1.31.27.6.49.84.22.24.49.44.78.57.3.13.62.2.94.2s.65-.07.94-.2c.3-.13.56-.33.78-.57.22-.24.38-.53.49-.84.1-.31.14-.64.11-.97.03-.33,0-.65-.11-.96-.1-.31-.27-.6-.49-.84Zm-1.72,3.5c-.84,0-1.32-.62-1.32-1.7s.47-1.7,1.32-1.7,1.32.63,1.32,1.7-.48,1.7-1.32,1.7Z"
 />
 <path
  class="cls-1"
  d="m31.62,10.6l-4.9,13.65h2.19l1.24-3.69h5.17l1.24,3.69h2.23l-4.9-13.65h-2.28.01Zm-.93,8.26l2.02-5.99h.06l2.02,5.99h-4.1Z"
 />
 <path
  class="cls-1"
  d="m45.22,14.19c-.63-.02-1.26.13-1.82.44-.55.31-1.02.77-1.33,1.32h-.04v-1.66h-1.97v13.24h2.03v-4.93h.05c.3.55.76,1.01,1.31,1.32.55.31,1.18.45,1.81.42,2.48,0,4.13-1.99,4.13-5.08s-1.66-5.08-4.17-5.08h0Zm-.54,8.45c-1.55,0-2.6-1.34-2.6-3.35s1.04-3.34,2.6-3.34,2.61,1.32,2.61,3.34-1.04,3.35-2.61,3.35Z"
 />
 <path
  class="cls-1"
  d="m87.85,14.17c-2.86,0-4.69,1.97-4.69,5.1s1.82,5.1,4.69,5.1,4.69-1.96,4.69-5.1-1.82-5.1-4.69-5.1Zm0,8.51c-1.65,0-2.62-1.26-2.62-3.41s.98-3.42,2.62-3.42,2.62,1.27,2.62,3.42-.98,3.41-2.62,3.41Z"
 />
 <polygon
  class="cls-1"
  points="42.35 6.88 43.36 3.24 43.44 3.24 44.45 6.88 45.46 6.88 46.81 1.93 45.84 1.93 44.97 5.71 44.89 5.71 43.88 1.93 42.95 1.93 41.93 5.71 41.86 5.71 40.98 1.93 39.99 1.93 41.35 6.88 42.35 6.88"
 />
</svg>
