<svg xmlns="http://www.w3.org/2000/svg" viewBox="0 0 192.24 38.63">
 <defs>
  <style>
   .cls-1 {
    fill: #3f3e45;
   }
  </style>
 </defs>
 <rect
  class="cls-1"
  x="31.2"
  y="16.23"
  width="6.17"
  height="6.17"
  transform="translate(-3.62 29.9) rotate(-45)"
 />
 <rect
  class="cls-1"
  x="1.28"
  y="16.23"
  width="6.17"
  height="6.17"
  transform="translate(-12.38 8.74) rotate(-45)"
 />
 <polygon
  class="cls-1"
  points="19.31 8.72 26.79 16.2 31.15 11.84 19.31 0 7.47 11.84 11.83 16.2 19.31 8.72"
 />
 <rect
  class="cls-1"
  x="16.24"
  y="16.23"
  width="6.17"
  height="6.17"
  transform="translate(-8 19.32) rotate(-45)"
 />
 <polygon
  class="cls-1"
  points="19.31 29.91 11.83 22.43 7.47 26.79 19.31 38.63 31.15 26.79 26.79 22.43 19.31 29.91"
 />
 <polygon
  class="cls-1"
  points="143.65 21.77 133.72 8.72 129.42 8.72 129.42 29.91 134.02 29.91 134.02 16.44 144.28 29.91 148.26 29.91 148.27 29.92 148.27 8.72 143.65 8.72 143.65 21.77"
 />
 <path
  class="cls-1"
  d="m163.81,25.98c-3.63,0-6.15-3.02-6.15-6.66v-.06c0-3.63,2.57-6.6,6.15-6.6,2.12,0,3.77.91,5.42,2.39l2.96-3.42c-1.97-1.94-4.36-3.27-8.35-3.27-6.51,0-11.05,4.93-11.05,10.95v.06c0,6.09,4.63,10.9,10.87,10.9,4.08.01,6.5-1.44,8.68-3.77l-2.96-3c-1.67,1.51-3.15,2.48-5.57,2.48h0Z"
 />
 <polygon
  class="cls-1"
  points="180.72 25.77 180.72 21.31 190.71 21.31 190.71 17.16 180.72 17.16 180.72 12.88 192.08 12.88 192.08 8.73 176.09 8.73 176.09 29.92 192.24 29.92 192.24 25.77 180.72 25.77"
 />
 <polygon
  class="cls-1"
  points="95.59 21.77 85.66 8.72 81.36 8.72 81.36 29.91 85.96 29.91 85.96 16.44 96.22 29.91 100.2 29.91 100.21 29.92 100.21 8.72 95.59 8.72 95.59 21.77"
 />
 <rect class="cls-1" x="70.47" y="8.72" width="4.68" height="21.19" />
 <path
  class="cls-1"
  d="m65.37,24.04c0-2.85-1.51-4.27-3.97-5.21,1.51-.85,2.79-2.18,2.79-4.57v-.06c0-3.33-2.67-5.48-7-5.48h-9.83v21.19h10.08c4.78,0,7.94-1.94,7.94-5.81h0v-.06h-.01Zm-13.46-11.23h4.6c1.97,0,3.06.79,3.06,2.18v.05h0c0,1.57-1.3,2.24-3.36,2.24h-4.29v-4.47h0Zm8.83,10.71h0c0,1.57-1.24,2.3-3.3,2.3h-5.53v-4.65h5.39c2.39,0,3.45.88,3.45,2.3,0,0,0,.05,0,.05Z"
 />
 <path
  class="cls-1"
  d="m112.64,8.57l-9.08,21.35h4.75l1.94-4.75h8.96l1.94,4.75h4.89l-9.1-21.35h-4.3Zm-.72,12.48l2.82-6.87,2.83,6.87h-5.65Z"
 />
</svg>
