<svg
  xmlns="http://www.w3.org/2000/svg"
  xmlns:xlink="http://www.w3.org/1999/xlink"
  viewBox="0 0 256 238"
>
  <defs>
    <style>
      .cls-1 {
        fill: url(#linear-gradient-2);
      }

      .cls-2 {
        fill: #fff;
      }

      .cls-3 {
        fill: #00d9f5;
      }

      .cls-4 {
        fill: rgba(255, 255, 255, 0.7);
      }

      .cls-5 {
        fill: #00d2aa;
      }

      .cls-6 {
        fill: rgba(0, 210, 170, 0.7);
      }

      .cls-7 {
        fill: #14101d;
      }

      .cls-8 {
        fill: rgba(196, 196, 196, 0.4);
      }

      .cls-9 {
        fill: rgba(0, 217, 245, 0.7);
      }

      .cls-10 {
        clip-path: url(#clippath);
      }

      .cls-11 {
        stroke: url(#linear-gradient-3);
        stroke-opacity: 0.2;
      }

      .cls-11,
      .cls-12,
      .cls-13 {
        fill: none;
      }

      .cls-14 {
        fill: url(#linear-gradient);
      }

      .cls-13 {
        stroke: url(#linear-gradient-4);
        stroke-linecap: round;
        stroke-width: 2px;
      }
    </style>
    <linearGradient
      id="linear-gradient"
      x1="-551.35"
      y1="903.36"
      x2="209.83"
      y2="24.78"
      gradientTransform="translate(0 238.23) scale(1 -1)"
      gradientUnits="userSpaceOnUse"
    >
      <stop offset="0" stop-color="#fff" />
      <stop offset=".94" stop-color="#14101d" />
    </linearGradient>
    <linearGradient
      id="linear-gradient-2"
      x1="85"
      y1="30.73"
      x2="113"
      y2="30.73"
      gradientTransform="translate(0 238.23) scale(1 -1)"
      gradientUnits="userSpaceOnUse"
    >
      <stop offset="0" stop-color="#00f5a0" />
      <stop offset="1" stop-color="#00d9f5" />
    </linearGradient>
    <linearGradient
      id="linear-gradient-3"
      x1="20"
      y1="96.74"
      x2="235.02"
      y2="96.74"
      gradientTransform="translate(0 238.23) scale(1 -1)"
      gradientUnits="userSpaceOnUse"
    >
      <stop offset="0" stop-color="#00f5a0" />
      <stop offset="1" stop-color="#00d9f5" />
    </linearGradient>
    <linearGradient
      id="linear-gradient-4"
      x1="96"
      y1="82.23"
      x2="204"
      y2="82.23"
      gradientTransform="translate(0 238.23) scale(1 -1)"
      gradientUnits="userSpaceOnUse"
    >
      <stop offset="0" stop-color="#00f5a0" />
      <stop offset="1" stop-color="#00d9f5" />
    </linearGradient>
    <clipPath id="clippath">
      <rect class="cls-12" x="222" y="25" width="14" height="14" />
    </clipPath>
  </defs>
  <rect class="cls-8" width="256" height="238" rx="20" ry="20" />
  <rect class="cls-14" width="256" height="238" rx="20" ry="20" />
  <rect class="cls-1" x="85" y="197" width="28" height="21" rx="5" ry="5" />
  <path
    class="cls-7"
    d="m89.77,211h.91v-5.17l2.31,5.17h.64l2.3-5.16v5.16h.91v-6.92h-.97l-2.56,5.72-2.56-5.72h-.98v6.92Zm8.27-2.76c0,1.7,1.13,2.85,2.59,2.85,1.01,0,1.72-.52,2.05-1.11v1.02h.92v-5.48h-.92v1c-.32-.57-1.02-1.09-2.04-1.09-1.47,0-2.6,1.1-2.6,2.81Zm4.64,0c0,1.29-.86,2.04-1.86,2.04s-1.85-.76-1.85-2.05.85-2.02,1.85-2.02,1.86.76,1.86,2.03Zm3.37-.23c0-1.27.66-1.66,1.53-1.66h.24v-.94c-.87,0-1.46.38-1.77.99v-.89h-.91v5.48h.91v-2.98Z"
  />
  <path
    class="cls-4"
    d="m34.16,203.95v5.24c0,.58-.17,1.04-.5,1.38-.33.33-.79.5-1.38.5-.64,0-1.14-.19-1.51-.56-.36-.38-.54-.91-.54-1.59h.91c0,.41.09.73.27.97.18.23.46.35.83.35.35,0,.61-.1.77-.3s.24-.45.24-.75v-5.24h.91Zm3.66,1.49c.53,0,.98.13,1.35.4.37.27.63.62.78,1.07v-1.4h.91v5.49h-.91v-1.4c-.15.45-.41.8-.78,1.07-.37.27-.82.4-1.35.4-.49,0-.92-.11-1.3-.34-.38-.23-.68-.55-.9-.97-.21-.43-.32-.93-.32-1.5s.11-1.07.32-1.5c.22-.43.52-.75.9-.98.38-.23.81-.34,1.3-.34Zm.26.81c-.56,0-1.01.18-1.35.54-.33.35-.5.84-.5,1.47s.17,1.12.5,1.48c.34.35.79.53,1.35.53.36,0,.68-.08.96-.25.29-.17.51-.4.67-.7.16-.31.24-.66.24-1.06s-.08-.75-.24-1.06c-.16-.31-.38-.54-.67-.7-.28-.17-.6-.25-.96-.25Zm7.12-.83c.64,0,1.16.21,1.55.62.39.41.59,1,.59,1.77v3.19h-.91v-3.11c0-.55-.14-.97-.42-1.26-.28-.29-.66-.44-1.14-.44s-.9.16-1.2.49c-.3.32-.45.79-.45,1.41v2.91h-.91v-5.49h.91v1.3c.14-.45.39-.79.74-1.03.36-.24.77-.36,1.24-.36Z"
  />
  <path
    class="cls-4"
    d="m64.72,203.95v.74h-3.08v2.44h2.61v.71h-2.61v3.16h-.91v-7.05h3.99Zm6.13,4c0,.19-.01.36-.04.5h-4.39c.02.63.2,1.1.53,1.41.34.31.75.47,1.24.47.44,0,.81-.11,1.1-.33.3-.23.48-.53.55-.9h.97c-.07.38-.22.72-.45,1.02-.23.3-.52.53-.89.7-.37.17-.78.25-1.24.25-.53,0-.99-.11-1.4-.34-.41-.23-.73-.55-.96-.97-.23-.43-.34-.93-.34-1.5s.11-1.07.34-1.5c.23-.43.55-.75.96-.98.41-.23.87-.34,1.4-.34s1,.11,1.39.34c.4.23.7.53.91.91.21.38.32.8.32,1.26Zm-.92.06c.02-.41-.05-.75-.2-1.02-.15-.27-.36-.48-.63-.61-.27-.13-.56-.2-.87-.2-.5,0-.92.16-1.26.47-.34.31-.52.76-.55,1.36h3.51Zm5.14-2.57c.49,0,.92.11,1.3.34.38.23.68.55.89.98.22.43.33.93.33,1.5s-.11,1.07-.33,1.5c-.21.42-.51.74-.89.97-.38.23-.81.34-1.3.34-.53,0-.99-.13-1.36-.4-.37-.27-.62-.63-.76-1.07v1.4h-.91v-7.4h.91v3.31c.14-.44.39-.79.76-1.06.37-.27.83-.41,1.36-.41Zm-.26.81c-.35,0-.67.08-.96.25-.29.16-.51.39-.67.7-.16.31-.24.66-.24,1.06s.08.75.24,1.06c.16.3.38.53.67.7.29.17.61.25.96.25.57,0,1.02-.18,1.35-.53.34-.36.51-.85.51-1.48s-.17-1.12-.51-1.47c-.33-.36-.78-.54-1.35-.54Z"
  />
  <path
    class="cls-4"
    d="m124.86,209.37h-3.1l-.59,1.63h-.98l2.61-6.92h1.03l2.6,6.92h-.98l-.59-1.63Zm-.26-.71l-1.29-3.56-1.29,3.56h2.58Zm5.78-3.22c.49,0,.92.11,1.3.34.38.23.68.55.89.98.22.43.33.93.33,1.5s-.11,1.07-.33,1.5c-.21.42-.51.74-.89.97-.38.23-.81.34-1.3.34-.53,0-.99-.13-1.36-.4-.37-.27-.62-.63-.76-1.07v4h-.91v-8.09h.91v1.4c.14-.44.39-.79.76-1.06.37-.27.83-.41,1.36-.41Zm-.26.81c-.35,0-.67.08-.96.25-.29.16-.51.39-.67.7-.16.31-.24.66-.24,1.06s.08.75.24,1.06c.16.3.38.53.67.7.29.17.61.25.96.25.57,0,1.02-.18,1.35-.53.34-.36.51-.85.51-1.48s-.17-1.12-.51-1.47c-.33-.36-.78-.54-1.35-.54Zm4.88.37c.18-.38.44-.67.79-.88.35-.21.76-.32,1.24-.32v.99h-.28c-.51,0-.93.13-1.26.4-.33.26-.49.69-.49,1.3v2.89h-.91v-5.49h.91v1.11Z"
  />
  <path
    class="cls-4"
    d="m155.79,204.07v6.93h-.91v-5.53l-2.21,5.53h-.81l-2.22-5.51v5.51h-.91v-6.93h1.09l2.46,5.82,2.42-5.82h1.09Zm3.71,1.37c.53,0,.98.13,1.35.4.37.27.63.62.78,1.07v-1.4h.91v5.49h-.91v-1.4c-.15.45-.41.8-.78,1.07-.37.27-.82.4-1.35.4-.49,0-.92-.11-1.3-.34-.38-.23-.68-.55-.9-.97-.21-.43-.32-.93-.32-1.5s.11-1.07.32-1.5c.22-.43.52-.75.9-.98.38-.23.81-.34,1.3-.34Zm.26.81c-.56,0-1.01.18-1.35.54-.33.35-.5.84-.5,1.47s.17,1.12.5,1.48c.34.35.79.53,1.35.53.36,0,.68-.08.96-.25.29-.17.51-.4.67-.7.16-.31.24-.66.24-1.06s-.08-.75-.24-1.06c-.16-.31-.38-.54-.67-.7-.28-.17-.6-.25-.96-.25Zm4.61-.74l1.78,4.32,1.65-4.32h1.01l-3.26,8.09h-1.03l1.14-2.69-2.31-5.4h1.02Z"
  />
  <path
    class="cls-4"
    d="m185.16,203.95v5.24c0,.58-.17,1.04-.5,1.38-.33.33-.79.5-1.38.5-.64,0-1.14-.19-1.51-.56-.36-.38-.54-.91-.54-1.59h.91c0,.41.09.73.27.97.18.23.46.35.83.35.35,0,.61-.1.77-.3.16-.2.24-.45.24-.75v-5.24h.91Zm6.29,1.56v5.49h-.91v-1.29c-.14.45-.39.79-.75,1.03-.35.23-.77.35-1.24.35-.63,0-1.15-.2-1.54-.61-.39-.41-.59-1-.59-1.77v-3.2h.91v3.11c0,.55.14.97.42,1.27.28.29.66.44,1.14.44s.9-.16,1.2-.48c.3-.33.45-.8.45-1.42v-2.92h.91Zm4.35-.09c.64,0,1.16.21,1.55.62.39.41.59,1,.59,1.77v3.19h-.91v-3.11c0-.55-.14-.97-.42-1.26-.28-.29-.66-.44-1.14-.44s-.9.16-1.2.49c-.3.32-.45.79-.45,1.41v2.91h-.91v-5.49h.91v1.3c.14-.45.39-.79.74-1.03.36-.24.77-.36,1.24-.36Z"
  />
  <path
    class="cls-4"
    d="m216.16,203.95v5.24c0,.58-.17,1.04-.5,1.38-.33.33-.79.5-1.38.5-.64,0-1.14-.19-1.51-.56-.36-.38-.54-.91-.54-1.59h.91c0,.41.09.73.27.97.18.23.46.35.83.35.35,0,.61-.1.77-.3.16-.2.24-.45.24-.75v-5.24h.91Zm6.29,1.56v5.49h-.91v-1.29c-.14.45-.39.79-.75,1.03-.35.23-.77.35-1.24.35-.63,0-1.15-.2-1.54-.61-.39-.41-.59-1-.59-1.77v-3.2h.91v3.11c0,.55.14.97.42,1.27.28.29.66.44,1.14.44s.9-.16,1.2-.48c.3-.33.45-.8.45-1.42v-2.92h.91Zm2.37-1.91v7.4h-.91v-7.4h.91Z"
  />
  <path
    class="cls-11"
    d="m20,110.41c3.8,0,6.07-.92,9.72,0,6.37,1.6,5.88,8.27,12.01,10.48,5.57,2.01,9.6-.83,15.44.5,13.15,2.99,11.87,18.5,25.16,20.96,5.24.97,8.52-1.14,13.72,0,11.03,2.41,9.71,20.86,20.59,17.97,5.14-1.37,5.25-6.36,10.29-7.99,12.44-4.01,11.73,23.31,24.59,20.46,7.5-1.66,6.94-9.87,14.29-11.98,5.3-1.52,8.76.64,14.29,0,25.36-2.92,21.38-38.18,46.89-39.92,3.12-.21,8.01,0,8.01,0"
  />
  <path
    class="cls-13"
    d="m96,142.06c11.02,2.43,9.7,21.06,20.57,18.14,5.14-1.38,5.25-6.42,10.29-8.06,12.44-4.05,11.72,23.53,24.57,20.66,7.5-1.68,6.94-9.96,14.29-12.09,5.3-1.54,8.75.64,14.29,0,13.16-1.53,18.42-11.87,24-21.7"
  />
  <path
    class="cls-5"
    d="m24,69.22c.57.18,1.02.34,1.37.5.35.16.65.4.89.73.25.32.37.75.37,1.28,0,.42-.11.8-.32,1.16-.21.35-.52.64-.95.85-.42.22-.94.32-1.56.32h-.02v.96h-.41v-.98c-.79-.06-1.44-.31-1.94-.74-.5-.44-.78-1-.84-1.67h1.46c.03.31.16.6.38.85.23.26.54.42.94.48v-2.72c-.66-.2-1.16-.37-1.5-.52-.34-.15-.65-.39-.91-.72-.26-.33-.4-.77-.4-1.32,0-.45.12-.84.35-1.19.24-.34.57-.61,1-.8s.91-.29,1.46-.29v-1.02h.41v1.03c.78.06,1.41.29,1.87.7.46.41.73.92.8,1.55h-1.48c-.05-.29-.18-.54-.38-.74-.2-.22-.47-.36-.82-.42v2.64l.23.07Zm-1.98-1.57c0,.35.12.63.35.84.23.2.56.38,1,.53v-2.54c-.42,0-.74.12-.98.32-.24.2-.36.48-.36.85Zm1.75,5.36c.44,0,.78-.12,1.02-.35.25-.23.37-.53.37-.89s-.12-.65-.36-.85c-.24-.21-.58-.39-1.03-.54v2.63Zm6.68-.08c1.3-.89,2.33-1.76,3.11-2.6.78-.86,1.18-1.65,1.18-2.38,0-.43-.11-.78-.32-1.03-.21-.26-.55-.38-1.02-.38s-.86.16-1.1.48c-.25.31-.39.76-.42,1.34h-1.33c.06-.97.35-1.71.89-2.22.54-.51,1.24-.77,2.08-.77s1.47.22,1.93.66c.47.43.71,1.03.71,1.8,0,.62-.19,1.24-.58,1.87-.38.63-.86,1.22-1.44,1.75-.58.53-1.19.98-1.81,1.37h4.02v1.12h-5.88v-1.01Zm8,.13c.14.37.22.75.22,1.14,0,.45-.12.81-.35,1.09-.23.29-.58.43-1.06.43v-.55c.2,0,.35-.05.44-.16.1-.1.14-.28.14-.53v-.11h-.7v-1.32h1.3Zm4.25-7.8c.56,0,1.04.1,1.44.3.4.19.7.46.9.8.21.34.31.73.31,1.15,0,.54-.15.98-.46,1.34-.3.35-.72.56-1.26.64v.06c.58.17,1.04.42,1.37.76.34.33.5.78.5,1.37,0,.71-.24,1.29-.71,1.74-.47.44-1.15.66-2.03.66s-1.63-.23-2.18-.68c-.55-.46-.87-1.15-.95-2.05h1.36c.05.48.22.86.52,1.15.3.28.7.42,1.2.42.47,0,.83-.12,1.08-.37.26-.25.38-.57.38-.96,0-.47-.18-.83-.55-1.08-.36-.25-.88-.37-1.57-.37h-.32v-1.13h.32c1.3.02,1.96-.43,1.96-1.33,0-.39-.12-.7-.36-.92-.24-.22-.57-.34-.98-.34s-.76.13-1.04.38c-.28.25-.45.61-.5,1.09h-1.34c.06-.83.34-1.48.84-1.93.5-.46,1.2-.7,2.09-.7Zm7.12,0c.56,0,1.04.1,1.44.3.4.19.7.46.9.8.21.34.31.73.31,1.15,0,.54-.15.98-.46,1.34-.3.35-.72.56-1.26.64v.06c.58.17,1.04.42,1.37.76.34.33.5.78.5,1.37,0,.71-.24,1.29-.71,1.74-.47.44-1.15.66-2.03.66s-1.63-.23-2.18-.68c-.55-.46-.87-1.15-.95-2.05h1.36c.05.48.22.86.52,1.15.3.28.7.42,1.2.42.47,0,.83-.12,1.08-.37.26-.25.38-.57.38-.96,0-.47-.18-.83-.55-1.08-.36-.25-.88-.37-1.57-.37h-.32v-1.13h.32c1.3.02,1.96-.43,1.96-1.33,0-.39-.12-.7-.36-.92-.24-.22-.57-.34-.98-.34s-.76.13-1.04.38c-.28.25-.45.61-.5,1.09h-1.34c.06-.83.34-1.48.84-1.93.5-.46,1.2-.7,2.09-.7Zm3.94,6.91v-1.15l4.21-5.57h1.46v5.52h1.19v1.2h-1.19v1.82h-1.38v-1.82h-4.3Zm4.39-5.09l-2.98,3.89h2.98v-3.89Zm4.47,5.98c.14.37.22.75.22,1.14,0,.45-.12.81-.35,1.09-.23.29-.58.43-1.06.43v-.55c.2,0,.35-.05.44-.16.1-.1.14-.28.14-.53v-.11h-.7v-1.32h1.3Zm5.92-5.26c-.14-.94-.64-1.42-1.48-1.42-.61,0-1.06.24-1.37.73-.3.48-.46,1.24-.46,2.27v.41c.13-.43.39-.78.79-1.03.4-.26.87-.38,1.42-.38.83,0,1.48.25,1.96.74.47.5.71,1.2.71,2.1,0,.54-.11,1.03-.32,1.46-.22.42-.54.76-.97,1.02-.43.25-.96.37-1.6.37-1.22,0-2.06-.38-2.52-1.14s-.68-1.8-.68-3.13c0-1.52.24-2.66.73-3.41s1.29-1.13,2.4-1.13c.83,0,1.47.24,1.91.71.45.47.71,1.08.78,1.82h-1.3Zm-3.17,3.26c0,.52.15.96.46,1.31.3.34.75.52,1.34.52.5,0,.9-.15,1.2-.44.3-.3.46-.71.46-1.24,0-.57-.15-1-.46-1.31-.3-.3-.72-.46-1.24-.46-.47,0-.88.14-1.24.42s-.53.68-.53,1.2Zm11.15-4.56l-3.16,7.49h-1.44l3.2-7.33h-4.2v-1.19h5.59v1.03Z"
  />
  <path
    class="cls-6"
    d="m21.48,80.65v6.35h-.82v-6.35h.82Zm3.92,1.32c.58,0,1.04.19,1.4.56.35.37.53.9.53,1.59v2.87h-.82v-2.8c0-.49-.13-.87-.38-1.13-.25-.26-.59-.4-1.03-.4s-.81.15-1.08.44c-.27.29-.41.71-.41,1.27v2.62h-.82v-4.94h.82v1.17c.13-.4.35-.71.67-.93.32-.22.7-.32,1.12-.32Zm5.37.02c.63,0,1.15.17,1.57.5.41.34.67.79.76,1.35h-.86c-.06-.35-.22-.63-.5-.83-.26-.2-.59-.31-.99-.31-.29,0-.55.07-.79.2-.23.13-.42.34-.57.61-.14.27-.22.61-.22,1.01s.07.74.22,1.02c.14.27.33.47.57.6.24.13.5.2.79.2.4,0,.73-.1.99-.31.27-.2.43-.48.5-.84h.86c-.1.57-.35,1.02-.76,1.36-.41.33-.94.5-1.57.5-.47,0-.89-.1-1.26-.31-.37-.2-.65-.5-.86-.87-.2-.38-.31-.83-.31-1.35s.1-.97.31-1.35c.21-.38.5-.68.86-.88.37-.2.79-.31,1.26-.31Zm5.64,0c.47,0,.9.1,1.27.31.38.2.67.5.88.88.22.38.32.83.32,1.35s-.11.97-.32,1.35c-.21.38-.5.67-.88.87-.37.2-.8.31-1.27.31s-.9-.1-1.28-.31c-.37-.2-.67-.5-.88-.87-.22-.38-.32-.83-.32-1.35s.11-.97.32-1.35c.22-.38.51-.68.88-.88.38-.2.8-.31,1.28-.31Zm0,.72c-.29,0-.57.07-.82.2-.25.13-.45.34-.6.61-.15.27-.22.61-.22,1.01s.08.73.22,1.01c.16.27.36.47.6.6.25.13.53.2.82.2s.56-.07.81-.2c.25-.13.45-.33.6-.6.16-.28.23-.61.23-1.01s-.08-.74-.23-1.01c-.15-.28-.35-.48-.6-.61-.25-.13-.52-.2-.81-.2Zm9.62-.74c.58,0,1.04.19,1.39.56.35.37.53.9.53,1.59v2.87h-.82v-2.8c0-.49-.12-.86-.36-1.12-.23-.26-.56-.39-.97-.39s-.78.14-1.04.43c-.26.28-.39.7-.39,1.25v2.62h-.82v-2.8c0-.49-.12-.86-.36-1.12-.24-.26-.56-.39-.97-.39-.44,0-.79.14-1.05.43-.26.28-.39.7-.39,1.25v2.62h-.82v-4.94h.82v1.12c.12-.39.33-.69.64-.89.31-.21.67-.32,1.07-.32s.78.11,1.09.32c.31.21.53.52.67.94.14-.4.37-.71.69-.93.32-.22.69-.33,1.1-.33Zm7.73,2.28c0,.17-.01.32-.04.45h-3.95c.02.56.18.99.48,1.27.31.28.68.42,1.12.42.4,0,.73-.1.99-.3.27-.2.44-.47.5-.81h.87c-.06.34-.19.65-.4.92-.2.27-.47.48-.8.63-.33.15-.7.23-1.12.23-.47,0-.89-.1-1.26-.31-.37-.2-.65-.5-.86-.87-.2-.38-.31-.83-.31-1.35s.1-.97.31-1.35c.21-.38.5-.68.86-.88.37-.2.79-.31,1.26-.31s.9.1,1.25.31c.36.2.63.48.82.82.19.34.29.72.29,1.13Zm-.83.05c.02-.37-.04-.67-.18-.92s-.33-.43-.57-.55c-.24-.12-.5-.18-.78-.18-.45,0-.83.14-1.13.42-.31.28-.47.68-.5,1.22h3.16Z"
  />
  <path
    class="cls-3"
    d="m197.51,69.22c.57.18,1.02.34,1.37.5.35.16.65.4.89.73.25.32.37.75.37,1.28,0,.42-.11.8-.32,1.16-.21.35-.52.64-.95.85-.42.22-.94.32-1.56.32h-.02v.96h-.41v-.98c-.79-.06-1.44-.31-1.94-.74-.5-.44-.78-1-.84-1.67h1.46c.03.31.16.6.38.85.23.26.54.42.94.48v-2.72c-.66-.2-1.16-.37-1.5-.52-.34-.15-.65-.39-.91-.72-.26-.33-.4-.77-.4-1.32,0-.45.12-.84.35-1.19.24-.34.57-.61,1-.8.42-.19.91-.29,1.46-.29v-1.02h.41v1.03c.78.06,1.41.29,1.87.7.46.41.73.92.8,1.55h-1.48c-.05-.29-.18-.54-.38-.74-.2-.22-.47-.36-.82-.42v2.64l.23.07Zm-1.98-1.57c0,.35.12.63.35.84.23.2.56.38,1,.53v-2.54c-.42,0-.74.12-.98.32-.24.2-.36.48-.36.85Zm1.75,5.36c.44,0,.78-.12,1.02-.35.25-.23.37-.53.37-.89s-.12-.65-.36-.85c-.24-.21-.58-.39-1.03-.54v2.63Zm12.7-6.41h-4.19v2.52c.19-.25.46-.44.82-.59.35-.15.74-.23,1.16-.23.59,0,1.08.13,1.48.38.39.25.68.58.86,1,.19.42.29.88.29,1.38,0,.89-.25,1.61-.74,2.16-.5.54-1.22.82-2.16.82-.89,0-1.6-.24-2.15-.71-.54-.47-.84-1.1-.89-1.88h1.34c.07.43.25.77.53,1.02.29.25.65.37,1.09.37.54,0,.95-.16,1.22-.49.27-.33.41-.76.41-1.31,0-.51-.14-.91-.42-1.2-.28-.3-.68-.44-1.2-.44-.37,0-.69.08-.97.24-.27.16-.47.37-.6.64h-1.33v-4.88h5.45v1.21Zm2.9,5.88v1.51h-1.55v-1.51h1.55Zm3.98-7.22c.56,0,1.04.1,1.44.3.4.19.7.46.9.8.21.34.31.73.31,1.15,0,.54-.15.98-.46,1.34-.3.35-.72.56-1.26.64v.06c.58.17,1.04.42,1.37.76.34.33.5.78.5,1.37,0,.71-.24,1.29-.71,1.74-.47.44-1.15.66-2.03.66s-1.63-.23-2.18-.68c-.55-.46-.87-1.15-.95-2.05h1.36c.05.48.22.86.52,1.15.3.28.7.42,1.2.42.47,0,.83-.12,1.08-.37.26-.25.38-.57.38-.96,0-.47-.18-.83-.55-1.08-.36-.25-.88-.37-1.57-.37h-.32v-1.13h.32c1.3.02,1.96-.43,1.96-1.33,0-.39-.12-.7-.36-.92s-.57-.34-.98-.34-.76.13-1.04.38c-.28.25-.45.61-.5,1.09h-1.34c.06-.83.34-1.48.84-1.93.5-.46,1.2-.7,2.09-.7Zm3.68,1.55v-1.28h2.71v8.47h-1.44v-7.19h-1.27Zm13.14-1.15v8.34h-1.38v-6.25l-2.41,6.25h-1.2l-2.42-6.25v6.25h-1.37v-8.34h1.66l2.76,6.66,2.71-6.66h1.66Z"
  />
  <path
    class="cls-9"
    d="m194.74,81.32v2.17h2.41v.63h-2.41v2.21h2.68v.67h-3.5v-6.35h3.5v.67h-2.68Zm6.58,5.68l-1.29-1.89-1.16,1.89h-.91l1.62-2.55-1.63-2.39h.94l1.25,1.84,1.14-1.84h.91l-1.61,2.48,1.67,2.46h-.94Zm4.43-5c.44,0,.83.1,1.17.31.34.2.61.5.8.88.2.38.3.83.3,1.35s-.1.97-.3,1.35c-.19.38-.46.67-.8.87-.34.2-.73.31-1.17.31-.48,0-.89-.12-1.22-.36-.33-.25-.56-.57-.68-.96v3.6h-.82v-7.28h.82v1.26c.13-.4.35-.71.68-.95.34-.25.74-.37,1.22-.37Zm-.23.73c-.32,0-.61.08-.86.22-.26.14-.46.35-.6.63-.14.28-.22.59-.22.95s.07.68.22.95c.14.27.34.48.6.63.26.15.55.22.86.22.51,0,.91-.16,1.21-.48.31-.32.46-.77.46-1.33s-.15-1-.46-1.32c-.3-.32-.71-.49-1.21-.49Zm8.12,1.53c0,.17-.01.32-.04.45h-3.95c.02.56.18.99.48,1.27.31.28.68.42,1.12.42.4,0,.73-.1.99-.3.27-.2.44-.47.5-.81h.87c-.06.34-.2.65-.4.92-.2.27-.47.48-.8.63-.33.15-.7.23-1.12.23-.47,0-.89-.1-1.26-.31-.37-.2-.65-.5-.86-.87-.2-.38-.31-.83-.31-1.35s.1-.97.31-1.35c.21-.38.5-.68.86-.88.37-.2.79-.31,1.26-.31s.9.1,1.25.31c.36.2.63.48.82.82.19.34.29.72.29,1.13Zm-.83.05c.02-.37-.04-.67-.18-.92s-.33-.43-.57-.55-.5-.18-.78-.18c-.45,0-.83.14-1.13.42-.31.28-.47.68-.49,1.22h3.16Zm4.5-2.33c.58,0,1.04.19,1.39.56.35.37.53.9.53,1.59v2.87h-.82v-2.8c0-.49-.13-.87-.38-1.13-.25-.26-.59-.4-1.03-.4s-.81.15-1.08.44c-.27.29-.4.71-.4,1.27v2.62h-.82v-4.94h.82v1.17c.13-.4.35-.71.67-.93.32-.22.7-.32,1.12-.32Zm4.73.02c.56,0,1.01.15,1.34.44.34.29.55.68.62,1.17h-.78c-.04-.29-.16-.53-.37-.72-.2-.19-.48-.29-.83-.29-.29,0-.52.07-.69.22-.16.14-.24.33-.24.57,0,.18.05.33.16.44.11.11.25.19.41.25.17.05.4.11.68.18.37.08.66.17.88.26.23.08.42.22.58.41.16.19.24.45.24.77,0,.4-.15.73-.46.98-.3.25-.7.38-1.21.38-.59,0-1.07-.14-1.44-.42-.37-.28-.59-.67-.66-1.18h.79c.03.3.16.54.39.73.23.19.54.28.92.28.28,0,.5-.07.66-.22.16-.14.24-.33.24-.57,0-.19-.06-.34-.17-.46-.11-.11-.26-.2-.42-.26-.17-.06-.4-.12-.69-.19-.37-.08-.66-.17-.88-.25-.22-.08-.4-.22-.56-.4-.15-.19-.23-.43-.23-.75,0-.41.15-.75.46-1,.31-.26.72-.39,1.25-.39Zm7.65,2.26c0,.17-.01.32-.04.45h-3.95c.02.56.18.99.48,1.27.31.28.68.42,1.12.42.4,0,.73-.1.99-.3.27-.2.43-.47.49-.81h.87c-.06.34-.2.65-.4.92-.2.27-.47.48-.8.63-.33.15-.7.23-1.12.23-.47,0-.89-.1-1.26-.31-.37-.2-.65-.5-.86-.87-.2-.38-.31-.83-.31-1.35s.1-.97.31-1.35c.21-.38.5-.68.86-.88.37-.2.79-.31,1.26-.31s.9.1,1.25.31c.36.2.63.48.82.82.19.34.29.72.29,1.13Zm-.83.05c.02-.37-.04-.67-.18-.92s-.33-.43-.57-.55c-.24-.12-.5-.18-.78-.18-.45,0-.83.14-1.13.42-.31.28-.47.68-.5,1.22h3.16Zm3.45-2.31c.56,0,1.01.15,1.34.44.34.29.55.68.62,1.17h-.78c-.04-.29-.16-.53-.37-.72-.2-.19-.48-.29-.83-.29-.29,0-.52.07-.69.22-.16.14-.24.33-.24.57,0,.18.05.33.16.44.11.11.25.19.41.25.17.05.4.11.68.18.37.08.66.17.88.26.23.08.42.22.58.41.16.19.24.45.24.77,0,.4-.15.73-.46.98-.3.25-.7.38-1.21.38-.59,0-1.07-.14-1.44-.42-.37-.28-.59-.67-.66-1.18h.79c.03.3.16.54.39.73.23.19.54.28.92.28.28,0,.5-.07.66-.22.16-.14.24-.33.24-.57,0-.19-.06-.34-.17-.46-.11-.11-.26-.2-.42-.26-.17-.06-.4-.12-.69-.19-.37-.08-.66-.17-.88-.25-.22-.08-.4-.22-.56-.4-.15-.19-.23-.43-.23-.75,0-.41.15-.75.46-1,.31-.26.72-.39,1.25-.39Z"
  />
  <path
    class="cls-2"
    d="m26.32,24.54c1.06,0,2.01.25,2.86.74.86.49,1.54,1.18,2.03,2.06.5.87.75,1.87.75,2.98s-.25,2.11-.75,2.99c-.49.89-1.17,1.57-2.03,2.06-.85.49-1.81.74-2.86.74s-2.02-.25-2.88-.74c-.85-.49-1.53-1.18-2.03-2.06-.49-.89-.74-1.88-.74-2.99s.25-2.1.74-2.98c.5-.89,1.18-1.57,2.03-2.06.86-.49,1.82-.74,2.88-.74Zm0,2.08c-.66,0-1.24.15-1.74.45-.5.3-.9.73-1.18,1.3-.28.55-.42,1.21-.42,1.95s.14,1.4.42,1.97c.29.55.68.98,1.18,1.28.5.3,1.08.45,1.74.45s1.24-.15,1.74-.45c.5-.3.89-.73,1.17-1.28.29-.57.43-1.22.43-1.97s-.14-1.4-.43-1.95c-.28-.57-.67-1-1.17-1.3-.5-.3-1.08-.45-1.74-.45Zm12.62.38c1.02,0,1.84.34,2.45,1.01.61.67.91,1.62.91,2.83v5.15h-2.24v-4.9c0-.7-.18-1.25-.54-1.63-.36-.39-.86-.59-1.49-.59s-1.15.21-1.54.62c-.38.42-.58,1.01-.58,1.79v4.7h-2.26v-8.86h2.26v1.78c.23-.6.62-1.06,1.15-1.39.54-.34,1.17-.51,1.87-.51Zm7.6-2.85v11.84h-2.26v-11.84h2.26Zm1.78.43c0-.36.13-.66.38-.88.26-.23.59-.35,1.01-.35s.75.12,1.01.35c.26.22.38.52.38.88s-.13.65-.38.88c-.26.22-.59.34-1.01.34s-.75-.11-1.01-.34c-.26-.23-.38-.53-.38-.88Zm2.51,2.54v8.86h-2.26v-8.86h2.26Zm7.32-.13c1.02,0,1.84.34,2.45,1.01.61.67.91,1.62.91,2.83v5.15h-2.24v-4.9c0-.7-.18-1.25-.54-1.63-.36-.39-.86-.59-1.49-.59s-1.15.21-1.54.62c-.38.42-.58,1.01-.58,1.79v4.7h-2.26v-8.86h2.26v1.78c.23-.6.62-1.06,1.15-1.39.54-.34,1.17-.51,1.87-.51Zm13.68,4.22c0,.22-.03.48-.08.77h-6.5c.03.79.25,1.37.64,1.74.39.37.89.56,1.47.56.52,0,.95-.13,1.3-.38.35-.26.58-.6.67-1.04h2.38c-.12.62-.37,1.17-.75,1.66s-.88.87-1.49,1.15c-.6.28-1.26.42-2,.42-.86,0-1.63-.18-2.3-.54-.67-.37-1.19-.9-1.57-1.58-.37-.68-.56-1.49-.56-2.42s.19-1.73.56-2.42c.37-.69.9-1.22,1.57-1.58.67-.36,1.44-.54,2.3-.54s1.64.18,2.29.54c.66.36,1.17.86,1.52,1.5.36.63.54,1.35.54,2.16Zm-2.27-.22c.03-.73-.16-1.27-.58-1.65-.41-.37-.91-.56-1.5-.56s-1.12.19-1.54.56-.65.92-.69,1.65h4.3Zm14.24,2.72h-4.53l-.8,2.27h-2.38l4.16-11.17h2.58l4.14,11.17h-2.38l-.78-2.27Zm-.61-1.71l-1.66-4.77-1.66,4.77h3.33Zm10.27-5.01c1.02,0,1.84.34,2.45,1.01.61.67.91,1.62.91,2.83v5.15h-2.24v-4.9c0-.7-.18-1.25-.54-1.63-.36-.39-.86-.59-1.49-.59s-1.15.21-1.54.62c-.38.42-.58,1.01-.58,1.79v4.7h-2.26v-8.86h2.26v1.78c.23-.6.62-1.06,1.15-1.39.54-.34,1.17-.51,1.87-.51Zm8.82.02c.75,0,1.39.18,1.92.53.53.35.91.83,1.14,1.42v-1.84h2.24v8.86h-2.24v-1.86c-.22.6-.6,1.08-1.14,1.44-.53.35-1.17.53-1.92.53s-1.42-.18-2.02-.54c-.6-.36-1.07-.89-1.41-1.57-.33-.69-.5-1.5-.5-2.43s.17-1.73.5-2.42c.34-.69.81-1.22,1.41-1.58.6-.36,1.27-.54,2.02-.54Zm.7,1.97c-.7,0-1.27.23-1.7.69-.43.46-.64,1.09-.64,1.89s.21,1.43.64,1.89c.43.45.99.67,1.7.67s1.24-.23,1.68-.69c.45-.47.67-1.09.67-1.87s-.22-1.41-.67-1.87c-.44-.47-1-.7-1.68-.7Zm8.89-4.83v11.84h-2.26v-11.84h2.26Zm3.56,2.98l2.42,6.02,2.24-6.02h2.48l-5.42,13.09h-2.5l2-4.48-3.73-8.61h2.51Zm11.26-.11c1.08,0,1.94.27,2.59.82s1.06,1.27,1.22,2.18h-2.11c-.09-.43-.28-.77-.58-1.02s-.69-.38-1.17-.38c-.38,0-.68.09-.9.27-.21.18-.32.43-.32.74,0,.25.08.44.26.59s.38.27.64.35c.26.09.62.19,1.1.3.67.15,1.22.31,1.63.48.43.16.79.42,1.09.78.31.35.46.83.46,1.44,0,.76-.3,1.37-.9,1.84-.59.47-1.38.7-2.38.7-1.15,0-2.08-.26-2.77-.77-.69-.52-1.12-1.26-1.26-2.22h2.16c.05.44.25.78.58,1.04.33.25.76.37,1.3.37.38,0,.68-.09.88-.27.2-.19.3-.44.3-.74,0-.26-.09-.46-.27-.62-.17-.16-.39-.28-.66-.37-.26-.09-.62-.19-1.1-.3-.66-.15-1.2-.3-1.62-.45-.4-.16-.76-.41-1.06-.75-.29-.34-.43-.81-.43-1.41,0-.77.29-1.39.88-1.87.59-.48,1.4-.72,2.43-.72Zm5.34-2.43c0-.36.13-.66.38-.88.26-.23.59-.35,1.01-.35s.75.12,1.01.35c.26.22.38.52.38.88s-.13.65-.38.88c-.26.22-.59.34-1.01.34s-.75-.11-1.01-.34c-.26-.23-.38-.53-.38-.88Zm2.51,2.54v8.86h-2.26v-8.86h2.26Zm5.1-.11c1.08,0,1.94.27,2.59.82s1.06,1.27,1.22,2.18h-2.11c-.09-.43-.28-.77-.58-1.02s-.69-.38-1.17-.38c-.38,0-.68.09-.9.27-.21.18-.32.43-.32.74,0,.25.09.44.26.59.17.15.38.27.64.35.26.09.62.19,1.1.3.67.15,1.22.31,1.63.48.43.16.79.42,1.09.78.31.35.46.83.46,1.44,0,.76-.3,1.37-.9,1.84-.59.47-1.38.7-2.38.7-1.15,0-2.07-.26-2.77-.77-.69-.52-1.12-1.26-1.26-2.22h2.16c.05.44.25.78.58,1.04.33.25.76.37,1.3.37.38,0,.68-.09.88-.27.2-.19.3-.44.3-.74,0-.26-.09-.46-.27-.62-.17-.16-.39-.28-.66-.37-.26-.09-.62-.19-1.1-.3-.66-.15-1.2-.3-1.62-.45-.4-.16-.76-.41-1.06-.75-.29-.34-.43-.81-.43-1.41,0-.77.29-1.39.88-1.87.59-.48,1.4-.72,2.43-.72Z"
  />
  <path
    class="cls-2"
    d="m183.13,28.8v-.85h2.02v7.05h-.96v-6.2h-1.06Zm13-.73v6.93h-.91v-5.53l-2.21,5.53h-.81l-2.22-5.51v5.51h-.91v-6.93h1.09l2.46,5.82,2.42-5.82h1.09Zm3.94,1.37c.53,0,1,.11,1.41.34.42.23.75.55.98.98.24.43.36.93.36,1.5s-.12,1.07-.36,1.5c-.23.42-.56.74-.98.97-.41.23-.88.34-1.41.34s-1-.11-1.42-.34c-.41-.23-.74-.55-.98-.97-.24-.43-.36-.93-.36-1.5s.12-1.07.36-1.5c.24-.43.57-.75.98-.98.42-.23.89-.34,1.42-.34Zm0,.8c-.33,0-.63.07-.91.22-.27.15-.5.37-.67.68-.17.3-.25.67-.25,1.12s.08.81.25,1.12c.17.3.4.52.67.67.28.15.58.22.91.22s.63-.07.9-.22c.28-.15.5-.37.67-.67.17-.31.26-.68.26-1.12s-.09-.82-.26-1.12c-.17-.31-.39-.53-.67-.68-.27-.15-.57-.22-.9-.22Zm6.83-.82c.64,0,1.16.21,1.55.62.39.41.59,1,.59,1.77v3.19h-.91v-3.11c0-.55-.14-.97-.42-1.26-.28-.29-.66-.44-1.14-.44s-.9.16-1.2.49c-.3.32-.45.79-.45,1.41v2.91h-.91v-5.49h.91v1.3c.14-.45.39-.79.74-1.03.36-.24.77-.36,1.24-.36Zm6.16,4.78v.8h-.68c-.56,0-.98-.13-1.26-.4-.27-.27-.41-.71-.41-1.34v-2.96h-.82v-.79h.82v-1.37h.92v1.37h1.42v.79h-1.42v2.98c0,.35.06.6.19.73.13.13.36.19.68.19h.56Zm4-4.78c.64,0,1.16.21,1.55.62.39.41.59,1,.59,1.77v3.19h-.91v-3.11c0-.55-.14-.97-.42-1.26-.28-.29-.66-.44-1.14-.44s-.9.16-1.2.49c-.3.32-.45.79-.45,1.41v2.91h-.91v-7.4h.91v3.21c.14-.45.39-.79.74-1.03.36-.24.77-.36,1.24-.36Z"
  />
  <g class="cls-10">
    <path class="cls-2" d="m226.08,30.83l2.92,2.92,2.92-2.92h-5.83Z" />
  </g>
</svg>
