<svg xmlns="http://www.w3.org/2000/svg" viewBox="0 0 101.25 24.2">
 <defs>
  <style>
   .cls-1 {
    fill: #fff;
   }

   .cls-2 {
    fill: #fbbc04;
   }

   .cls-3 {
    fill: #4285f4;
   }

   .cls-4 {
    fill: #34a853;
   }

   .cls-5 {
    fill: #ea4335;
   }
  </style>
 </defs>
 <path
  class="cls-5"
  d="m9.34,11.61L.08,21.3c.38,1.33,1.77,2.11,3.1,1.73.2-.06.39-.14.58-.24l10.42-5.93-4.84-5.26Z"
 />
 <path
  class="cls-2"
  d="m18.7,9.96l-4.5-2.58-5.07,4.45,5.09,5.02,4.47-2.55c1.2-.63,1.66-2.1,1.03-3.3-.23-.44-.59-.8-1.03-1.03h.01Z"
 />
 <path
  class="cls-3"
  d="m.08,2.9c-.06.21-.08.42-.08.63v17.13c0,.21.03.43.08.63l9.57-9.45L.08,2.9Z"
 />
 <path
  class="cls-4"
  d="m9.41,12.1l4.79-4.72L3.79,1.42c-.39-.23-.83-.35-1.29-.35C1.38,1.07.39,1.81.08,2.9l9.33,9.21Z"
 />
 <path
  class="cls-1"
  d="m42.64,13.09c-2.2,0-3.86,1.7-3.86,3.87s1.7,3.87,3.86,3.87,3.85-1.7,3.85-3.87-1.65-3.87-3.85-3.87Zm0,1.74c1.12,0,1.96.92,1.96,2.13s-.86,2.13-1.96,2.13-1.96-.94-1.96-2.13.86-2.13,1.96-2.13Z"
 />
 <path
  class="cls-1"
  d="m38.36,14.24h-5.24v-.21l-.19.21h-.1v.11l-.16.17h.16v1.57h3.75c-.12.76-.39,1.35-.8,1.77-.47.48-1.28,1.12-2.81,1.12-2.24,0-3.99-1.79-3.99-4.08s1.75-4.08,3.99-4.08c1.06,0,1.98.37,2.75,1.1l.1.09,1.3-1.31-.1-.1c-1.15-1.1-2.47-1.64-4.04-1.64-3.3,0-5.98,2.66-5.98,5.94s2.68,5.94,5.98,5.94h-.02c1.7-.01,3.05-.56,4.11-1.68,1.22-1.22,1.4-2.91,1.4-3.8,0-.39-.03-.73-.09-1.01l-.02-.11Z"
 />
 <path
  class="cls-1"
  d="m50.76,13.09c-2.2,0-3.86,1.7-3.86,3.87s1.7,3.87,3.86,3.87,3.86-1.7,3.86-3.87-1.66-3.87-3.86-3.87Zm0,1.74c1.12,0,1.96.92,1.96,2.13s-.86,2.13-1.96,2.13-1.96-.94-1.96-2.13.86-2.13,1.96-2.13Z"
 />
 <path class="cls-1" d="m65.16,9.36h-1.9v11.25h1.9v-11.25Z" />
 <path
  class="cls-1"
  d="m90.21,13.09c-1.1,0-2.47.46-3.03,1.76l-.05.12,1.69.71.06-.11c.24-.48.7-.73,1.36-.73.72,0,1.48.41,1.57,1.16-.38-.17-.93-.33-1.55-.33-1.62,0-3.27.89-3.27,2.6,0,1.45,1.22,2.54,2.83,2.55.85,0,1.51-.29,1.99-.87v.65h1.84v-4.34c0-1.9-1.38-3.17-3.44-3.17Zm1.6,4.49c-.16.87-.92,1.53-1.79,1.53-.44,0-1.14-.22-1.14-.8,0-.82,1-1.04,1.59-1.04.65,0,.97.13,1.34.31Z"
 />
 <path class="cls-1" d="m86.35,9.36h-1.9v11.25h1.9v-11.25Z" />
 <path
  class="cls-1"
  d="m60.61,13.8c-.39-.37-1.05-.7-1.88-.7-2,0-3.69,1.79-3.69,3.88s1.69,3.86,3.69,3.86c.84,0,1.49-.34,1.88-.71v.26c0,1.31-.68,2.06-1.85,2.06-.9,0-1.5-.65-1.75-1.25l-.05-.12-1.67.7.05.12c.43,1.06,1.58,2.29,3.41,2.29h0c2.29.01,3.66-1.5,3.66-4.02v-6.84h-1.81v.47Zm-1.75,5.3c-1.08,0-1.93-.92-1.93-2.12s.85-2.14,1.93-2.14,1.85.93,1.85,2.14-.77,2.12-1.85,2.12Z"
 />
 <path
  class="cls-1"
  d="m101.25,13.31h-2.1l-1.8,4.61-1.87-4.61h-2.05l2.96,6.79-1.71,3.84h1.99,0s4.51-10.44,4.51-10.44l.08-.19Z"
 />
 <path
  class="cls-1"
  d="m72.6,15.55l-.03-.07c-.21-.53-1.2-2.39-3.27-2.39s-3.63,1.66-3.63,3.87,1.64,3.87,3.82,3.87c1.84,0,2.85-1.2,3.2-1.71l.08-.11-1.49-1-.08.11c-.44.65-.99.97-1.71.97s-1.25-.3-1.61-.93l4.94-2.06-.22-.55Zm-2.02-.16l-3,1.25c.03-.62.3-1.03.54-1.27.34-.35.82-.57,1.25-.57h0c.53,0,.99.23,1.2.59Z"
 />
 <path
  class="cls-1"
  d="m80.11,9.36h-4.03v11.25h1.9v-4.15h2.13c1.82,0,3.71-1.33,3.71-3.55s-1.88-3.55-3.71-3.55Zm1.81,3.55c0,.8-.62,1.67-1.64,1.74h-2.31v-3.49h2.18c1.09,0,1.77.95,1.77,1.75Z"
 />
 <path
  class="cls-1"
  d="m53.63,5.81c.81,0,1.47-.28,2.02-.84.55-.55.82-1.23.82-2.06s-.27-1.5-.82-2.05c-.55-.56-1.21-.84-2.02-.84s-1.47.28-2.02.83c-.55.55-.82,1.23-.82,2.06s.28,1.52.82,2.06c.55.57,1.21.84,2.02.84Zm-1.35-4.33c.37-.38.8-.56,1.34-.56s.98.18,1.34.56c.36.36.54.83.54,1.42s-.17,1.05-.54,1.42c-.35.37-.8.56-1.33.56s-.97-.19-1.34-.56c-.36-.38-.53-.84-.53-1.42s.17-1.04.53-1.42h-.01Z"
 />
 <path
  class="cls-1"
  d="m58.05,1.69l2.47,4h.91V.13h-.93v3.8l-2.35-3.79h-1.03v5.54h.93V1.69Z"
 />
 <path class="cls-1" d="m44.43.14h-.94v5.55h.94V.14Z" />
 <path
  class="cls-1"
  d="m36.87,4.77h-2.39v-1.41h2.16v-.9h-2.16v-1.4h2.39V.14h-3.33v5.55h3.33v-.92Z"
 />
 <path class="cls-1" d="m46.48,5.69h.95V1.05h1.46V.13h-3.87v.92h1.46v4.64Z" />
 <path class="cls-1" d="m39.7,5.69h.01V1.05h1.46V.13h-3.87v.92h1.46v4.64h.94Z" />
 <path
  class="cls-1"
  d="m30.14,5.8v-.02c.83,0,1.51-.27,2.02-.82.46-.46.69-1.09.69-1.86,0-.07,0-.16-.02-.24h.18l-.21-.2v-.08h-.08l-.26-.26.05.26h-2.51v.9h1.88c-.07.41-.25.73-.54.98-.32.27-.73.41-1.22.41-.54,0-.98-.19-1.35-.56-.37-.39-.55-.85-.55-1.42s.18-1.04.55-1.42c.38-.37.84-.56,1.36-.56.29,0,.55.05.78.15.25.11.43.25.57.43l.09.12.68-.69-.08-.09c-.23-.26-.52-.47-.89-.62-.36-.14-.73-.21-1.14-.21-.8,0-1.48.28-2.03.84-.55.56-.83,1.24-.83,2.06s.28,1.51.83,2.06c.55.56,1.23.84,2.03.84Z"
 />
</svg>
