<svg xmlns="http://www.w3.org/2000/svg" viewBox="0 0 192.22 59.99">
  <path
    d="m131.39,21.49c-3.96,0-5.83,2.4-5.83,2.4v-12.67h-5.76v33.45h4.86c.48,0,.84-.42.84-.84v-1.02s1.86,2.46,5.83,2.46c6.55,0,11.65-5.05,11.65-11.89.06-6.85-5.04-11.89-11.59-11.89Zm-.96,18.33h0c-2.22-.01-3.96-1.15-4.86-2.47v-8.05c.9-1.2,2.82-2.46,4.86-2.46,3.84,0,6.79,2.4,6.79,6.49s-2.94,6.49-6.79,6.49Z"
  />
  <path
    d="m54.95,42.63c-.3-.72-.6-1.5-.9-2.16-.48-1.08-.96-2.1-1.38-3.06l-.06-.06c-4.14-9.01-8.59-18.14-13.27-27.15l-.18-.36c-.48-.9-.96-1.86-1.44-2.82-.6-1.08-1.2-2.22-2.16-3.3-1.92-2.4-4.68-3.72-7.63-3.72s-5.71,1.32-7.69,3.6c-.9,1.08-1.56,2.22-2.16,3.3-.48.96-.96,1.92-1.44,2.82l-.18.36c-4.62,9.01-9.13,18.14-13.27,27.15l-.06.12c-.42.96-.9,1.98-1.38,3.06-.3.66-.6,1.38-.9,2.16-.78,2.22-1.02,4.32-.72,6.49.66,4.5,3.66,8.29,7.81,9.97,1.56.66,3.18.96,4.86.96.48,0,1.08-.06,1.56-.12,1.98-.24,4.02-.9,6.01-2.04,2.46-1.38,4.8-3.36,7.45-6.25,2.64,2.88,5.04,4.86,7.45,6.25,1.98,1.14,4.02,1.8,6.01,2.04.48.06,1.08.12,1.56.12,1.68,0,3.36-.3,4.86-.96,4.2-1.68,7.15-5.53,7.81-9.97.48-2.1.24-4.2-.54-6.43h-.02Zm-27.09,3.12c-3.24-4.08-5.35-7.93-6.07-11.17-.3-1.38-.36-2.58-.18-3.66.12-.96.48-1.8.96-2.52,1.14-1.62,3.06-2.64,5.29-2.64s4.2.96,5.29,2.64c.48.72.84,1.56.96,2.52.18,1.08.12,2.34-.18,3.66-.72,3.18-2.82,7.03-6.07,11.17Zm23.94,2.82h.02c-.42,3.12-2.52,5.83-5.47,7.03-1.44.6-3,.78-4.56.6-1.5-.18-3-.66-4.56-1.56-2.16-1.2-4.32-3.06-6.85-5.83,3.96-4.86,6.37-9.31,7.27-13.27.42-1.86.48-3.54.3-5.11-.24-1.5-.78-2.88-1.62-4.08-1.86-2.7-4.99-4.26-8.47-4.26s-6.61,1.62-8.47,4.26c-.84,1.2-1.38,2.58-1.62,4.08-.24,1.56-.18,3.3.3,5.11.9,3.96,3.36,8.47,7.27,13.33-2.46,2.76-4.68,4.62-6.85,5.83-1.56.9-3.06,1.38-4.56,1.56-1.62.18-3.18-.06-4.56-.6-2.94-1.2-5.04-3.9-5.47-7.03-.18-1.5-.06-3,.54-4.68.18-.6.48-1.2.78-1.92.42-.96.9-1.98,1.38-3l.06-.12c4.14-8.95,8.59-18.08,13.21-26.97l.18-.36c.48-.9.96-1.86,1.44-2.76.48-.96,1.02-1.86,1.68-2.64,1.26-1.44,2.94-2.22,4.8-2.22s3.54.78,4.8,2.22c.66.78,1.2,1.68,1.68,2.64.48.9.96,1.86,1.44,2.76l.18.36c4.56,8.95,9.01,18.08,13.15,27.03v.06c.48.96.9,2.04,1.38,3,.3.72.6,1.32.78,1.92.48,1.56.66,3.06.42,4.62Z"
  />
  <path
    d="m180.63,21.49c-3.96,0-5.83,2.4-5.83,2.4v-12.67h-5.77v33.45h4.87c.48,0,.84-.42.84-.84v-1.02s1.86,2.46,5.83,2.46c6.55,0,11.65-5.05,11.65-11.89s-5.1-11.89-11.59-11.89Zm-.96,18.33h0c-2.22-.01-3.96-1.15-4.86-2.47v-8.05c.9-1.2,2.82-2.46,4.86-2.46,3.84,0,6.79,2.4,6.79,6.49s-2.94,6.49-6.79,6.49Z"
  />
  <path
    d="m163.22,23.65c-1.69-1.44-3.79-2.16-6.31-2.16-2.23,0-4.45.66-6.13,2.4v-.96c0-.42-.36-.84-.84-.84h-4.56v22.58h5.77v-15.74c1.14-1.32,2.94-2.22,4.68-2.22,3.25,0,4.45,1.51,4.45,5.23v12.79h5.76v-13.45c0-3.79-.78-5.95-2.82-7.63Z"
  />
  <path
    d="m97.4,11.17c-2.22,0-3.9,1.74-3.9,3.9s1.74,3.9,3.9,3.9,3.9-1.74,3.9-3.9-1.68-3.84-3.9-3.9Z"
  />
  <path
    d="m114.81,21.5c-1.81,0-4.15,1.14-5.23,2.4v-.96c0-.42-.36-.84-.84-.84h-4.86v22.64h5.77v-15.8c3.01-3.42,7.81-1.8,7.81-1.8v-5.35s-.9-.3-2.64-.3h-.01Z"
  />
  <path
    d="m85.2,22.94v.96s-1.86-2.4-5.83-2.4c-6.55,0-11.65,4.99-11.65,11.89s5.04,11.89,11.65,11.89c4.02,0,5.83-2.46,5.83-2.46v1.02c0,.48.36.84.84.84h4.86v-22.58h-4.86c-.48,0-.84.42-.84.84Zm0,14.46h0c-.9,1.33-2.7,2.47-4.86,2.47-3.84,0-6.79-2.4-6.79-6.49s2.94-6.49,6.79-6.49c2.1,0,4.02,1.2,4.86,2.46v8.05Z"
  />
  <rect x="94.5" y="22.09" width="5.77" height="22.58" />
</svg>
