<svg xmlns="http://www.w3.org/2000/svg" viewBox="0 0 192.25 38.63">
  <rect
    x="31.2"
    y="16.23"
    width="6.17"
    height="6.17"
    transform="translate(-3.61 29.9) rotate(-45)"
  />
  <rect
    x="1.28"
    y="16.24"
    width="6.17"
    height="6.17"
    transform="translate(-12.38 8.74) rotate(-45)"
  />
  <polygon
    points="19.32 8.72 26.8 16.2 31.16 11.84 19.32 0 7.48 11.84 11.84 16.2 19.32 8.72"
  />
  <rect
    x="16.24"
    y="16.24"
    width="6.17"
    height="6.17"
    transform="translate(-8 19.32) rotate(-45)"
  />
  <polygon
    points="19.32 29.91 11.84 22.43 7.48 26.79 19.32 38.63 31.16 26.79 26.8 22.43 19.32 29.91"
  />
  <polygon
    points="143.66 21.77 133.73 8.72 129.43 8.72 129.43 29.91 134.03 29.91 134.03 16.44 144.29 29.91 148.27 29.91 148.28 29.92 148.28 8.72 143.66 8.72 143.66 21.77"
  />
  <path
    d="m163.82,25.98c-3.63,0-6.15-3.02-6.15-6.66v-.06c0-3.63,2.57-6.6,6.15-6.6,2.12,0,3.77.91,5.42,2.39l2.96-3.42c-1.97-1.94-4.36-3.27-8.35-3.27-6.51,0-11.05,4.93-11.05,10.95v.06c0,6.09,4.63,10.9,10.87,10.9,4.08.01,6.5-1.44,8.68-3.77l-2.96-3c-1.67,1.51-3.15,2.48-5.57,2.48Z"
  />
  <polygon
    points="180.73 25.77 180.73 21.31 190.72 21.31 190.72 17.16 180.73 17.16 180.73 12.88 192.09 12.88 192.09 8.73 176.1 8.73 176.1 29.92 192.25 29.92 192.25 25.77 180.73 25.77"
  />
  <polygon
    points="95.6 21.77 85.67 8.72 81.37 8.72 81.37 29.91 85.97 29.91 85.97 16.44 96.23 29.91 100.21 29.91 100.22 29.92 100.22 8.72 95.6 8.72 95.6 21.77"
  />
  <rect x="70.48" y="8.72" width="4.68" height="21.19" />
  <path
    d="m65.38,24.04c0-2.85-1.51-4.27-3.97-5.21,1.51-.85,2.79-2.18,2.79-4.57v-.06c0-3.33-2.67-5.48-7-5.48h-9.83v21.19h10.08c4.78,0,7.94-1.94,7.94-5.81h0v-.06Zm-13.46-11.23h4.6c1.97,0,3.06.79,3.06,2.18v.05h0c0,1.57-1.3,2.24-3.36,2.24h-4.29v-4.47Zm8.83,10.71h-.01c0,1.57-1.24,2.3-3.3,2.3h-5.53v-4.65h5.39c2.39,0,3.45.88,3.45,2.3v.05Z"
  />
  <path
    d="m112.65,8.57l-9.08,21.35h4.75l1.94-4.75h8.96l1.94,4.75h4.89l-9.1-21.35h-4.3Zm-.72,12.48l2.82-6.87,2.83,6.87h-5.65Z"
  />
</svg>
