<svg xmlns="http://www.w3.org/2000/svg" viewBox="0 0 189.01 41.25">
  <rect x="52.52" y="14.18" width="5.92" height="26.46" />
  <path
    d="m35.08,13.57c-7.89,0-13.64,5.67-13.64,13.86s5.67,13.81,13.62,13.81,13.7-5.57,13.7-13.81-5.75-13.86-13.68-13.86Zm0,22.6c-4.42,0-7.65-3.37-7.65-8.74s3.22-8.79,7.65-8.79,7.72,3.47,7.72,8.79-3.3,8.74-7.72,8.74Z"
  />
  <polygon points="35.07 13.57 35.08 13.57 35.08 13.57 35.07 13.57" />
  <path
    d="m14.71,36.05h0c-5.15,0-8.73-3.37-8.73-8.63,0-5.56,3.7-8.6,8.47-8.6,1.41,0,2.77.24,4.09.76l2.52-4.25c-2.18-1.16-4.37-1.76-7.13-1.76C6.14,13.57,0,18.94,0,27.43s5.86,13.83,13.94,13.81c2.65.04,5.25-.59,7.58-1.84-.05-.01-2.68-4.09-2.68-4.14-1.29.52-2.67.79-4.13.79Z"
  />
  <path
    d="m55.44,2.55c-.94,0-1.85.35-2.54,1-.69.64-1.11,1.53-1.17,2.47h.02c0,.99.39,1.94,1.08,2.65.69.7,1.63,1.11,2.62,1.13.99-.02,1.93-.42,2.62-1.13.69-.71,1.08-1.66,1.08-2.65-.06-.94-.48-1.82-1.17-2.47-.69-.64-1.6-1-2.54-1Z"
  />
  <path
    d="m189.01,28.76v-2.99c0-7.23-3.64-12.19-11.36-12.19-7.29,0-12.79,5.69-12.79,14.05s5.61,13.62,13.86,13.62c3.4,0,6.93-.77,9.32-2.46v-5.2c-2.63,1.73-5.26,2.58-8.9,2.58-4.14,0-8.19-2.58-8.55-7.31v-.1h18.42Zm-11.56-10.23c3.83,0,5.86,2.26,5.99,6.39h-12.68c.78-4,3.29-6.39,6.69-6.39Z"
  />
  <path
    d="m153.8,24.8c-3.05-.85-4.17-1.73-4.17-3.46s1.37-2.99,3.94-2.99c2.7.05,5.31,1,7.42,2.68v-5.43c-2.22-1.38-4.6-2.03-7.59-2.03-5.39,0-9.45,2.63-9.45,8,0,4.61,2.32,6.82,7.83,8.08,3.4.9,4.96,1.74,4.96,3.83s-1.73,2.99-4.36,2.99c-2.94-.11-5.77-1.16-8.08-2.99v5.61c2.48,1.46,5.31,2.2,8.19,2.14,5.73,0,9.97-2.5,9.97-8.08,0-4.77-2.61-7.04-8.66-8.35Z"
  />
  <polygon points="144.29 33.47 144.3 33.48 144.3 33.47 144.29 33.47" />
  <path
    d="m130.08,13.58c-3-.03-5.96.71-8.6,2.14v5.15c2.21-1.26,4.71-2.16,7.64-2.16s5.1,1.32,5.1,4.19h-.02v2.2h-2.93c-7.65,0-12.25,2.63-12.25,8.02,0,5.98,5.02,8.06,11.89,8.06,2.99,0,6.57-.41,9.09-1.07v-17.51c0-6.63-4.12-9.02-9.92-9.02Zm4.13,15.48v7.42c-1.07.17-2.33.28-3.23.28-3.58,0-6.1-1.11-6.1-3.81s2.69-3.91,6.82-3.91h2.53l-.02.02Z"
  />
  <path
    d="m75.74,13.56c-4.15.04-8.25.81-12.13,2.27h0s.02.01.02.01v24.77h5.91v-20.9c1.56-.49,3.66-.77,5.75-.77,3.29,0,5.67,1.37,5.67,5.2v16.49h5.84v-17.04c0-7.46-4.29-10.03-11.06-10.03Z"
  />
  <path
    d="m103.71,13.57c-2.33,0-4.77.65-6.03,1.31V0h-5.93v39.52c2.7.94,6.05,1.73,9.88,1.73,9.8,0,15.47-5.78,15.47-14.29s-5.74-13.39-13.39-13.39Zm-1.9,22.61c-1.5,0-3-.19-4.13-.55v-15.47c1.19-.66,2.99-1.26,5.32-1.26,4.48,0,8.13,3.04,8.13,8.19,0,6.1-3.89,9.09-9.32,9.09Z"
  />
</svg>
