<svg xmlns="http://www.w3.org/2000/svg" viewBox="0 0 192.25 37.86">
  <polygon
    points="33.41 0 22.31 7.13 33.47 14.19 22.32 21.31 33.41 28.48 44.57 21.36 33.41 14.24 44.57 7.12 33.41 0"
  />
  <polygon
    points="11.15 28.48 22.31 21.36 11.15 14.24 22.31 7.12 22.32 7.12 11.16 0 0 7.12 11.16 14.18 0 21.3 11.15 28.48"
  />
  <polygon points="11.1 30.74 22.26 37.86 33.42 30.74 22.26 23.62 11.1 30.74" />
  <polygon points="22.31 21.31 22.32 21.31 22.31 21.3 22.31 21.31" />
  <path
    d="m62.3,7.12h-9.02v23.62h9.2c5.87,0,10.32-3.45,10.32-11.1v-1.6c0-7.6-4.74-10.92-10.5-10.92Zm5.34,12.4c0,4.74-2.2,6.88-5.46,6.88h-3.86v-15.01h3.68c3.33,0,5.64,2.13,5.64,6.88v1.25Z"
  />
  <polygon
    points="185.07 20.78 191.89 11.64 186.19 11.64 182.27 17.4 178.41 11.64 172.65 11.64 179.36 20.84 179.38 20.84 172.08 30.75 177.95 30.75 182.22 24.4 186.61 30.75 192.25 30.75 185.07 20.78"
  />
  <path
    d="m80.15,16.08l-.65-4.45h-3.97v19.16h4.98v-8.78c0-4.04,1.01-5.46,5.1-5.46h2.08v-5.1h-1.25c-3.56,0-5.52,1.6-6.29,4.63Z"
  />
  <path
    d="m143.4,11.15c-3.03,0-5.16,1.37-6.23,3.86V5.22h-4.87v25.52h4.27l.42-3.5h0c1.01,2.48,3.09,3.96,6.29,4.02,4.87,0,8.07-3.62,8.07-9.97v-.59c0-6.35-3.38-9.49-7.95-9.55Zm2.85,10.16h0c0,3.81-1.72,5.65-4.63,5.65-2.73,0-4.57-2.08-4.57-5.64v-.42c0-3.32,1.96-5.52,4.63-5.52s4.57,1.96,4.57,5.46v.47Z"
  />
  <path
    d="m172.83,21.08c0-6.41-4.09-9.91-9.67-9.91s-9.67,3.5-9.67,9.91v.53c0,6.29,3.5,9.61,9.67,9.67,5.75,0,9.67-3.38,9.67-9.67v-.53Zm-5.04.47c0,3.44-1.78,5.34-4.63,5.4-2.85,0-4.63-1.96-4.63-5.4v-.47c0-3.74,1.78-5.7,4.63-5.7s4.63,2.14,4.63,5.7v.47Z"
  />
  <path
    d="m98.37,11.16c-5.58,0-9.67,3.5-9.67,9.91v.53c0,6.29,3.5,9.61,9.67,9.67,5.81,0,9.67-3.38,9.67-9.67v-.53c0-6.41-4.09-9.91-9.67-9.91Zm4.57,10.38c0,3.44-1.78,5.34-4.63,5.4-2.85,0-4.63-1.96-4.63-5.4v-.47c0-3.74,1.78-5.7,4.63-5.7s4.63,2.14,4.63,5.7v.47Z"
  />
  <path
    d="m121.56,11.16c-3.15,0-5.28,1.66-6.29,4.09l-.47-3.62h-4.16l-.06,25.75h4.87v-9.67c1.01,2.2,3.08,3.56,6.11,3.56,4.51,0,8.07-3.32,8.07-9.61v-.53c0-6.47-3.2-9.97-8.07-9.97Zm3.03,10.38c0,3.56-1.78,5.4-4.63,5.46-2.79,0-4.57-2.14-4.57-5.52v-.36c0-3.56,1.84-5.7,4.63-5.7,2.61,0,4.57,1.9,4.57,5.7v.42Z"
  />
</svg>
