<svg xmlns="http://www.w3.org/2000/svg" viewBox="0 0 74.25 24.2">
 <defs>
  <style>
   .cls-1 {
    fill: #fff;
   }
  </style>
 </defs>
 <g>
  <path
   class="cls-1"
   d="m15.64,13.23c-2.05,0-3.72,1.57-3.72,3.73s1.67,3.73,3.72,3.73,3.72-1.59,3.72-3.73-1.67-3.73-3.72-3.73Zm0,6c-1.12,0-2.09-.94-2.09-2.27s.97-2.27,2.09-2.27,2.09.92,2.09,2.27-.97,2.27-2.09,2.27Z"
  />
  <path
   class="cls-1"
   d="m15.64,20.83c-2.16,0-3.86-1.7-3.86-3.87s1.66-3.87,3.86-3.87,3.85,1.7,3.85,3.87-1.69,3.87-3.85,3.87Zm0-7.47c-2.04,0-3.59,1.55-3.59,3.6s1.54,3.6,3.59,3.6,3.59-1.58,3.59-3.6-1.58-3.6-3.59-3.6Zm0,6c-1.25,0-2.23-1.05-2.23-2.4s.98-2.4,2.23-2.4,2.23,1.05,2.23,2.4-.98,2.4-2.23,2.4Zm0-4.53c-1.1,0-1.96.94-1.96,2.13s.86,2.13,1.96,2.13,1.96-.92,1.96-2.13-.84-2.13-1.96-2.13Z"
  />
 </g>
 <g>
  <path
   class="cls-1"
   d="m5.98,14.38v1.58h3.77c-.11.89-.41,1.54-.86,2-.55.55-1.41,1.16-2.91,1.16-2.31,0-4.13-1.88-4.13-4.22s1.81-4.22,4.13-4.22c1.25,0,2.16.49,2.84,1.13l1.11-1.12c-.94-.9-2.19-1.6-3.95-1.6-3.18,0-5.85,2.61-5.85,5.81s2.67,5.8,5.85,5.8c1.71,0,3.01-.57,4.01-1.63,1.04-1.05,1.36-2.52,1.36-3.71,0-.37-.03-.7-.09-.99h-5.29.01Z"
  />
  <path
   class="cls-1"
   d="m5.98,20.84c-3.3,0-5.98-2.66-5.98-5.94s2.68-5.94,5.98-5.94c1.57,0,2.89.54,4.04,1.64l.1.1-1.3,1.31-.1-.09c-.77-.73-1.69-1.1-2.75-1.1-2.24,0-3.99,1.79-3.99,4.08s1.75,4.08,3.99,4.08c1.53,0,2.34-.64,2.81-1.12.41-.42.68-1.01.8-1.77h-3.75v-1.85h5.53l.02.11c.06.28.09.62.09,1.01,0,.89-.18,2.58-1.4,3.8-1.06,1.12-2.41,1.67-4.11,1.67h.02Zm0-11.59C2.83,9.24.27,11.78.27,14.91s2.56,5.67,5.71,5.67c1.62,0,2.9-.52,3.92-1.58,1.15-1.16,1.32-2.76,1.32-3.62,0-.33-.02-.61-.06-.85h-5.04v1.31h3.78l-.02.15c-.11.89-.41,1.59-.9,2.07-.51.51-1.38,1.2-3.01,1.2-2.39,0-4.26-1.91-4.26-4.35s1.87-4.35,4.26-4.35c1.08,0,2.03.36,2.83,1.08l.92-.93c-1.07-.99-2.3-1.47-3.76-1.47h.02Z"
  />
 </g>
 <polygon class="cls-1" points="5.98 14.52 5.67 14.52 6.12 14.03 6.12 14.51 5.98 14.52" />
 <g>
  <path
   class="cls-1"
   d="m23.76,13.23c-2.05,0-3.72,1.57-3.72,3.73s1.67,3.73,3.72,3.73,3.72-1.59,3.72-3.73-1.67-3.73-3.72-3.73Zm0,6c-1.12,0-2.09-.94-2.09-2.27s.97-2.27,2.09-2.27,2.09.92,2.09,2.27-.97,2.27-2.09,2.27Z"
  />
  <path
   class="cls-1"
   d="m23.76,20.83c-2.16,0-3.86-1.7-3.86-3.87s1.66-3.87,3.86-3.87,3.86,1.7,3.86,3.87-1.69,3.87-3.86,3.87Zm0-7.47c-2.04,0-3.59,1.55-3.59,3.6s1.54,3.6,3.59,3.6,3.59-1.58,3.59-3.6-1.58-3.6-3.59-3.6Zm0,6c-1.25,0-2.23-1.05-2.23-2.4s.98-2.4,2.23-2.4,2.23,1.05,2.23,2.4-.98,2.4-2.23,2.4Zm0-4.53c-1.1,0-1.96.94-1.96,2.13s.86,2.13,1.96,2.13,1.96-.92,1.96-2.13-.84-2.13-1.96-2.13Z"
  />
 </g>
 <g>
  <rect class="cls-1" x="36.4" y="9.5" width="1.63" height="10.98" />
  <path
   class="cls-1"
   d="m38.16,20.61h-1.9v-11.25h1.9v11.25Zm-1.63-.27h1.36v-10.71h-1.36v10.71Z"
  />
 </g>
 <g>
  <path
   class="cls-1"
   d="m63.22,13.21h0c-1.18,0-2.4.52-2.9,1.68l1.45.61c.31-.61.88-.8,1.48-.8.84,0,1.69.51,1.71,1.41v.11c-.29-.17-.93-.42-1.69-.42-1.56,0-3.14.86-3.14,2.47,0,1.47,1.28,2.42,2.71,2.42,1.09,0,1.7-.49,2.07-1.07h.06v.85h1.57v-4.21c0-1.95-1.45-3.04-3.31-3.04h0Zm-.2,6.01c-.53,0-1.28-.27-1.28-.94,0-.85.93-1.17,1.73-1.17.71,0,1.05.16,1.48.37-.12,1.01-.99,1.74-1.94,1.74h0Z"
  />
  <path
   class="cls-1"
   d="m62.83,20.82c-1.62,0-2.84-1.1-2.84-2.55,0-1.71,1.65-2.6,3.27-2.6.62,0,1.17.16,1.55.33-.09-.75-.85-1.16-1.57-1.16-.66,0-1.12.25-1.36.73l-.06.11-1.69-.71.05-.12c.56-1.3,1.93-1.76,3.03-1.76h0c2.06,0,3.44,1.27,3.44,3.17v4.34h-1.84v-.65c-.48.58-1.15.87-2,.87h.02Zm.43-4.89c-1.49,0-3,.8-3,2.33s1.33,2.28,2.57,2.28c.88,0,1.52-.33,1.96-1.01l.04-.06h.27v.85h1.3v-4.07c0-1.76-1.25-2.9-3.17-2.9h0c-.97,0-2.18.39-2.72,1.47l1.2.5c.3-.5.84-.77,1.54-.77.88,0,1.83.54,1.85,1.54v.35l-.2-.12c-.32-.19-.93-.4-1.62-.4h-.02Zm-.24,3.45c-.68,0-1.41-.38-1.41-1.07,0-.9.93-1.31,1.86-1.31.76,0,1.12.18,1.54.38l.09.04v.1c-.14,1.06-1.03,1.86-2.08,1.86Zm.45-2.11c-.59,0-1.59.22-1.59,1.04,0,.58.7.8,1.14.8.87,0,1.63-.66,1.79-1.53-.37-.18-.69-.31-1.34-.31Z"
  />
 </g>
 <g>
  <rect class="cls-1" x="57.59" y="9.5" width="1.63" height="10.98" />
  <path
   class="cls-1"
   d="m59.35,20.61h-1.9v-11.25h1.9v11.25Zm-1.63-.27h1.36v-10.71h-1.36v10.71Z"
  />
 </g>
 <g>
  <path
   class="cls-1"
   d="m33.73,14.06h-.06c-.37-.44-1.07-.84-1.96-.84-1.86,0-3.55,1.64-3.55,3.75s1.7,3.72,3.55,3.72c.88,0,1.59-.4,1.96-.85h.06v.54c0,1.43-.76,2.19-1.98,2.19-.99,0-1.62-.72-1.87-1.33l-1.42.59c.41.99,1.49,2.21,3.29,2.21,1.91,0,3.52-1.13,3.52-3.89v-6.7h-1.54v.61Zm-1.87,5.17c-1.12,0-2.07-.95-2.07-2.25s.94-2.28,2.07-2.28,1.98.96,1.98,2.28-.87,2.25-1.98,2.25Z"
  />
  <path
   class="cls-1"
   d="m31.75,24.19c-1.83,0-2.98-1.23-3.41-2.29l-.05-.12,1.67-.7.05.12c.25.6.85,1.25,1.75,1.25,1.17,0,1.85-.75,1.85-2.06v-.26c-.39.37-1.04.71-1.88.71-2,0-3.69-1.77-3.69-3.86s1.69-3.88,3.69-3.88c.83,0,1.49.33,1.88.7v-.47h1.81v6.84c0,2.52-1.37,4.03-3.66,4.03h-.01Zm-3.11-2.28c.44.95,1.49,2,3.11,2,1.02,0,3.39-.37,3.39-3.76v-6.57h-1.27v.61h-.26l-.04-.05c-.32-.38-.97-.79-1.85-.79-1.85,0-3.42,1.66-3.42,3.61s1.56,3.59,3.42,3.59c.89,0,1.54-.41,1.85-.8l.04-.05h.26v.67c0,1.46-.79,2.33-2.12,2.33-.97,0-1.62-.64-1.94-1.29l-1.17.49h0Zm3.22-2.54c-1.23,0-2.2-1.05-2.2-2.39s.97-2.41,2.2-2.41,2.12,1.04,2.12,2.41-.91,2.39-2.12,2.39Zm0-4.53c-1.08,0-1.93.94-1.93,2.14s.85,2.12,1.93,2.12,1.85-.91,1.85-2.12-.79-2.14-1.85-2.14Z"
  />
 </g>
 <g>
  <polygon
   class="cls-1"
   points="72.25 13.46 70.38 18.22 70.32 18.22 68.39 13.46 66.64 13.46 69.54 20.11 67.88 23.81 69.58 23.81 74.05 13.46 72.25 13.46"
  />
  <path
   class="cls-1"
   d="m69.67,23.94h-1.99l1.71-3.84-2.96-6.79h2.05l1.87,4.61,1.8-4.61h2.1l-.08.19-4.51,10.43h0Zm-1.57-.26h1.4l4.36-10.08h-1.51l-1.86,4.76h-.24l-1.94-4.76h-1.46l2.84,6.52-.02.05-1.57,3.51Z"
  />
 </g>
 <g>
  <path
   class="cls-1"
   d="m45.49,15.61h0c-.31-.84-1.25-2.38-3.17-2.38s-3.5,1.51-3.5,3.73c0,2.09,1.58,3.73,3.68,3.73,1.7,0,2.68-1.05,3.09-1.65l-1.26-.85c-.42.63-.99,1.03-1.82,1.03s-1.42-.38-1.8-1.13l4.96-2.07-.17-.42h-.01Zm-5.06,1.25c-.04-1.44,1.11-2.18,1.94-2.18.65,0,1.2.32,1.38.79l-3.32,1.39Z"
  />
  <path
   class="cls-1"
   d="m42.49,20.83c-2.18,0-3.82-1.66-3.82-3.87s1.56-3.87,3.63-3.87,3.06,1.86,3.27,2.39l.03.07.22.55-4.94,2.06c.36.63.89.93,1.61.93s1.27-.32,1.71-.97l.08-.11,1.49,1-.08.11c-.35.51-1.36,1.71-3.2,1.71Zm-.18-7.47c-1.92,0-3.36,1.55-3.36,3.6s1.53,3.6,3.55,3.6c1.59,0,2.52-.96,2.9-1.48l-1.04-.7c-.48.65-1.1.98-1.86.98-.87,0-1.51-.41-1.92-1.21l-.07-.13,4.97-2.07-.13-.3c-.14-.38-.95-2.29-3.04-2.29Zm-2.01,3.69v-.2c-.03-.83.32-1.37.62-1.67.39-.4.95-.65,1.45-.65.7,0,1.3.35,1.51.88l.05.12-3.62,1.52h0Zm2.07-2.25c-.43,0-.91.22-1.25.57-.24.24-.51.65-.54,1.27l3-1.25c-.21-.36-.67-.59-1.2-.59h0Z"
  />
 </g>
 <g>
  <path
   class="cls-1"
   d="m53.12,9.5h-3.9v10.98h1.63v-4.16h2.27c1.8,0,3.58-1.32,3.58-3.41s-1.77-3.41-3.58-3.41Zm.04,5.3h-2.31v-3.76h2.31c1.22,0,1.91,1.01,1.91,1.88s-.69,1.88-1.91,1.88Z"
  />
  <path
   class="cls-1"
   d="m50.98,20.61h-1.9v-11.25h4.03c1.83,0,3.71,1.33,3.71,3.55s-1.89,3.55-3.71,3.55h-2.13v4.16h0Zm-1.63-.28h1.36v-4.16h2.4c1.69,0,3.44-1.23,3.44-3.28s-1.75-3.28-3.44-3.28h-3.76v10.71h0Zm3.8-5.4h-2.45v-4.04h2.45c1.26,0,2.04,1.05,2.04,2.02s-.78,2.02-2.04,2.02Zm-2.18-.28h2.31c1.02-.07,1.64-.94,1.64-1.74s-.68-1.75-1.77-1.75h-2.18v3.49Z"
  />
 </g>
 <g>
  <path
   class="cls-1"
   d="m26.63,5.68c.77,0,1.4-.26,1.92-.8.52-.53.78-1.18.78-1.96s-.26-1.43-.78-1.96c-.52-.54-1.16-.8-1.92-.8s-1.4.26-1.92.8c-.52.53-.78,1.18-.78,1.96s.26,1.44.78,1.96c.52.53,1.16.8,1.92.8Zm-1.43-4.27c.39-.4.86-.6,1.44-.6s1.05.2,1.43.6c.39.39.58.9.58,1.51s-.19,1.12-.58,1.51c-.38.4-.86.6-1.43.6s-1.05-.2-1.44-.6c-.38-.4-.57-.9-.57-1.51s.19-1.11.57-1.51Z"
  />
  <path
   class="cls-1"
   d="m26.63,5.81c-.81,0-1.47-.27-2.02-.84-.54-.54-.82-1.23-.82-2.06s.27-1.51.82-2.06c.55-.55,1.21-.83,2.02-.83s1.47.28,2.02.84c.55.55.82,1.22.82,2.05s-.27,1.51-.82,2.06c-.55.56-1.21.84-2.02.84Zm0-5.52c-.73,0-1.33.25-1.83.76-.5.5-.74,1.11-.74,1.87s.25,1.38.74,1.87c.5.51,1.1.76,1.83.76s1.33-.25,1.83-.76c.5-.5.74-1.11.74-1.87s-.24-1.36-.74-1.86c-.5-.51-1.1-.76-1.83-.76h0Zm0,4.86c-.61,0-1.11-.21-1.54-.64-.4-.43-.61-.97-.61-1.61s.2-1.18.61-1.61h0c.42-.43.93-.64,1.54-.64s1.11.21,1.53.64c.41.41.62.96.62,1.61s-.21,1.19-.62,1.61c-.41.42-.92.64-1.53.64Zm-1.34-3.67c-.36.38-.53.84-.53,1.42s.17,1.04.53,1.42c.37.37.81.56,1.34.56s.98-.19,1.33-.56c.37-.37.54-.83.54-1.42s-.18-1.06-.54-1.42c-.36-.38-.8-.56-1.34-.56s-.97.18-1.34.56h.01Z"
  />
 </g>
 <g>
  <polygon
   class="cls-1"
   points="30.93 2.27 30.91 1.24 30.93 1.24 33.6 5.56 34.31 5.56 34.31 .26 33.63 .26 33.63 3.36 33.66 4.38 33.63 4.38 31.08 .27 30.26 .27 30.26 5.55 30.93 5.55 30.93 2.27"
  />
  <path
   class="cls-1"
   d="m34.44,5.69h-.92l-2.47-4v3.99s-.93,0-.93,0V.14h1.03l2.35,3.79V.13s.93,0,.93,0v5.56h0Zm-.77-.27h.5V.4h-.4v2.96l.03,1.16h-.21l-.07-.06L31.01.41h-.61v5.01h.4v-3.15l-.03-1.16h.21l.07.06,2.63,4.25h0Z"
  />
 </g>
 <g>
  <rect class="cls-1" x="16.62" y=".27" width=".67" height="5.28" />
  <path
   class="cls-1"
   d="m17.43,5.69h-.94V.14h.94s0,5.55,0,5.55Zm-.67-.27h.4V.41h-.4s0,5.01,0,5.01Z"
  />
 </g>
 <g>
  <polygon class="cls-1" points="5.68 2.72 5.68 2.73 5.69 2.73 5.68 2.72" />
  <polygon class="cls-1" points="6.01 2.86 5.58 2.86 5.55 2.75 5.46 2.32 6.01 2.86" />
 </g>
 <g>
  <polygon
   class="cls-1"
   points="9.74 4.9 7.35 4.9 7.35 3.22 9.51 3.22 9.51 2.59 7.35 2.59 7.35 .92 9.74 .92 9.74 .26 6.67 .26 6.67 .27 6.67 5.55 9.74 5.55 9.74 4.9"
  />
  <path
   class="cls-1"
   d="m9.88,5.69h-3.34V.14h3.33v.92h-2.39v1.4h2.16v.9h-2.16v1.41h2.39v.92h.01Zm-3.07-.27h2.8v-.38h-2.39v-1.95h2.16v-.36h-2.16V.78h2.39v-.38h-2.8v5.02Z"
  />
 </g>
 <g>
  <polygon
   class="cls-1"
   points="20.28 5.55 20.28 .92 21.75 .92 21.75 .26 18.14 .26 18.14 .92 19.61 .92 19.61 5.55 20.28 5.55"
  />
  <path
   class="cls-1"
   d="m20.42,5.69h-.94V1.05h-1.46V.13h3.87v.92h-1.46v4.64h-.01Zm-.67-.27h.4V.78h1.46v-.38h-3.33v.38h1.46v4.64h0Z"
  />
 </g>
 <g>
  <polygon
   class="cls-1"
   points="12.57 5.55 12.57 .92 14.03 .92 14.03 .26 10.43 .26 10.43 .92 11.89 .92 11.89 5.55 12.57 5.55"
  />
  <path
   class="cls-1"
   d="m12.7,5.69h-.94V1.05h-1.46V.13h3.87v.92h-1.46v4.64h-.01Zm-.67-.27h.4V.78h1.46v-.38h-3.33v.38h1.46v4.64h.01Z"
  />
 </g>
 <g>
  <path
   class="cls-1"
   d="m3.14,5.66c.8,0,1.44-.26,1.93-.78.43-.43.65-1.03.65-1.77,0-.12-.01-.25-.04-.39h-2.54v.63h1.9c-.05.52-.26.92-.6,1.22s-.78.44-1.31.44c-.57,0-1.05-.2-1.45-.6-.39-.41-.59-.91-.59-1.51s.2-1.11.59-1.51c.4-.4.88-.6,1.45-.6.29,0,.58.05.83.16.26.11.46.26.62.47l.48-.49c-.22-.25-.5-.44-.84-.59-.35-.14-.71-.2-1.09-.2-.76,0-1.41.26-1.94.8-.53.53-.79,1.19-.79,1.96s.26,1.44.79,1.96c.53.53,1.17.8,1.94.8h0Z"
  />
  <path
   class="cls-1"
   d="m3.14,5.8c-.8,0-1.48-.28-2.03-.84-.55-.55-.83-1.24-.83-2.06s.28-1.5.83-2.06c.55-.56,1.23-.84,2.03-.84.41,0,.78.07,1.14.21.37.15.66.36.89.62l.08.09-.68.69-.09-.12c-.14-.18-.32-.32-.57-.43-.23-.1-.49-.15-.78-.15-.52,0-.98.19-1.36.56-.37.38-.55.85-.55,1.42s.18,1.03.55,1.42c.37.37.81.56,1.35.56.49,0,.9-.14,1.22-.41.29-.25.47-.57.54-.98h-1.88v-.9h2.79l.02.11c.03.15.04.29.04.41,0,.77-.23,1.4-.69,1.86-.51.55-1.19.82-2.02.82v.02Zm0-5.52c-.72,0-1.34.25-1.84.76-.51.51-.75,1.12-.75,1.87s.25,1.37.75,1.87c.51.51,1.11.76,1.84.76s1.37-.24,1.83-.74c.41-.41.62-.98.62-1.67,0-.08,0-.16-.02-.25h-2.29v.36h1.92l-.02.15c-.05.55-.27.99-.65,1.31-.37.31-.84.47-1.4.47-.61,0-1.13-.21-1.55-.64-.42-.44-.63-.98-.63-1.61s.21-1.18.63-1.61c.43-.43.95-.64,1.55-.64.32,0,.62.06.88.18.23.1.42.23.57.39l.29-.29c-.19-.19-.43-.34-.71-.46-.33-.13-.67-.19-1.04-.19l.02-.02Z"
  />
 </g>
</svg>
