<svg xmlns="http://www.w3.org/2000/svg" viewBox="0 0 28.99 31.99">
 <defs>
  <style>
   .cls-1 {
    fill: #fbbc04;
   }

   .cls-2 {
    fill: #4285f4;
   }

   .cls-3 {
    fill: #34a853;
   }

   .cls-4 {
    fill: #ea4335;
   }
  </style>
 </defs>
 <path
  class="cls-4"
  d="m13.54,15.28L.12,29.34c.55,1.93,2.56,3.06,4.49,2.51.29-.08.57-.2.84-.35l15.1-8.6-7.01-7.62Z"
 />
 <path
  class="cls-1"
  d="m27.11,12.89l-6.53-3.74-7.35,6.45,7.38,7.28,6.48-3.7c1.74-.91,2.41-3.05,1.5-4.79-.34-.64-.86-1.16-1.5-1.5h.02Z"
 />
 <path
  class="cls-2"
  d="m.12,2.66C.04,2.96,0,3.27,0,3.58v24.84c0,.31.04.62.12.92l13.88-13.7L.12,2.66Z"
 />
 <path
  class="cls-3"
  d="m13.64,16l6.94-6.85L5.5.51C4.93.18,4.29,0,3.63,0,2,0,.56,1.08.12,2.65l13.52,13.35Z"
 />
</svg>
