<svg xmlns="http://www.w3.org/2000/svg" viewBox="0 0 116.95 32">
  <defs>
    <style>
      .cls-1 {
        fill: #fff;
      }

      .cls-2 {
        fill: #5ce1e6;
      }
    </style>
  </defs>
  <path
    class="cls-1"
    d="m16,0c-3.16,0-6.26.94-8.89,2.7-2.63,1.76-4.68,4.26-5.89,7.18C0,12.8-.31,16.02.31,19.12c.62,3.1,2.14,5.95,4.38,8.19,2.24,2.24,5.09,3.76,8.19,4.38,3.1.62,6.32.3,9.24-.91,2.92-1.21,5.42-3.26,7.18-5.89,1.76-2.63,2.7-5.72,2.7-8.89h-8c0,1.58-.47,3.13-1.35,4.44-.88,1.32-2.13,2.34-3.59,2.95-1.46.61-3.07.76-4.62.46-1.55-.31-2.98-1.07-4.1-2.19-1.12-1.12-1.88-2.54-2.19-4.1-.31-1.55-.15-3.16.46-4.62.61-1.46,1.63-2.71,2.95-3.59,1.32-.88,2.86-1.35,4.44-1.35V0Z"
  />
  <path
    class="cls-2"
    d="m16,0c-2.1,0-4.18.41-6.12,1.22-1.94.8-3.71,1.98-5.19,3.47-1.49,1.49-2.66,3.25-3.47,5.19C.41,11.82,0,13.9,0,16h8c0-1.05.21-2.09.61-3.06.4-.97.99-1.85,1.73-2.6.74-.74,1.62-1.33,2.6-1.73.97-.4,2.01-.61,3.06-.61V0Z"
  />
  <circle class="cls-2" cx="16" cy="16" r="5" />
  <path
    class="cls-1"
    d="m21,16c0-.66-.13-1.31-.38-1.91-.25-.61-.62-1.16-1.08-1.62-.46-.46-1.02-.83-1.62-1.08s-1.26-.38-1.91-.38-1.31.13-1.91.38c-.61.25-1.16.62-1.62,1.08-.46.46-.83,1.02-1.08,1.62-.25.61-.38,1.26-.38,1.91h10Z"
  />
  <path
    class="cls-1"
    d="m46.66,9.94v12.56h-2.52v-5.35h-5.38v5.35h-2.52v-12.56h2.52v5.17h5.38v-5.17h2.52Zm6.91,12.73c-.96,0-1.82-.21-2.59-.63-.77-.43-1.37-1.04-1.82-1.82-.43-.78-.65-1.68-.65-2.7s.22-1.92.67-2.7c.46-.78,1.07-1.38,1.85-1.8.78-.43,1.65-.65,2.61-.65s1.83.22,2.61.65c.78.42,1.39,1.02,1.84,1.8.46.78.68,1.68.68,2.7s-.23,1.92-.7,2.7c-.46.78-1.08,1.39-1.87,1.82-.78.42-1.66.63-2.63.63Zm0-2.2c.46,0,.88-.11,1.28-.32.41-.23.73-.56.97-1.01.24-.44.36-.98.36-1.62,0-.95-.25-1.67-.76-2.18-.49-.52-1.1-.77-1.82-.77s-1.33.26-1.82.77c-.48.5-.72,1.23-.72,2.18s.23,1.68.7,2.2c.48.5,1.08.76,1.8.76Zm11.48,2.2c-.96,0-1.82-.21-2.59-.63-.77-.43-1.37-1.04-1.82-1.82-.43-.78-.65-1.68-.65-2.7s.22-1.92.67-2.7c.46-.78,1.07-1.38,1.85-1.8.78-.43,1.65-.65,2.61-.65s1.83.22,2.61.65c.78.42,1.39,1.02,1.84,1.8.46.78.68,1.68.68,2.7s-.23,1.92-.7,2.7c-.46.78-1.08,1.39-1.87,1.82-.78.42-1.66.63-2.63.63Zm0-2.2c.46,0,.88-.11,1.28-.32.41-.23.73-.56.97-1.01.24-.44.36-.98.36-1.62,0-.95-.25-1.67-.76-2.18-.49-.52-1.1-.77-1.82-.77s-1.33.26-1.82.77c-.48.5-.72,1.23-.72,2.18s.23,1.68.7,2.2c.48.5,1.08.76,1.8.76Z"
  />
  <path
    class="cls-2"
    d="m79.23,16.06c.71.13,1.29.49,1.75,1.06.46.58.68,1.24.68,1.98,0,.67-.17,1.27-.5,1.78-.32.5-.8.9-1.42,1.19s-1.36.43-2.21.43h-5.42v-12.56h5.18c.85,0,1.58.14,2.2.41.62.28,1.09.66,1.4,1.15.32.49.49,1.05.49,1.67,0,.73-.2,1.34-.59,1.84-.38.49-.9.84-1.55,1.04Zm-4.61-.94h2.3c.6,0,1.06-.13,1.39-.4.32-.28.49-.67.49-1.17s-.16-.89-.49-1.17c-.32-.28-.79-.41-1.39-.41h-2.3v3.15Zm2.54,5.33c.61,0,1.09-.14,1.42-.43.35-.29.52-.7.52-1.22s-.18-.96-.54-1.26c-.36-.31-.85-.47-1.46-.47h-2.48v3.38h2.54Zm5.86-2.97c0-1.01.2-1.9.59-2.68.41-.78.95-1.38,1.64-1.8.7-.42,1.47-.63,2.32-.63.74,0,1.39.15,1.94.45.56.3,1.01.68,1.35,1.13v-1.42h2.54v9.97h-2.54v-1.46c-.32.47-.77.86-1.35,1.17-.56.3-1.22.45-1.96.45-.84,0-1.61-.22-2.3-.65-.68-.43-1.23-1.04-1.64-1.82-.4-.79-.59-1.7-.59-2.72Zm7.85.04c0-.61-.12-1.13-.36-1.57-.24-.44-.56-.78-.97-1.01-.41-.24-.85-.36-1.31-.36s-.9.11-1.3.34c-.4.23-.72.56-.97,1.01-.24.43-.36.95-.36,1.55s.12,1.13.36,1.58c.25.44.58.79.97,1.03.41.24.84.36,1.3.36s.91-.11,1.31-.34c.41-.24.73-.58.97-1.01.24-.44.36-.97.36-1.58Zm10.53-5.13c1.19,0,2.15.38,2.88,1.13.73.74,1.1,1.79,1.1,3.13v5.85h-2.52v-5.51c0-.79-.2-1.4-.59-1.82-.4-.43-.94-.65-1.62-.65s-1.25.22-1.66.65c-.4.42-.59,1.03-.59,1.82v5.51h-2.52v-9.97h2.52v1.24c.34-.43.76-.77,1.28-1.01.53-.25,1.1-.38,1.73-.38Zm12.28,10.12l-3.38-4.25v4.25h-2.52v-13.32h2.52v7.58l3.35-4.23h3.28l-4.39,5,4.43,4.97h-3.28Z"
  />
</svg>
