<svg
  xmlns="http://www.w3.org/2000/svg"
  xmlns:xlink="http://www.w3.org/1999/xlink"
  viewBox="0 0 191 158"
>
  <defs>
    <style>
      .cls-1 {
        fill: #fff;
      }

      .cls-2 {
        fill: rgba(255, 255, 255, 0.7);
      }

      .cls-3 {
        fill: #00030c;
      }

      .cls-4 {
        fill: #00f6ff;
        fill-rule: evenodd;
      }

      .cls-5 {
        fill: url(#linear-gradient);
      }
    </style>
    <linearGradient
      id="linear-gradient"
      x1="-674.82"
      y1="650.02"
      x2="217.42"
      y2="-11.11"
      gradientTransform="translate(0 158.23) scale(1 -1)"
      gradientUnits="userSpaceOnUse"
    >
      <stop offset=".16" stop-color="#fff" />
      <stop offset=".58" stop-color="#6d6d6d" />
      <stop offset=".93" stop-color="#11101d" />
    </linearGradient>
  </defs>
  <rect class="cls-5" width="191" height="158" rx="20" ry="20" />
  <rect class="cls-3" x="79" y="20" width="34" height="34" rx="10" ry="10" />
  <path
    class="cls-1"
    d="m29.03,85.91c0,.58-.14,1.11-.43,1.6-.29.48-.71.87-1.28,1.17-.57.29-1.25.43-2.06.43s-1.51-.13-2.14-.4c-.63-.28-1.14-.67-1.52-1.18-.37-.51-.59-1.11-.64-1.79h2.4c.05.46.23.84.54,1.15.32.3.74.45,1.26.45.47,0,.83-.12,1.07-.37.26-.26.38-.58.38-.98,0-.35-.1-.64-.3-.86-.2-.23-.46-.42-.77-.56-.31-.14-.74-.3-1.28-.48-.7-.23-1.28-.46-1.73-.69-.45-.23-.83-.57-1.15-1.01-.31-.44-.46-1.01-.46-1.71,0-.97.35-1.73,1.04-2.29.7-.57,1.63-.85,2.78-.85s2.14.29,2.85.86c.71.58,1.12,1.34,1.22,2.3h-2.43c-.06-.41-.23-.74-.51-.99-.28-.27-.66-.4-1.14-.4-.42,0-.75.11-1.01.34-.26.21-.38.53-.38.94,0,.33.1.61.29.83.2.21.45.39.75.53.31.14.73.29,1.25.46.73.26,1.31.5,1.76.72.46.22.85.56,1.17,1.01s.48,1.03.48,1.76Zm5.81-5.89c1.14,0,2.09.31,2.85.93.77.62,1.25,1.46,1.44,2.53h-2.38c-.1-.47-.31-.84-.66-1.1-.34-.28-.77-.42-1.3-.42-.6,0-1.1.22-1.5.67-.39.44-.59,1.08-.59,1.94s.2,1.5.59,1.95c.41.44.91.66,1.5.66.52,0,.95-.13,1.3-.4.34-.28.56-.65.66-1.12h2.38c-.19,1.07-.67,1.91-1.44,2.53-.76.62-1.71.93-2.85.93-.86,0-1.63-.18-2.3-.54-.67-.37-1.19-.9-1.57-1.58s-.56-1.49-.56-2.42.19-1.73.56-2.42c.37-.69.9-1.22,1.57-1.58s1.44-.54,2.3-.54Zm9.52,0c.75,0,1.39.18,1.92.53.53.35.91.83,1.14,1.42v-1.84h2.24v8.86h-2.24v-1.86c-.22.6-.6,1.08-1.14,1.44-.53.35-1.17.53-1.92.53s-1.42-.18-2.02-.54c-.6-.36-1.07-.89-1.41-1.57-.33-.69-.5-1.5-.5-2.43s.17-1.73.5-2.42c.34-.69.81-1.22,1.41-1.58.6-.36,1.27-.54,2.02-.54Zm.7,1.97c-.7,0-1.27.23-1.7.69s-.64,1.09-.64,1.89.21,1.43.64,1.89c.43.45.99.67,1.7.67s1.24-.23,1.68-.69c.45-.47.67-1.09.67-1.87s-.22-1.41-.67-1.87c-.44-.47-1-.7-1.68-.7Zm12.08-1.98c1.02,0,1.84.34,2.45,1.01.61.67.91,1.62.91,2.83v5.15h-2.24v-4.9c0-.7-.18-1.25-.54-1.63-.36-.39-.86-.59-1.49-.59s-1.15.21-1.54.62c-.38.42-.58,1.01-.58,1.79v4.7h-2.26v-8.86h2.26v1.78c.23-.6.62-1.06,1.15-1.39.54-.34,1.17-.51,1.87-.51Zm14.25-2.42c1.41,0,2.58.36,3.5,1.09.93.73,1.54,1.71,1.84,2.96h-2.37c-.25-.61-.63-1.09-1.15-1.44-.51-.35-1.13-.53-1.86-.53-.6,0-1.14.15-1.62.45-.48.3-.85.73-1.12,1.28-.27.55-.4,1.21-.4,1.95s.13,1.38.4,1.94c.27.55.64.98,1.12,1.28.48.3,1.02.45,1.62.45.73,0,1.34-.18,1.86-.53.52-.35.91-.83,1.15-1.44h2.37c-.3,1.25-.91,2.23-1.84,2.96-.93.73-2.1,1.09-3.5,1.09-1.08,0-2.03-.24-2.86-.72-.82-.49-1.46-1.17-1.92-2.05-.45-.87-.67-1.87-.67-2.98s.22-2.12.67-2.99c.46-.87,1.1-1.55,1.92-2.03.82-.49,1.78-.74,2.86-.74Zm9.45,4.24c.33-.57.77-1.01,1.31-1.33.54-.33,1.15-.5,1.82-.5v2.42h-.66c-1.65,0-2.48.77-2.48,2.3v4.27h-2.26v-8.86h2.26v1.7Zm12.88,2.4c0,.22-.03.48-.08.77h-6.5c.03.79.25,1.37.64,1.74.39.37.89.56,1.47.56.52,0,.95-.13,1.3-.38.35-.26.58-.6.67-1.04h2.38c-.12.62-.37,1.17-.75,1.66-.38.49-.88.87-1.49,1.15-.6.28-1.26.42-2,.42-.86,0-1.63-.18-2.3-.54-.67-.37-1.19-.9-1.57-1.58-.37-.68-.56-1.49-.56-2.42s.19-1.73.56-2.42c.37-.69.9-1.22,1.57-1.58.67-.36,1.44-.54,2.3-.54s1.64.18,2.29.54c.66.36,1.17.86,1.52,1.5.36.63.54,1.35.54,2.16Zm-2.27-.22c.03-.73-.16-1.27-.58-1.65-.41-.37-.91-.56-1.5-.56s-1.12.19-1.54.56-.65.92-.69,1.65h4.3Zm7.51-3.98c.75,0,1.38.18,1.9.53.53.35.92.83,1.15,1.42v-4.82h2.24v11.84h-2.24v-1.86c-.24.6-.62,1.08-1.15,1.44-.52.35-1.16.53-1.9.53s-1.42-.18-2.02-.54c-.6-.36-1.07-.89-1.41-1.57-.33-.69-.5-1.5-.5-2.43s.17-1.73.5-2.42c.34-.69.81-1.22,1.41-1.58.6-.36,1.27-.54,2.02-.54Zm.7,1.97c-.7,0-1.27.23-1.7.69-.43.46-.64,1.09-.64,1.89s.21,1.43.64,1.89c.43.45.99.67,1.7.67s1.24-.23,1.68-.69c.45-.47.67-1.09.67-1.87s-.22-1.41-.67-1.87c-.44-.47-1-.7-1.68-.7Zm6.54-4.4c0-.36.13-.66.38-.88.26-.23.59-.35,1.01-.35s.75.12,1.01.35c.26.22.38.52.38.88s-.13.65-.38.88c-.26.22-.59.34-1.01.34s-.75-.11-1.01-.34c-.26-.23-.38-.53-.38-.88Zm2.51,2.54v8.86h-2.26v-8.86h2.26Zm6.94,6.93v1.94h-1.18c-.99,0-1.75-.24-2.29-.72-.52-.48-.78-1.28-.78-2.4v-3.84h-1.23v-1.9h1.23v-2.19h2.26v2.19h1.98v1.9h-1.98v3.87c0,.43.09.73.26.9.17.17.46.26.86.26h.88Zm10.53-9.47c1.41,0,2.58.36,3.5,1.09.93.73,1.54,1.71,1.84,2.96h-2.37c-.25-.61-.63-1.09-1.15-1.44-.51-.35-1.13-.53-1.86-.53-.6,0-1.14.15-1.62.45-.48.3-.85.73-1.12,1.28-.27.55-.4,1.21-.4,1.95s.13,1.38.4,1.94c.27.55.64.98,1.12,1.28.48.3,1.02.45,1.62.45.72,0,1.34-.18,1.86-.53.52-.35.91-.83,1.15-1.44h2.37c-.3,1.25-.91,2.23-1.84,2.96-.93.73-2.1,1.09-3.5,1.09-1.08,0-2.03-.24-2.86-.72-.82-.49-1.46-1.17-1.92-2.05-.45-.87-.67-1.87-.67-2.98s.22-2.12.67-2.99c.46-.87,1.1-1.55,1.92-2.03.82-.49,1.78-.74,2.86-.74Zm10.67,2.43c.75,0,1.39.18,1.92.53.53.35.91.83,1.14,1.42v-1.84h2.24v8.86h-2.24v-1.86c-.22.6-.6,1.08-1.14,1.44-.53.35-1.17.53-1.92.53s-1.42-.18-2.02-.54c-.6-.36-1.07-.89-1.41-1.57-.33-.69-.5-1.5-.5-2.43s.16-1.73.5-2.42c.34-.69.81-1.22,1.41-1.58.6-.36,1.27-.54,2.02-.54Zm.7,1.97c-.7,0-1.27.23-1.7.69-.43.46-.64,1.09-.64,1.89s.21,1.43.64,1.89c.43.45.99.67,1.7.67s1.24-.23,1.68-.69c.45-.47.67-1.09.67-1.87s-.22-1.41-.67-1.87c-.44-.47-1-.7-1.68-.7Zm9.05-.16c.33-.57.77-1.01,1.31-1.33.54-.33,1.15-.5,1.82-.5v2.42h-.66c-1.65,0-2.48.77-2.48,2.3v4.27h-2.26v-8.86h2.26v1.7Zm8.02-1.81c.75,0,1.38.18,1.9.53.53.35.92.83,1.15,1.42v-4.82h2.24v11.84h-2.24v-1.86c-.23.6-.62,1.08-1.15,1.44-.52.35-1.16.53-1.9.53s-1.42-.18-2.02-.54c-.6-.36-1.07-.89-1.41-1.57-.33-.69-.5-1.5-.5-2.43s.17-1.73.5-2.42c.34-.69.81-1.22,1.41-1.58.6-.36,1.27-.54,2.02-.54Zm.7,1.97c-.7,0-1.27.23-1.7.69-.43.46-.64,1.09-.64,1.89s.21,1.43.64,1.89c.43.45.99.67,1.7.67s1.24-.23,1.68-.69c.45-.47.67-1.09.67-1.87s-.22-1.41-.67-1.87c-.44-.47-1-.7-1.68-.7Zm9.85-1.97c1.08,0,1.94.27,2.59.82.65.54,1.06,1.27,1.22,2.18h-2.11c-.09-.43-.28-.77-.58-1.02-.3-.26-.69-.38-1.17-.38-.38,0-.68.09-.9.27-.21.18-.32.43-.32.74,0,.25.09.44.26.59.17.15.38.27.64.35.26.09.62.19,1.1.3.67.15,1.22.31,1.63.48.43.16.79.42,1.09.78.31.35.46.83.46,1.44,0,.76-.3,1.37-.9,1.84-.59.47-1.38.7-2.38.7-1.15,0-2.07-.26-2.77-.77-.69-.52-1.11-1.26-1.26-2.22h2.16c.05.44.25.78.58,1.04.33.25.76.37,1.3.37.38,0,.68-.09.88-.27.2-.19.3-.44.3-.74,0-.26-.09-.46-.27-.62-.17-.16-.39-.28-.66-.37-.26-.09-.62-.19-1.1-.3-.66-.15-1.2-.3-1.62-.45-.4-.16-.76-.41-1.06-.75-.29-.34-.43-.81-.43-1.41,0-.77.29-1.39.88-1.87.59-.48,1.4-.72,2.43-.72Z"
  />
  <path
    class="cls-2"
    d="m26.26,114.08c-.55,0-1.05-.1-1.49-.29-.43-.2-.77-.47-1.02-.82-.25-.35-.38-.76-.38-1.21h1.16c.04.39.2.72.48,1,.29.26.7.4,1.25.4s.93-.13,1.22-.38c.3-.26.46-.6.46-1.01,0-.32-.09-.58-.26-.78-.18-.2-.4-.35-.66-.46-.26-.1-.62-.22-1.07-.34-.55-.14-1-.29-1.33-.43-.33-.14-.61-.37-.85-.67-.23-.31-.35-.73-.35-1.25,0-.46.12-.86.35-1.21.23-.35.56-.62.97-.82.42-.19.91-.29,1.45-.29.78,0,1.42.2,1.92.59.5.39.79.91.85,1.56h-1.2c-.04-.32-.21-.6-.5-.84-.3-.25-.69-.37-1.18-.37-.46,0-.83.12-1.12.36-.29.23-.43.56-.43.98,0,.3.08.55.25.74.18.19.39.34.64.44.26.1.61.21,1.07.34.55.15,1,.3,1.33.46.34.14.62.37.86.68.24.3.36.72.36,1.25,0,.41-.11.79-.32,1.15s-.54.65-.96.88c-.42.22-.92.34-1.5.34Zm4.1-3.38c0-.68.14-1.27.41-1.78.27-.51.65-.91,1.13-1.19.49-.28,1.04-.42,1.67-.42.81,0,1.47.2,1.99.59.53.39.88.94,1.04,1.63h-1.18c-.11-.4-.33-.72-.66-.95-.32-.23-.72-.35-1.2-.35-.62,0-1.13.22-1.51.65-.38.42-.58,1.03-.58,1.81s.19,1.4.58,1.84c.38.43.89.65,1.51.65.48,0,.88-.11,1.2-.34s.54-.54.66-.96h1.18c-.18.67-.53,1.21-1.06,1.62-.53.4-1.19.6-1.98.6-.62,0-1.18-.14-1.67-.42-.48-.28-.86-.68-1.13-1.19-.27-.51-.41-1.11-.41-1.8Zm7.41-.01c0-.67.14-1.26.41-1.76.27-.51.64-.91,1.12-1.19.48-.28,1.01-.42,1.6-.42s1.08.12,1.5.37.74.56.95.94v-1.2h1.1v6.58h-1.1v-1.22c-.22.38-.54.7-.97.96-.42.25-.92.37-1.49.37s-1.11-.14-1.58-.43c-.47-.29-.84-.69-1.12-1.21s-.41-1.11-.41-1.78Zm5.57.01c0-.5-.1-.93-.3-1.3-.2-.37-.47-.65-.82-.84-.34-.2-.71-.3-1.12-.3s-.78.1-1.12.29c-.34.19-.6.47-.8.84-.2.37-.3.8-.3,1.3s.1.94.3,1.32c.2.37.47.65.8.85.34.19.71.29,1.12.29s.78-.1,1.12-.29c.34-.2.62-.48.82-.85.2-.38.3-.81.3-1.31Zm6.27-3.4c.8,0,1.45.24,1.94.73.5.48.74,1.18.74,2.09v3.88h-1.08v-3.72c0-.66-.16-1.16-.49-1.5-.33-.35-.78-.53-1.34-.53s-1.04.18-1.38.54c-.34.36-.5.88-.5,1.57v3.64h-1.09v-6.58h1.09v.94c.22-.34.51-.6.88-.78.38-.18.79-.28,1.24-.28Zm13.58.12l-3.96,9.67h-1.13l1.3-3.17-2.65-6.5h1.21l2.06,5.33,2.04-5.33h1.13Zm4.09,6.68c-.62,0-1.18-.14-1.68-.42-.5-.28-.89-.68-1.18-1.19-.28-.52-.42-1.12-.42-1.8s.14-1.26.43-1.78c.3-.52.7-.92,1.2-1.19.5-.28,1.07-.42,1.69-.42s1.19.14,1.69.42c.5.27.9.66,1.19,1.18.3.51.44,1.11.44,1.79s-.15,1.28-.46,1.8c-.3.51-.7.91-1.21,1.19-.51.28-1.08.42-1.7.42Zm0-.96c.39,0,.76-.09,1.1-.28.34-.18.62-.46.83-.83.22-.37.32-.82.32-1.34s-.1-.98-.31-1.34c-.21-.37-.48-.64-.82-.82-.34-.18-.7-.28-1.09-.28s-.77.09-1.1.28c-.33.18-.59.45-.79.82-.2.37-.3.82-.3,1.34s.1.99.29,1.36c.2.37.46.64.79.83.33.18.69.26,1.08.26Zm10.76-5.72v6.58h-1.09v-.97c-.21.34-.5.6-.88.79-.37.18-.78.28-1.22.28-.51,0-.97-.1-1.38-.31-.41-.22-.73-.54-.97-.96-.23-.42-.35-.94-.35-1.55v-3.85h1.08v3.71c0,.65.16,1.15.49,1.5.33.34.78.52,1.34.52s1.04-.18,1.38-.54c.34-.36.5-.88.5-1.57v-3.61h1.09Zm3.06,1.07c.19-.38.46-.67.82-.88.36-.21.8-.31,1.31-.31v1.13h-.29c-1.22,0-1.84.66-1.84,1.99v3.58h-1.09v-6.58h1.09v1.07Zm6.42,2.21c0-.68.14-1.27.41-1.78.27-.51.65-.91,1.13-1.19.49-.28,1.04-.42,1.67-.42.81,0,1.47.2,1.99.59.53.39.88.94,1.04,1.63h-1.18c-.11-.4-.33-.72-.66-.95-.32-.23-.72-.35-1.2-.35-.62,0-1.13.22-1.51.65-.38.42-.58,1.03-.58,1.81s.19,1.4.58,1.84c.38.43.89.65,1.51.65.48,0,.88-.11,1.2-.34s.54-.54.66-.96h1.18c-.18.67-.53,1.21-1.06,1.62-.53.4-1.19.6-1.98.6-.62,0-1.18-.14-1.67-.42-.48-.28-.86-.68-1.13-1.19-.27-.51-.41-1.11-.41-1.8Zm8.91-2.21c.19-.38.46-.67.82-.88.36-.21.8-.31,1.31-.31v1.13h-.29c-1.22,0-1.84.66-1.84,1.99v3.58h-1.09v-6.58h1.09v1.07Zm9.5,1.97c0,.21-.01.43-.04.66h-5.26c.04.65.26,1.16.66,1.52.41.36.9.54,1.48.54.47,0,.86-.11,1.18-.32.32-.22.54-.52.67-.89h1.18c-.18.63-.53,1.15-1.06,1.55-.53.39-1.18.59-1.97.59-.62,0-1.18-.14-1.68-.42-.49-.28-.87-.68-1.15-1.19-.28-.52-.42-1.12-.42-1.8s.14-1.28.41-1.79c.27-.51.65-.9,1.14-1.18.5-.28,1.06-.42,1.7-.42s1.18.14,1.66.41c.48.27.85.65,1.1,1.13.26.47.4,1.01.4,1.61Zm-1.13-.23c0-.42-.09-.77-.28-1.07-.18-.3-.44-.53-.76-.68-.31-.16-.66-.24-1.04-.24-.55,0-1.02.18-1.42.53-.38.35-.6.84-.66,1.46h4.15Zm2.28.46c0-.67.14-1.26.41-1.76.27-.51.64-.91,1.12-1.19.48-.28,1.02-.42,1.61-.42.51,0,.99.12,1.43.36.44.23.78.54,1.01.92v-3.48h1.1v8.88h-1.1v-1.24c-.22.39-.54.72-.96.97-.42.25-.92.37-1.49.37s-1.12-.14-1.6-.43c-.47-.29-.84-.69-1.12-1.21-.27-.52-.41-1.11-.41-1.78Zm5.57.01c0-.5-.1-.93-.3-1.3-.2-.37-.47-.65-.82-.84-.34-.2-.71-.3-1.12-.3s-.78.1-1.12.29-.6.47-.8.84c-.2.37-.3.8-.3,1.3s.1.94.3,1.32c.2.37.47.65.8.85.34.19.71.29,1.12.29s.78-.1,1.12-.29c.34-.2.62-.48.82-.85.2-.38.3-.81.3-1.31Zm3.63-4.34c-.21,0-.38-.07-.53-.22-.14-.14-.22-.32-.22-.53s.07-.38.22-.53.32-.22.53-.22.37.07.5.22c.14.14.22.32.22.53s-.07.38-.22.53c-.14.14-.3.22-.5.22Zm.53,1.07v6.58h-1.09v-6.58h1.09Zm3.31.9v3.88c0,.32.07.55.2.68.14.13.37.19.71.19h.8v.92h-.98c-.61,0-1.06-.14-1.37-.42s-.46-.74-.46-1.38v-3.88h-.85v-.9h.85v-1.66h1.09v1.66h1.72v.9h-1.72Zm6.07,2.38c0-.68.14-1.27.41-1.78.27-.51.65-.91,1.13-1.19.49-.28,1.04-.42,1.67-.42.81,0,1.47.2,1.99.59.53.39.88.94,1.04,1.63h-1.18c-.11-.4-.33-.72-.66-.95-.32-.23-.72-.35-1.2-.35-.62,0-1.13.22-1.51.65-.38.42-.58,1.03-.58,1.81s.19,1.4.58,1.84c.38.43.89.65,1.51.65.48,0,.88-.11,1.2-.34.32-.22.54-.54.66-.96h1.18c-.18.67-.53,1.21-1.06,1.62-.53.4-1.19.6-1.98.6-.62,0-1.18-.14-1.67-.42-.48-.28-.86-.68-1.13-1.19-.27-.51-.41-1.11-.41-1.8Zm7.41-.01c0-.67.14-1.26.41-1.76.27-.51.64-.91,1.12-1.19.48-.28,1.01-.42,1.6-.42s1.08.12,1.5.37.74.56.95.94v-1.2h1.1v6.58h-1.1v-1.22c-.22.38-.54.7-.97.96-.42.25-.92.37-1.49.37s-1.11-.14-1.58-.43c-.47-.29-.84-.69-1.12-1.21-.27-.52-.41-1.11-.41-1.78Zm5.57.01c0-.5-.1-.93-.3-1.3-.2-.37-.47-.65-.82-.84-.34-.2-.71-.3-1.12-.3s-.78.1-1.12.29-.6.47-.8.84c-.2.37-.3.8-.3,1.3s.1.94.3,1.32c.2.37.47.65.8.85.34.19.71.29,1.12.29s.78-.1,1.12-.29c.34-.2.62-.48.82-.85.2-.38.3-.81.3-1.31Zm4.16-2.21c.19-.38.46-.67.82-.88.36-.21.8-.31,1.31-.31v1.13h-.29c-1.22,0-1.84.66-1.84,1.99v3.58h-1.09v-6.58h1.09v1.07Zm3.1,2.2c0-.67.14-1.26.41-1.76.27-.51.64-.91,1.12-1.19.48-.28,1.02-.42,1.61-.42.51,0,.99.12,1.43.36.44.23.78.54,1.01.92v-3.48h1.1v8.88h-1.1v-1.24c-.22.39-.54.72-.96.97-.42.25-.92.37-1.49.37s-1.12-.14-1.6-.43c-.47-.29-.84-.69-1.12-1.21s-.41-1.11-.41-1.78Zm5.57.01c0-.5-.1-.93-.3-1.3-.2-.37-.47-.65-.82-.84-.34-.2-.71-.3-1.12-.3s-.78.1-1.12.29c-.34.19-.6.47-.8.84-.2.37-.3.8-.3,1.3s.1.94.3,1.32c.2.37.47.65.8.85.34.19.71.29,1.12.29s.78-.1,1.12-.29c.34-.2.62-.48.82-.85.2-.38.3-.81.3-1.31Zm6.95-4.34c-.21,0-.38-.07-.53-.22-.14-.14-.22-.32-.22-.53s.07-.38.22-.53c.14-.14.32-.22.53-.22s.37.07.5.22c.14.14.22.32.22.53s-.07.38-.22.53c-.14.14-.3.22-.5.22Zm.53,1.07v6.58h-1.09v-6.58h1.09Zm5.18-.12c.8,0,1.45.24,1.94.73.5.48.74,1.18.74,2.09v3.88h-1.08v-3.72c0-.66-.16-1.16-.49-1.5-.33-.35-.78-.53-1.34-.53s-1.04.18-1.38.54c-.34.36-.5.88-.5,1.57v3.64h-1.09v-6.58h1.09v.94c.22-.34.51-.6.88-.78.38-.18.79-.28,1.24-.28Zm-100.22,23.76v-.83l4.21-5.83h1.31v5.71h1.2v.95h-1.2v1.93h-1.08v-1.93h-4.44Zm4.49-5.52l-3.23,4.57h3.23v-4.57Zm14.85.76c.51,0,.97.11,1.37.32.4.21.72.52.95.95.23.42.35.94.35,1.55v3.88h-1.08v-3.72c0-.66-.16-1.16-.49-1.5-.32-.35-.76-.53-1.31-.53s-1.02.18-1.36.55c-.34.36-.5.88-.5,1.57v3.62h-1.08v-3.72c0-.66-.16-1.16-.49-1.5-.32-.35-.76-.53-1.31-.53s-1.02.18-1.36.55c-.34.36-.5.88-.5,1.57v3.62h-1.09v-6.58h1.09v.95c.22-.34.5-.61.86-.79.37-.18.77-.28,1.21-.28.55,0,1.04.12,1.46.37.42.25.74.61.95,1.09.18-.46.49-.82.91-1.08.42-.26.9-.38,1.42-.38Zm5.14-.95c-.21,0-.38-.07-.53-.22-.14-.14-.22-.32-.22-.53s.07-.38.22-.53c.14-.14.32-.22.53-.22s.37.07.5.22c.14.14.22.32.22.53s-.07.38-.22.53c-.14.14-.3.22-.5.22Zm.53,1.07v6.58h-1.09v-6.58h1.09Zm5.19-.12c.8,0,1.45.24,1.94.73.5.48.74,1.18.74,2.09v3.88h-1.08v-3.72c0-.66-.16-1.16-.49-1.5-.33-.35-.78-.53-1.34-.53s-1.04.18-1.38.54c-.34.36-.5.88-.5,1.57v3.64h-1.09v-6.58h1.09v.94c.22-.34.51-.6.88-.78.38-.18.79-.28,1.24-.28Zm10.42.12v6.58h-1.09v-.97c-.21.34-.5.6-.88.79-.37.18-.78.28-1.22.28-.51,0-.97-.1-1.38-.31-.41-.22-.73-.54-.97-.96-.23-.42-.35-.94-.35-1.55v-3.85h1.08v3.71c0,.65.16,1.15.49,1.5.33.34.78.52,1.34.52s1.04-.18,1.38-.54c.34-.36.5-.88.5-1.57v-3.61h1.09Zm3.3.9v3.88c0,.32.07.55.2.68.14.13.37.19.71.19h.8v.92h-.98c-.61,0-1.06-.14-1.37-.42s-.46-.74-.46-1.38v-3.88h-.85v-.9h.85v-1.66h1.09v1.66h1.72v.9h-1.72Zm9.16,2.14c0,.21-.01.43-.04.66h-5.26c.04.65.26,1.16.66,1.52.41.36.9.54,1.48.54.47,0,.86-.11,1.18-.32.32-.22.54-.52.67-.89h1.18c-.18.63-.53,1.15-1.06,1.55-.53.39-1.18.59-1.97.59-.62,0-1.18-.14-1.68-.42-.49-.28-.87-.68-1.15-1.19-.28-.52-.42-1.12-.42-1.8s.14-1.28.41-1.79c.27-.51.65-.9,1.14-1.18.5-.28,1.06-.42,1.7-.42s1.18.14,1.66.41c.48.27.85.65,1.1,1.13.26.47.4,1.01.4,1.61Zm-1.13-.23c0-.42-.09-.77-.28-1.07-.18-.3-.44-.53-.76-.68-.31-.16-.66-.24-1.04-.24-.55,0-1.02.18-1.42.53-.38.35-.6.84-.66,1.46h4.15Zm5.02,3.88c-.5,0-.96-.08-1.36-.25-.4-.18-.72-.42-.95-.72-.23-.31-.36-.67-.38-1.07h1.13c.03.33.18.6.46.8.28.21.64.31,1.09.31.42,0,.74-.09.98-.28s.36-.42.36-.7-.13-.5-.38-.64c-.26-.14-.65-.28-1.19-.42-.49-.13-.89-.26-1.2-.38-.3-.14-.57-.33-.79-.59-.22-.26-.32-.61-.32-1.03,0-.34.1-.64.3-.92.2-.28.48-.5.85-.66.37-.17.79-.25,1.26-.25.73,0,1.32.18,1.76.55.45.37.69.87.72,1.51h-1.09c-.02-.34-.16-.62-.42-.83-.25-.21-.58-.31-1.01-.31-.39,0-.7.08-.94.25s-.35.39-.35.66c0,.22.07.4.2.54.14.14.32.25.53.34.22.08.51.17.89.28.47.13.86.26,1.15.38.3.12.55.3.76.55.22.25.33.57.34.97,0,.36-.1.68-.3.97-.2.29-.48.52-.85.68-.36.16-.78.24-1.25.24Zm4.41-.04c-.21,0-.38-.07-.53-.22-.14-.14-.22-.32-.22-.53s.07-.38.22-.53c.14-.14.32-.22.53-.22s.37.07.5.22c.14.14.22.32.22.53s-.07.38-.22.53c-.14.14-.3.22-.5.22Z"
  />
  <path
    class="cls-4"
    d="m92.43,28c.42,0,.76.33.76.75s-.34.75-.76.75h-1.63c-1.35,0-2.45,1.08-2.45,2.41v1.86c0,.41-.34.75-.76.75s-.76-.34-.76-.75v-1.86c0-2.15,1.78-3.9,3.97-3.9h1.63s0,0,0,0Zm7.17,0h1.59c2.2,0,3.98,1.75,3.98,3.91v1.86c0,.41-.34.75-.76.75s-.76-.34-.76-.75v-1.86c0-1.33-1.1-2.41-2.46-2.41h-1.59c-.42,0-.76-.33-.76-.75s.34-.75.76-.75Zm-.84,3.74h-5.52c-1.26.01-2.28,1.03-2.27,2.27v1.25c0,.15.12.26.27.27h9.52c.15,0,.27-.12.27-.27v-1.25c0-.6-.24-1.17-.66-1.6-.42-.42-1-.66-1.61-.66Zm-13,5.3h20.48c.42,0,.76.33.76.75s-.34.75-.76.75h-1.06v3.56c0,2.16-1.79,3.91-3.98,3.91h-1.59c-.42,0-.76-.33-.76-.75s.34-.75.76-.75h1.59c1.36,0,2.46-1.08,2.46-2.41v-3.56h-2.62v.99c.01,1.24-1,2.25-2.27,2.27h-5.52c-1.26-.01-2.28-1.03-2.27-2.27v-.99h-2.62v3.56c0,1.33,1.1,2.41,2.45,2.41h1.63c.42,0,.76.34.76.75,0,.41-.34.75-.76.75h-1.63c-2.19,0-3.97-1.75-3.97-3.9v-3.56h-1.06c-.42,0-.76-.33-.76-.75s.34-.75.76-.75Z"
  />
</svg>
