<svg
 xmlns="http://www.w3.org/2000/svg"
 xmlns:xlink="http://www.w3.org/1999/xlink"
 viewBox="0 0 262 140"
>
 <defs>
  <style>
   .cls-1 {
    fill: #3c58bf;
   }

   .cls-2 {
    fill: url(#linear-gradient-2);
   }

   .cls-3 {
    fill: #fff;
   }

   .cls-4 {
    fill: #179bd7;
   }

   .cls-5 {
    fill: #293688;
   }

   .cls-6 {
    fill: #253b80;
   }

   .cls-7 {
    fill: #222d65;
   }

   .cls-8 {
    fill: #5e8e3e;
   }

   .cls-9 {
    clip-path: url(#clippath-1);
   }

   .cls-10 {
    fill: #051244;
   }

   .cls-11 {
    fill: #f7981d;
   }

   .cls-12 {
    fill: #ed7c00;
   }

   .cls-13 {
    fill: url(#linear-gradient-5);
   }

   .cls-14 {
    clip-path: url(#clippath);
   }

   .cls-15 {
    fill: #95bf47;
   }

   .cls-16 {
    fill: none;
   }

   .cls-17 {
    fill: url(#linear-gradient-3);
   }

   .cls-18 {
    fill: url(#linear-gradient);
   }

   .cls-19 {
    fill: #ffbc00;
   }

   .cls-20 {
    fill: url(#linear-gradient-4);
   }

   .cls-21 {
    fill: #b9b9b9;
   }
  </style>
  <linearGradient
   id="linear-gradient"
   x1="-179.53"
   y1="770.62"
   x2="180.26"
   y2="-40.87"
   gradientTransform="translate(0 140.23) scale(1 -1)"
   gradientUnits="userSpaceOnUse"
  >
   <stop offset="0" stop-color="#fff" />
   <stop offset=".91" stop-color="#14101d" />
  </linearGradient>
  <linearGradient
   id="linear-gradient-2"
   x1="20"
   y1="54.23"
   x2="68"
   y2="54.23"
   gradientTransform="translate(0 140.23) scale(1 -1)"
   gradientUnits="userSpaceOnUse"
  >
   <stop offset="0" stop-color="#00f5a0" />
   <stop offset="1" stop-color="#00d9f5" />
  </linearGradient>
  <linearGradient
   id="linear-gradient-3"
   x1="78"
   y1="54.23"
   x2="126"
   y2="54.23"
   gradientTransform="translate(0 140.23) scale(1 -1)"
   gradientUnits="userSpaceOnUse"
  >
   <stop offset="0" stop-color="#00f5a0" />
   <stop offset="1" stop-color="#00d9f5" />
  </linearGradient>
  <linearGradient
   id="linear-gradient-4"
   x1="136"
   y1="54.23"
   x2="184"
   y2="54.23"
   gradientTransform="translate(0 140.23) scale(1 -1)"
   gradientUnits="userSpaceOnUse"
  >
   <stop offset="0" stop-color="#00f5a0" />
   <stop offset="1" stop-color="#00d9f5" />
  </linearGradient>
  <linearGradient
   id="linear-gradient-5"
   x1="194"
   y1="54.23"
   x2="242"
   y2="54.23"
   gradientTransform="translate(0 140.23) scale(1 -1)"
   gradientUnits="userSpaceOnUse"
  >
   <stop offset="0" stop-color="#00f5a0" />
   <stop offset="1" stop-color="#00d9f5" />
  </linearGradient>
  <clipPath id="clippath">
   <rect class="cls-16" x="90" y="74" width="24" height="24" />
  </clipPath>
  <clipPath id="clippath-1">
   <rect class="cls-16" x="218" y="22" width="24" height="24" />
  </clipPath>
 </defs>
 <rect class="cls-18" width="262" height="140" rx="20" ry="20" />
 <path
  class="cls-3"
  d="m23.65,34.81v4.19h-2.26v-11.3h4.11c1.33,0,2.34.32,3.01.96.68.64,1.02,1.51,1.02,2.61s-.35,1.94-1.06,2.58c-.69.64-1.69.96-2.98.96h-1.86Zm1.62-1.81c1.32,0,1.98-.58,1.98-1.73,0-.57-.15-1-.46-1.3-.31-.3-.82-.45-1.52-.45h-1.62v3.47h1.62Zm9.37-2.98c.75,0,1.39.18,1.92.53.53.35.91.83,1.14,1.42v-1.84h2.24v8.86h-2.24v-1.86c-.22.6-.6,1.08-1.14,1.44-.53.35-1.17.53-1.92.53s-1.42-.18-2.02-.54c-.6-.36-1.07-.89-1.41-1.57-.33-.69-.5-1.5-.5-2.43s.17-1.73.5-2.42c.34-.69.81-1.22,1.41-1.58.6-.36,1.27-.54,2.02-.54Zm.7,1.97c-.7,0-1.27.23-1.7.69-.43.46-.64,1.09-.64,1.89s.21,1.43.64,1.89c.43.45.99.67,1.7.67s1.24-.23,1.68-.69c.45-.47.67-1.09.67-1.87s-.22-1.41-.67-1.87c-.44-.47-1-.7-1.68-.7Zm8.32-1.86l2.42,6.02,2.24-6.02h2.48l-5.42,13.09h-2.5l2-4.48-3.73-8.61h2.51Zm24.18-2.3v11.17h-2.24v-7.79l-2.86,7.79h-1.95l-2.86-7.76v7.76h-2.26v-11.17h2.74l3.39,8.4,3.33-8.4h2.72Zm10.54,6.4c0,.22-.03.48-.08.77h-6.5c.03.79.25,1.37.64,1.74.39.37.89.56,1.47.56.52,0,.95-.13,1.3-.38.35-.26.58-.6.67-1.04h2.38c-.12.62-.37,1.17-.75,1.66-.38.49-.88.87-1.49,1.15-.6.28-1.26.42-2,.42-.86,0-1.63-.18-2.3-.54-.67-.37-1.19-.9-1.57-1.58-.37-.68-.56-1.49-.56-2.42s.19-1.73.56-2.42c.37-.69.9-1.22,1.57-1.58.67-.36,1.44-.54,2.3-.54s1.64.18,2.29.54c.66.36,1.17.86,1.52,1.5.36.63.54,1.35.54,2.16Zm-2.27-.22c.03-.73-.16-1.27-.58-1.65-.41-.37-.91-.56-1.5-.56s-1.12.19-1.54.56-.65.92-.69,1.65h4.3Zm8.77,3.06v1.94h-1.18c-.99,0-1.75-.24-2.29-.72-.52-.48-.78-1.28-.78-2.4v-3.84h-1.23v-1.9h1.23v-2.19h2.26v2.19h1.98v1.9h-1.98v3.87c0,.43.09.73.26.9s.46.26.86.26h.88Zm7.06-7.06c1.02,0,1.84.34,2.45,1.01.61.67.91,1.62.91,2.83v5.15h-2.24v-4.9c0-.7-.18-1.25-.54-1.63-.36-.39-.86-.59-1.49-.59s-1.15.21-1.54.62c-.38.42-.58,1.01-.58,1.79v4.7h-2.26v-11.84h2.26v4.75c.23-.6.62-1.06,1.15-1.39.54-.34,1.17-.51,1.87-.51Zm9.6.02c.86,0,1.64.18,2.32.54.69.36,1.24.89,1.63,1.58.4.68.59,1.49.59,2.42s-.2,1.73-.59,2.42c-.39.68-.94,1.21-1.63,1.58-.68.36-1.46.54-2.32.54s-1.64-.18-2.34-.54c-.68-.37-1.22-.9-1.62-1.58-.39-.68-.59-1.49-.59-2.42s.2-1.73.59-2.42c.39-.69.93-1.22,1.62-1.58.69-.36,1.47-.54,2.34-.54Zm0,1.95c-.63,0-1.16.22-1.6.67-.44.44-.66,1.08-.66,1.92s.22,1.49.66,1.94c.44.44.97.66,1.6.66s1.16-.22,1.6-.66c.44-.45.66-1.09.66-1.94s-.22-1.48-.66-1.92c-.44-.45-.97-.67-1.6-.67Zm9.77-1.95c.75,0,1.38.18,1.9.53.53.35.92.83,1.15,1.42v-4.82h2.24v11.84h-2.24v-1.86c-.24.6-.62,1.08-1.15,1.44-.52.35-1.16.53-1.9.53s-1.42-.18-2.02-.54c-.6-.36-1.07-.89-1.41-1.57-.33-.69-.5-1.5-.5-2.43s.17-1.73.5-2.42c.34-.69.81-1.22,1.41-1.58.6-.36,1.27-.54,2.02-.54Zm.7,1.97c-.7,0-1.27.23-1.7.69-.43.46-.64,1.09-.64,1.89s.21,1.43.64,1.89c.43.45.99.67,1.7.67s1.24-.23,1.68-.69c.45-.47.67-1.09.67-1.87s-.22-1.41-.67-1.87c-.44-.47-1-.7-1.68-.7Z"
 />
 <rect class="cls-2" x="20" y="62" width="48" height="48" rx="10" ry="10" />
 <rect class="cls-3" x="20" y="62" width="48" height="48" rx="10" ry="10" />
 <rect class="cls-17" x="78" y="62" width="48" height="48" rx="10" ry="10" />
 <rect class="cls-3" x="78" y="62" width="48" height="48" rx="10" ry="10" />
 <rect class="cls-20" x="136" y="62" width="48" height="48" rx="10" ry="10" />
 <rect class="cls-3" x="136" y="62" width="48" height="48" rx="10" ry="10" />
 <rect class="cls-13" x="194" y="62" width="48" height="48" rx="10" ry="10" />
 <rect class="cls-3" x="194" y="62" width="48" height="48" rx="10" ry="10" />
 <path
  class="cls-6"
  d="m38.82,99.36l.49-3.12-1.09-.03h-5.22l3.63-23c.01-.07.05-.13.1-.18.05-.05.12-.07.19-.07h8.8c2.92,0,4.94.61,5.99,1.81.49.56.81,1.15.96,1.8.16.68.16,1.49,0,2.48v.07s-.01.63-.01.63l.49.28c.38.19.72.45,1,.76.42.48.7,1.09.81,1.82.12.75.08,1.63-.12,2.64-.23,1.16-.59,2.16-1.08,2.99-.43.74-1.02,1.38-1.71,1.88-.65.46-1.43.82-2.31,1.04-.85.22-1.82.33-2.88.33h-.69c-.49,0-.97.18-1.34.49-.37.32-.62.76-.7,1.25l-.05.28-.87,5.49-.04.2c-.01.06-.03.1-.05.12-.03.02-.06.03-.09.03h-4.23Z"
 />
 <path
  class="cls-4"
  d="m53.63,79.19c-.03.17-.06.34-.09.52-1.16,5.96-5.13,8.02-10.2,8.02h-2.58c-.62,0-1.14.45-1.24,1.06l-1.32,8.39-.37,2.38c-.01.09,0,.19.02.28.03.09.07.18.13.25.06.07.14.13.23.17.09.04.18.06.28.06h4.58c.54,0,1-.39,1.09-.93l.05-.23.86-5.47.06-.3c.08-.54.55-.93,1.09-.93h.69c4.44,0,7.91-1.8,8.93-7.02.42-2.18.2-4-.92-5.28-.36-.4-.78-.72-1.25-.97Z"
 />
 <path
  class="cls-7"
  d="m52.41,78.71c-.37-.11-.75-.19-1.13-.25-.75-.12-1.51-.17-2.28-.17h-6.9c-.26,0-.52.09-.72.26-.2.17-.33.41-.37.67l-1.47,9.3-.04.27c.05-.3.2-.57.42-.76.23-.19.52-.3.82-.3h2.58c5.07,0,9.04-2.06,10.2-8.02.03-.18.06-.35.09-.52-.31-.16-.63-.3-.95-.4-.09-.03-.17-.06-.26-.08Z"
 />
 <path
  class="cls-6"
  d="m41.02,79.22c.04-.26.17-.5.37-.67.2-.17.45-.26.72-.26h6.9c.82,0,1.58.05,2.28.17.47.07.94.18,1.39.33.34.11.66.25.95.4.35-2.2,0-3.7-1.19-5.06-1.31-1.49-3.68-2.13-6.71-2.13h-8.8c-.62,0-1.15.45-1.24,1.06l-3.67,23.24c-.02.11-.01.22.02.32.03.11.08.2.15.29s.16.15.26.2c.1.05.21.07.32.07h5.43l1.36-8.66,1.47-9.3Z"
 />
 <g class="cls-14">
  <g>
   <path
    class="cls-21"
    d="m106.5,74c-1.28.09-2.78.91-3.65,1.97-.79.97-1.45,2.4-1.19,3.8,1.4.04,2.84-.79,3.68-1.88.78-1.01,1.38-2.44,1.16-3.9Z"
   />
   <path
    class="cls-21"
    d="m111.56,82.05c-1.23-1.54-2.96-2.43-4.59-2.43-2.15,0-3.06,1.03-4.56,1.03s-2.71-1.03-4.58-1.03-3.78,1.12-5.01,3.03c-1.74,2.69-1.44,7.75,1.37,12.06,1.01,1.54,2.35,3.28,4.11,3.29,1.56.01,2.01-1,4.12-1.01,2.12-.01,2.52,1.03,4.08,1.01,1.76-.01,3.18-1.94,4.18-3.48.72-1.11.99-1.66,1.55-2.91-4.07-1.55-4.72-7.34-.69-9.56Z"
   />
  </g>
 </g>
 <path class="cls-1" d="m155.73,90.6l1.63-9.14h2.54l-1.57,9.14h-2.59Z" />
 <path class="cls-5" d="m155.73,90.6l2.08-9.14h2.08l-1.57,9.14h-2.59Z" />
 <path
  class="cls-1"
  d="m167.52,81.56c-.51-.2-1.32-.41-2.34-.41-2.54,0-4.37,1.27-4.37,3.1,0,1.37,1.27,2.08,2.29,2.54,1.02.46,1.32.76,1.32,1.17,0,.61-.81.91-1.52.91-1.02,0-1.57-.15-2.44-.51l-.35-.15-.36,2.08c.61.25,1.73.51,2.9.51,2.69,0,4.47-1.27,4.47-3.2,0-1.07-.66-1.88-2.18-2.54-.91-.46-1.47-.71-1.47-1.17,0-.41.46-.81,1.47-.81.86,0,1.47.15,1.93.36l.25.1.41-1.98Z"
 />
 <path
  class="cls-5"
  d="m167.52,81.56c-.51-.2-1.32-.41-2.34-.41-2.54,0-3.91,1.27-3.91,3.1,0,1.37.81,2.08,1.83,2.54,1.02.46,1.32.76,1.32,1.17,0,.61-.81.91-1.52.91-1.02,0-1.57-.15-2.44-.51l-.35-.15-.36,2.08c.61.25,1.73.51,2.9.51,2.69,0,4.47-1.27,4.47-3.2,0-1.07-.66-1.88-2.18-2.54-.91-.46-1.47-.71-1.47-1.17,0-.41.46-.81,1.47-.81.86,0,1.47.15,1.93.36l.25.1.41-1.98Z"
 />
 <path
  class="cls-1"
  d="m171.89,81.45c-.61,0-1.07.05-1.32.66l-3.81,8.48h2.74l.51-1.52h3.25l.3,1.52h2.44l-2.13-9.14h-1.98Zm-1.17,6.1c.15-.46,1.02-2.69,1.02-2.69,0,0,.2-.56.36-.91l.15.86s.51,2.29.61,2.79h-2.13v-.05Z"
 />
 <path
  class="cls-5"
  d="m172.49,81.45c-.61,0-1.07.05-1.32.66l-4.42,8.48h2.74l.51-1.52h3.25l.3,1.52h2.44l-2.13-9.14h-1.37Zm-1.78,6.1c.2-.51,1.02-2.69,1.02-2.69,0,0,.2-.56.36-.91l.15.86s.51,2.29.61,2.79h-2.13v-.05Z"
 />
 <path
  class="cls-1"
  d="m151.06,87.85l-.25-1.32c-.46-1.52-1.93-3.2-3.55-4.01l2.29,8.13h2.74l4.11-9.14h-2.74l-2.59,6.35Z"
 />
 <path
  class="cls-5"
  d="m151.06,87.85l-.25-1.32c-.46-1.52-1.93-3.2-3.55-4.01l2.29,8.13h2.74l4.11-9.14h-2.24l-3.1,6.35Z"
 />
 <path
  class="cls-19"
  d="m144,81.45l.46.1c3.25.76,5.49,2.69,6.35,4.98l-.91-4.32c-.15-.61-.61-.76-1.17-.76h-4.72Z"
 />
 <path
  class="cls-11"
  d="m144,81.45c3.25.76,5.94,2.74,6.81,5.03l-.86-3.61c-.15-.61-.66-.96-1.22-.96l-4.72-.46Z"
 />
 <path
  class="cls-12"
  d="m144,81.45c3.25.76,5.94,2.74,6.81,5.03l-.61-1.98c-.15-.61-.36-1.22-1.07-1.47l-5.13-1.57Z"
 />
 <path
  class="cls-10"
  d="m153.6,87.55l-1.73-1.73-.81,1.93-.2-1.27c-.46-1.52-1.93-3.2-3.55-4.01l2.29,8.13h2.74l1.27-3.05Z"
 />
 <path class="cls-10" d="m158.32,90.6l-2.18-2.23-.41,2.23h2.59Z" />
 <path
  class="cls-10"
  d="m164.16,87.45c.2.2.31.36.25.56,0,.61-.81.91-1.52.91-1.02,0-1.57-.15-2.44-.51l-.35-.15-.36,2.08c.61.25,1.73.51,2.9.51,1.63,0,2.95-.46,3.71-1.27l-2.18-2.13Z"
 />
 <path
  class="cls-10"
  d="m167.11,90.6h2.39l.51-1.52h3.25l.3,1.52h2.44l-.86-3.71-3.05-2.95.15.81s.51,2.29.61,2.79h-2.13c.2-.51,1.02-2.69,1.02-2.69,0,0,.2-.56.36-.91"
 />
 <path
  class="cls-15"
  d="m207.48,82.74c0-.05-.05-.08-.09-.08s-.83-.06-.83-.06c0,0-.55-.55-.61-.6-.06-.06-.18-.04-.22-.03,0,0-.12.04-.31.1-.19-.54-.51-1.03-1.08-1.03h-.05c-.16-.21-.36-.3-.53-.3-1.33,0-1.97,1.66-2.17,2.5-.52.16-.89.27-.93.29-.29.09-.3.1-.33.37-.03.21-.79,6.04-.79,6.04l5.87,1.1,3.18-.69s-1.11-7.55-1.12-7.61Zm-2.39-.59c-.15.04-.32.1-.49.16v-.11c0-.33-.04-.59-.12-.8.3.04.49.37.61.75Zm-.98-.69c.08.21.13.49.13.89v.06c-.33.1-.67.21-1.03.32.2-.76.58-1.13.89-1.27Zm-.39-.37c.06,0,.12.02.17.06-.43.2-.88.7-1.07,1.71-.28.09-.56.17-.81.25.22-.77.76-2.03,1.71-2.03Z"
 />
 <path
  class="cls-8"
  d="m207.39,82.65s-.83-.06-.83-.06c0,0-.55-.55-.61-.6-.02-.02-.06-.04-.08-.04l-.44,9.08,3.18-.69s-1.12-7.55-1.12-7.61c-.02-.05-.07-.08-.1-.09Z"
 />
 <path
  class="cls-3"
  d="m204.33,84.41l-.39,1.16s-.35-.19-.77-.19c-.62,0-.65.39-.65.49,0,.53,1.39.74,1.39,1.98,0,.98-.62,1.62-1.46,1.62-1.01,0-1.52-.63-1.52-.63l.27-.89s.53.46.98.46c.29,0,.42-.23.42-.4,0-.69-1.13-.72-1.13-1.87,0-.96.69-1.89,2.08-1.89.52,0,.78.15.78.15Z"
 />
 <path
  d="m212.31,86.6c-.32-.17-.48-.32-.48-.52,0-.25.23-.42.58-.42.42,0,.78.17.78.17l.29-.89s-.26-.21-1.05-.21c-1.09,0-1.85.63-1.85,1.51,0,.5.36.88.83,1.15.39.21.52.37.52.6s-.19.43-.55.43c-.53,0-1.03-.27-1.03-.27l-.31.89s.46.31,1.23.31c1.12,0,1.94-.56,1.94-1.55-.01-.54-.42-.92-.9-1.2Zm4.48-1.87c-.56,0-.99.27-1.32.66h-.01s.48-2.52.48-2.52h-1.25l-1.22,6.39h1.25l.42-2.18c.16-.83.59-1.34.99-1.34.28,0,.39.19.39.46,0,.17-.01.39-.05.56l-.47,2.5h1.25l.49-2.58c.05-.27.09-.6.09-.82,0-.72-.37-1.14-1.03-1.14Zm3.85,0c-1.51,0-2.5,1.36-2.5,2.87,0,.97.6,1.75,1.72,1.75,1.48,0,2.47-1.32,2.47-2.87,0-.9-.51-1.75-1.69-1.75Zm-.62,3.67c-.43,0-.6-.36-.6-.82,0-.72.37-1.88,1.05-1.88.44,0,.59.39.59.75,0,.77-.38,1.95-1.04,1.95Zm5.51-3.67c-.84,0-1.32.75-1.32.75h-.01l.07-.67h-1.11c-.05.45-.16,1.15-.25,1.66l-.86,4.58h1.25l.35-1.85h.03s.26.16.73.16c1.47,0,2.43-1.51,2.43-3.03,0-.84-.39-1.6-1.3-1.6Zm-1.19,3.68c-.33,0-.52-.19-.52-.19l.21-1.16c.15-.78.56-1.3.99-1.3.39,0,.5.36.5.69,0,.81-.48,1.96-1.18,1.96Zm4.28-5.47c-.4,0-.72.32-.72.72,0,.37.24.63.59.63h.01c.39,0,.72-.27.73-.72,0-.37-.24-.63-.62-.63Zm-1.75,6.33h1.25l.84-4.44h-1.25l-.84,4.44Zm5.28-4.45h-.87l.04-.21c.07-.43.33-.8.75-.8.22,0,.4.07.4.07l.24-.98s-.21-.11-.68-.11c-.44,0-.89.13-1.23.42-.43.36-.63.89-.72,1.42l-.04.21h-.59l-.19.95h.59l-.66,3.5h1.25l.66-3.5h.86l.18-.95Zm3.01,0s-.78,1.97-1.13,3.05h-.01c-.02-.35-.31-3.05-.31-3.05h-1.32l.75,4.07c.01.09,0,.14-.03.21-.15.28-.39.56-.68.75-.24.17-.5.28-.71.36l.35,1.06c.25-.05.78-.27,1.22-.68.57-.53,1.1-1.36,1.64-2.48l1.53-3.29h-1.31Z"
 />
 <g class="cls-9">
  <path class="cls-3" d="m230,29l5,5,5-5h-10Z" />
 </g>
</svg>
