<svg
  xmlns="http://www.w3.org/2000/svg"
  xmlns:xlink="http://www.w3.org/1999/xlink"
  viewBox="0 0 335 280"
>
  <defs>
    <style>
      .cls-1 {
        fill: #fff;
      }

      .cls-2 {
        fill: rgba(255, 255, 255, 0.7);
      }

      .cls-3 {
        fill: #00ac5b;
      }

      .cls-4 {
        fill: #dffff0;
      }

      .cls-5 {
        fill: #1ae5be;
      }

      .cls-6 {
        fill: #bb2d2d;
      }

      .cls-7 {
        fill: #fdfdfe;
      }

      .cls-8 {
        clip-path: url(#clippath);
      }

      .cls-9 {
        fill: none;
      }

      .cls-10 {
        fill: #d81f26;
      }

      .cls-11 {
        fill: url(#linear-gradient);
      }

      .cls-12 {
        fill: #b2215a;
      }

      .cls-13 {
        fill: #e74d89;
      }
    </style>
    <linearGradient
      id="linear-gradient"
      x1="-941.68"
      y1="707.46"
      x2="315.42"
      y2="66.59"
      gradientTransform="translate(0 282) scale(1 -1)"
      gradientUnits="userSpaceOnUse"
    >
      <stop offset="0" stop-color="#fff" />
      <stop offset=".99" stop-color="#14101d" />
    </linearGradient>
    <clipPath id="clippath">
      <rect class="cls-9" x="20" y="82" width="40" height="40" />
    </clipPath>
  </defs>
  <rect class="cls-11" width="335" height="280" rx="9.12" ry="9.12" />
  <path
    class="cls-2"
    d="m72.16,109.56v-1.02h2.42v8.46h-1.15v-7.44h-1.27Zm9.67-.16h-4.34v2.83c.2-.27.49-.49.86-.65.38-.16.79-.24,1.24-.24.6,0,1.1.13,1.49.38.4.25.69.58.88,1,.19.41.29.86.29,1.37,0,.87-.24,1.58-.73,2.14-.49.55-1.2.83-2.15.83-.85,0-1.54-.23-2.08-.68-.54-.46-.84-1.08-.9-1.86h1.08c.09.5.29.88.61,1.16.33.27.74.41,1.24.41.62,0,1.08-.18,1.39-.55.31-.37.47-.85.47-1.45s-.16-1.04-.48-1.37c-.32-.33-.77-.49-1.36-.49-.42,0-.78.09-1.09.28-.31.18-.55.42-.71.72h-1.06v-4.79h5.35v.97Zm11.98,3.36c0,.86-.17,1.6-.52,2.24-.34.63-.85,1.12-1.52,1.48-.66.34-1.46.52-2.4.52h-2.69v-8.46h2.69c.94,0,1.74.17,2.4.52.67.34,1.18.82,1.52,1.46.34.63.52,1.38.52,2.24Zm-4.52,3.25c1.1,0,1.95-.28,2.53-.85.58-.57.88-1.37.88-2.4s-.29-1.83-.88-2.4c-.58-.58-1.42-.86-2.53-.86h-1.51v6.52h1.51Zm8.7-5.69c.64,0,1.18.16,1.62.48.45.32.76.75.94,1.28v-1.68h1.09v6.59h-1.09v-1.68c-.18.54-.49.96-.94,1.28-.44.32-.98.48-1.62.48-.58,0-1.1-.14-1.56-.41-.46-.27-.82-.66-1.08-1.16-.26-.51-.38-1.11-.38-1.8s.13-1.29.38-1.8c.26-.51.62-.9,1.08-1.18s.98-.41,1.56-.41Zm.31.97c-.67,0-1.21.22-1.62.65-.4.42-.6,1.01-.6,1.76s.2,1.34.6,1.78c.41.42.95.64,1.62.64.43,0,.82-.1,1.15-.3.34-.2.61-.48.8-.84.19-.37.29-.79.29-1.27s-.1-.9-.29-1.27c-.19-.37-.46-.65-.8-.84-.34-.2-.72-.3-1.15-.3Zm5.53-.89l2.14,5.18,1.98-5.18h1.21l-3.91,9.71h-1.24l1.37-3.23-2.77-6.48h1.22Zm8.39-.08c.74,0,1.34.2,1.79.59.46.38.73.9.83,1.56h-1.04c-.05-.39-.21-.71-.49-.96-.27-.26-.64-.38-1.1-.38-.39,0-.7.1-.92.29-.22.18-.32.44-.32.76,0,.24.07.44.22.59.15.14.34.26.55.34.22.07.53.15.91.24.49.11.88.23,1.18.35.3.11.56.3.77.55.22.26.32.6.32,1.03,0,.54-.2.97-.61,1.31-.4.34-.94.5-1.61.5-.78,0-1.42-.19-1.92-.56-.5-.38-.79-.9-.88-1.57h1.06c.04.4.21.72.52.97.31.25.72.37,1.22.37.38,0,.67-.1.88-.29.22-.19.32-.44.32-.76,0-.26-.08-.46-.23-.61s-.34-.27-.56-.35c-.22-.08-.53-.16-.92-.25-.49-.11-.88-.22-1.18-.34-.29-.11-.54-.29-.74-.53-.2-.25-.3-.58-.3-1,0-.55.2-1,.61-1.33.41-.34.96-.52,1.67-.52Zm9.8,0c.64,0,1.18.16,1.62.48.45.32.76.75.94,1.28v-1.68h1.09v6.59h-1.09v-1.68c-.18.54-.49.96-.94,1.28-.44.32-.98.48-1.62.48-.58,0-1.1-.14-1.56-.41-.46-.27-.82-.66-1.08-1.16-.26-.51-.38-1.11-.38-1.8s.13-1.29.38-1.8c.26-.51.62-.9,1.08-1.18s.98-.41,1.56-.41Zm.31.97c-.67,0-1.21.22-1.62.65-.4.42-.6,1.01-.6,1.76s.2,1.34.6,1.78c.41.42.95.64,1.62.64.43,0,.82-.1,1.15-.3.34-.2.61-.48.8-.84.19-.37.29-.79.29-1.27s-.1-.9-.29-1.27c-.19-.37-.46-.65-.8-.84-.34-.2-.72-.3-1.15-.3Zm7.77-.97c.64,0,1.18.16,1.62.48.45.32.76.75.94,1.28v-1.68h1.09v6.7c0,.61-.13,1.15-.38,1.62-.26.47-.62.84-1.08,1.1s-1,.4-1.62.4c-.89,0-1.61-.22-2.17-.65-.56-.42-.92-1-1.07-1.73h1.08c.13.44.37.78.72,1.03.36.26.82.38,1.38.38.59,0,1.08-.19,1.46-.58.39-.38.59-.9.59-1.58v-1.79c-.18.54-.49.96-.94,1.28-.44.32-.98.48-1.62.48-.58,0-1.1-.14-1.56-.41-.46-.27-.82-.66-1.08-1.16-.26-.51-.38-1.11-.38-1.8s.13-1.29.38-1.8c.26-.51.62-.9,1.08-1.18s.98-.41,1.56-.41Zm.31.97c-.67,0-1.21.22-1.62.65-.4.42-.6,1.01-.6,1.76s.2,1.34.6,1.78c.41.42.95.64,1.62.64.43,0,.82-.1,1.15-.3.34-.2.61-.48.8-.84.19-.37.29-.79.29-1.27s-.1-.9-.29-1.27c-.19-.37-.46-.65-.8-.84-.34-.2-.72-.3-1.15-.3Zm8.06-.97c.63,0,1.2.14,1.69.41.5.27.9.66,1.18,1.18.29.51.43,1.11.43,1.8s-.14,1.29-.43,1.8c-.28.5-.67.89-1.18,1.16-.5.27-1.06.41-1.69.41s-1.2-.14-1.7-.41c-.5-.27-.89-.66-1.18-1.16-.29-.51-.43-1.11-.43-1.8s.14-1.29.43-1.8.68-.9,1.18-1.18c.5-.27,1.07-.41,1.7-.41Zm0,.96c-.39,0-.76.09-1.09.26-.33.18-.6.45-.8.82-.2.36-.3.81-.3,1.34s.1.98.3,1.34c.21.36.48.63.8.8.34.18.7.26,1.09.26s.75-.09,1.08-.26c.34-.18.6-.44.8-.8.21-.37.31-.82.31-1.34s-.1-.98-.31-1.34c-.2-.37-.47-.64-.8-.82-.33-.18-.69-.26-1.08-.26Z"
  />
  <path
    class="cls-2"
    d="m76.92,181h1.08v-1.93h1.2v-.95h-1.2v-5.71h-1.31l-4.21,5.83v.83h4.44v1.93Zm-3.18-2.88l3.23-4.57v4.57h-3.23Zm12.53-5.48h-2.6v8.36h2.6c2.75,0,4.44-1.57,4.44-4.16s-1.69-4.2-4.44-4.2Zm-1.51,7.46v-6.58h1.51c2.18,0,3.32,1.27,3.32,3.31s-1.14,3.26-3.32,3.26h-1.51Zm6.98-2.41c0,2.04,1.36,3.42,3.11,3.42,1.21,0,2.06-.62,2.46-1.33v1.22h1.1v-6.58h-1.1v1.2c-.38-.68-1.22-1.31-2.45-1.31-1.76,0-3.12,1.32-3.12,3.37Zm5.57.01c0,1.55-1.03,2.45-2.23,2.45s-2.22-.91-2.22-2.46,1.02-2.42,2.22-2.42,2.23.91,2.23,2.44Zm5.45,2.05l-2.06-5.33h-1.21l2.65,6.5-1.3,3.17h1.13l3.96-9.67h-1.13l-2.04,5.33Zm8.99-.54c-.05-2.35-3.86-1.5-3.86-3.06,0-.53.48-.91,1.28-.91.88,0,1.38.48,1.43,1.14h1.09c-.07-1.28-1.03-2.06-2.48-2.06s-2.41.83-2.41,1.84c0,2.45,3.89,1.6,3.89,3.06,0,.54-.48.97-1.34.97-.92,0-1.49-.48-1.55-1.12h-1.13c.07,1.2,1.15,2.04,2.69,2.04,1.45,0,2.4-.82,2.4-1.9Zm4.33-1.52c0,2.04,1.36,3.42,3.11,3.42,1.21,0,2.06-.62,2.46-1.33v1.22h1.1v-6.58h-1.1v1.2c-.38-.68-1.22-1.31-2.45-1.31-1.76,0-3.12,1.32-3.12,3.37Zm5.57.01c0,1.55-1.03,2.45-2.23,2.45s-2.22-.91-2.22-2.46,1.02-2.42,2.22-2.42,2.23.91,2.23,2.44Zm2.54-.01c0,2.04,1.36,3.42,3.12,3.42,1.2,0,2.05-.64,2.45-1.34v1.38c0,1.4-.88,2.15-2.04,2.15-1.08,0-1.86-.54-2.1-1.33h-1.08c.22,1.4,1.45,2.28,3.18,2.28,1.93,0,3.14-1.28,3.14-3.1v-6.72h-1.1v1.2c-.38-.71-1.25-1.31-2.45-1.31-1.76,0-3.12,1.32-3.12,3.37Zm5.57.01c0,1.55-1.03,2.45-2.23,2.45s-2.22-.91-2.22-2.46,1.02-2.42,2.22-2.42,2.23.91,2.23,2.44Zm9.19,0c0-2.08-1.45-3.38-3.32-3.38s-3.32,1.31-3.32,3.38,1.42,3.41,3.28,3.41,3.37-1.32,3.37-3.41Zm-5.53,0c0-1.66,1.04-2.44,2.2-2.44s2.22.78,2.22,2.44-1.12,2.45-2.26,2.45-2.16-.78-2.16-2.45Z"
  />
  <path
    class="cls-2"
    d="m76.92,245h1.08v-1.93h1.2v-.95h-1.2v-5.71h-1.31l-4.21,5.83v.83h4.44v1.93Zm-3.18-2.88l3.23-4.57v4.57h-3.23Zm12.53-5.48h-2.6v8.36h2.6c2.75,0,4.44-1.57,4.44-4.16s-1.69-4.2-4.44-4.2Zm-1.51,7.46v-6.58h1.51c2.18,0,3.32,1.27,3.32,3.31s-1.14,3.26-3.32,3.26h-1.51Zm6.98-2.41c0,2.04,1.36,3.42,3.11,3.42,1.21,0,2.06-.62,2.46-1.33v1.22h1.1v-6.58h-1.1v1.2c-.38-.68-1.22-1.31-2.45-1.31-1.76,0-3.12,1.32-3.12,3.37Zm5.57.01c0,1.55-1.03,2.45-2.23,2.45s-2.22-.91-2.22-2.46,1.02-2.42,2.22-2.42,2.23.91,2.23,2.44Zm5.45,2.05l-2.06-5.33h-1.21l2.65,6.5-1.3,3.17h1.13l3.96-9.67h-1.13l-2.04,5.33Zm8.99-.54c-.05-2.35-3.86-1.5-3.86-3.06,0-.53.48-.91,1.28-.91.88,0,1.38.48,1.43,1.14h1.09c-.07-1.28-1.03-2.06-2.48-2.06s-2.41.83-2.41,1.84c0,2.45,3.89,1.6,3.89,3.06,0,.54-.48.97-1.34.97-.92,0-1.49-.48-1.55-1.12h-1.13c.07,1.2,1.15,2.04,2.69,2.04,1.45,0,2.4-.82,2.4-1.9Zm4.33-1.52c0,2.04,1.36,3.42,3.11,3.42,1.21,0,2.06-.62,2.46-1.33v1.22h1.1v-6.58h-1.1v1.2c-.38-.68-1.22-1.31-2.45-1.31-1.76,0-3.12,1.32-3.12,3.37Zm5.57.01c0,1.55-1.03,2.45-2.23,2.45s-2.22-.91-2.22-2.46,1.02-2.42,2.22-2.42,2.23.91,2.23,2.44Zm2.54-.01c0,2.04,1.36,3.42,3.12,3.42,1.2,0,2.05-.64,2.45-1.34v1.38c0,1.4-.88,2.15-2.04,2.15-1.08,0-1.86-.54-2.1-1.33h-1.08c.22,1.4,1.45,2.28,3.18,2.28,1.93,0,3.14-1.28,3.14-3.1v-6.72h-1.1v1.2c-.38-.71-1.25-1.31-2.45-1.31-1.76,0-3.12,1.32-3.12,3.37Zm5.57.01c0,1.55-1.03,2.45-2.23,2.45s-2.22-.91-2.22-2.46,1.02-2.42,2.22-2.42,2.23.91,2.23,2.44Zm9.19,0c0-2.08-1.45-3.38-3.32-3.38s-3.32,1.31-3.32,3.38,1.42,3.41,3.28,3.41,3.37-1.32,3.37-3.41Zm-5.53,0c0-1.66,1.04-2.44,2.2-2.44s2.22.78,2.22,2.44-1.12,2.45-2.26,2.45-2.16-.78-2.16-2.45Z"
  />
  <path
    class="cls-1"
    d="m253.81,102.41h5.59v-1.08h-5.59v1.08Zm10.64,5.81h.76v-1.13c1.9-.13,2.88-1.46,2.88-2.76,0-1.95-1.5-2.35-2.88-2.7v-3.42c.85.18,1.32.81,1.4,1.41h1.36c-.14-1.41-1.16-2.35-2.76-2.49v-1.16h-.76v1.16c-1.75.11-2.9,1.19-2.9,2.7,0,1.93,1.5,2.34,2.9,2.7v3.5c-.99-.15-1.46-.84-1.53-1.57h-1.36c.03,1.48,1.2,2.46,2.88,2.62v1.13Zm2.37-3.82c0,.84-.57,1.54-1.61,1.65v-3.3c.9.27,1.61.66,1.61,1.65Zm-3.96-4.63c0-.99.66-1.5,1.6-1.58v3.23c-.9-.28-1.6-.66-1.6-1.65Zm7.28,7.13h6.73v-1.06h-4.82c1.81-1.47,4.52-3.61,4.52-6.13,0-1.88-1.23-3-3.14-3s-3.18,1.12-3.26,3.28h1.23c.06-1.27.73-2.18,2.04-2.18s1.86.84,1.86,1.96c0,2.07-2.52,4.09-5.18,6.23v.91Zm8.57-10.02v5.71h1.2c.34-.8,1.08-1.33,2.1-1.33,1.47,0,2.21.84,2.21,2.28s-.69,2.42-2.23,2.42c-1.19,0-2.02-.63-2.25-1.69h-1.25c.25,1.64,1.47,2.77,3.49,2.77,2.37,0,3.46-1.57,3.46-3.53,0-1.57-.78-3.35-3.25-3.35-.99,0-1.89.45-2.31,1.02v-3.19h4.91v-1.12h-6.09Zm8.43,4.97c0,2.94.73,5.17,3.53,5.17s3.51-2.23,3.51-5.17-.73-5.11-3.51-5.11-3.53,2.21-3.53,5.11Zm5.78,0c0,2.18-.27,4-2.25,4s-2.27-1.82-2.27-4,.27-3.95,2.27-3.95,2.25,1.85,2.25,3.95Zm2.11,7.17h.85l1.57-3.77h-1.4l-1.02,3.77Zm4.13-4.72c.14,1.48,1.12,2.73,3.14,2.73,2.66,0,3.43-1.89,3.43-5.26,0-3.14-.8-5.07-3.54-5.07-2.18,0-3.33,1.4-3.33,3.33,0,2.14,1.39,3.3,3.25,3.3,1.09,0,2.1-.49,2.51-1.34.04,2.97-.76,3.98-2.24,3.98-1.18,0-1.85-.62-2.03-1.67h-1.18Zm3.15-2.04c-1.51,0-2.24-.95-2.24-2.25s.83-2.24,2.14-2.24c1.46,0,2.24.97,2.24,2.34s-.92,2.16-2.14,2.16Zm5.18-2.81h1.25c.13-.98.84-1.65,2.03-1.65s1.86.67,1.86,1.64c0,1.18-.91,1.69-2.6,1.71h-.34v1.06h.32c1.82,0,2.81.55,2.81,1.97,0,1.04-.64,1.83-2,1.83s-2.13-.83-2.25-1.9h-1.23c.15,1.96,1.58,2.98,3.5,2.98,2.11,0,3.21-1.23,3.21-2.8,0-1.46-.8-2.32-1.97-2.6v-.07c1.06-.24,1.79-1.15,1.79-2.31,0-1.46-1.08-2.6-3.05-2.6s-3.19,1.01-3.32,2.74Z"
  />
  <path
    class="cls-1"
    d="m253.81,166.41h5.59v-1.08h-5.59v1.08Zm10.64,5.81h.76v-1.13c1.9-.13,2.88-1.46,2.88-2.76,0-1.95-1.5-2.35-2.88-2.7v-3.42c.85.18,1.32.81,1.4,1.41h1.36c-.14-1.41-1.16-2.35-2.76-2.49v-1.16h-.76v1.16c-1.75.11-2.9,1.19-2.9,2.7,0,1.93,1.5,2.34,2.9,2.7v3.5c-.99-.15-1.46-.84-1.53-1.57h-1.36c.03,1.48,1.2,2.46,2.88,2.62v1.13Zm2.37-3.82c0,.84-.57,1.54-1.61,1.65v-3.3c.9.27,1.61.66,1.61,1.65Zm-3.96-4.63c0-.99.66-1.5,1.6-1.58v3.23c-.9-.28-1.6-.66-1.6-1.65Zm7.28,7.13h6.73v-1.06h-4.82c1.81-1.47,4.52-3.61,4.52-6.13,0-1.88-1.23-3-3.14-3s-3.18,1.12-3.26,3.28h1.23c.06-1.27.73-2.18,2.04-2.18s1.86.84,1.86,1.96c0,2.07-2.52,4.09-5.18,6.23v.91Zm8.57-10.02v5.71h1.2c.34-.8,1.08-1.33,2.1-1.33,1.47,0,2.21.84,2.21,2.28s-.69,2.42-2.23,2.42c-1.19,0-2.02-.63-2.25-1.69h-1.25c.25,1.64,1.47,2.77,3.49,2.77,2.37,0,3.46-1.57,3.46-3.53,0-1.57-.78-3.35-3.25-3.35-.99,0-1.89.45-2.31,1.02v-3.19h4.91v-1.12h-6.09Zm8.43,4.97c0,2.94.73,5.17,3.53,5.17s3.51-2.23,3.51-5.17-.73-5.11-3.51-5.11-3.53,2.21-3.53,5.11Zm5.78,0c0,2.18-.27,4-2.25,4s-2.27-1.82-2.27-4,.27-3.95,2.27-3.95,2.25,1.85,2.25,3.95Zm2.11,7.17h.85l1.57-3.77h-1.4l-1.02,3.77Zm4.13-4.72c.14,1.48,1.12,2.73,3.14,2.73,2.66,0,3.43-1.89,3.43-5.26,0-3.14-.8-5.07-3.54-5.07-2.18,0-3.33,1.4-3.33,3.33,0,2.14,1.39,3.3,3.25,3.3,1.09,0,2.1-.49,2.51-1.34.04,2.97-.76,3.98-2.24,3.98-1.18,0-1.85-.62-2.03-1.67h-1.18Zm3.15-2.04c-1.51,0-2.24-.95-2.24-2.25s.83-2.24,2.14-2.24c1.46,0,2.24.97,2.24,2.34s-.92,2.16-2.14,2.16Zm5.18-2.81h1.25c.13-.98.84-1.65,2.03-1.65s1.86.67,1.86,1.64c0,1.18-.91,1.69-2.6,1.71h-.34v1.06h.32c1.82,0,2.81.55,2.81,1.97,0,1.04-.64,1.83-2,1.83s-2.13-.83-2.25-1.9h-1.23c.15,1.96,1.58,2.98,3.5,2.98,2.11,0,3.21-1.23,3.21-2.8,0-1.46-.8-2.32-1.97-2.6v-.07c1.06-.24,1.79-1.15,1.79-2.31,0-1.46-1.08-2.6-3.05-2.6s-3.19,1.01-3.32,2.74Z"
  />
  <path
    class="cls-1"
    d="m258.39,229.33v1.08h-5.6v-1.08h5.6Zm5.76.14c.73.22,1.29.43,1.69.6.4.18.75.46,1.05.84.3.37.45.88.45,1.53,0,.47-.12.9-.35,1.3-.22.4-.57.73-1.05.98-.48.25-1.06.38-1.75.38h-.04v1.12h-.43v-1.15c-.89-.08-1.61-.37-2.17-.87-.56-.5-.87-1.12-.94-1.86h1.36c.04.39.2.76.5,1.11.31.34.72.55,1.25.63v-3.58c-.72-.22-1.28-.41-1.68-.57-.39-.18-.74-.45-1.04-.83-.29-.37-.43-.87-.43-1.5,0-.51.13-.97.39-1.36.26-.39.63-.69,1.11-.91.48-.22,1.03-.32,1.65-.32v-1.2h.43v1.22c.87.06,1.56.33,2.07.8.51.47.82,1.03.91,1.69h-1.37c-.07-.35-.23-.67-.5-.95s-.64-.46-1.11-.53v3.44Zm-2.21-1.93c0,.48.15.85.45,1.11.31.26.75.49,1.33.69v-3.33c-.54,0-.98.13-1.3.41-.32.26-.48.64-.48,1.13Zm2.23,6.57c.58,0,1.03-.15,1.34-.46.32-.31.48-.7.48-1.18s-.16-.88-.48-1.15c-.32-.27-.77-.5-1.36-.69v3.47h.01Zm4.45-.08c1.59-1.06,2.86-2.12,3.81-3.16.95-1.06,1.43-2.04,1.43-2.94,0-.56-.14-1.01-.43-1.34-.28-.35-.74-.52-1.37-.52s-1.15.21-1.48.63c-.34.41-.52.98-.56,1.71h-1.26c.07-1.1.41-1.95,1.02-2.53.62-.6,1.41-.9,2.38-.9s1.66.25,2.2.74c.54.5.81,1.2.81,2.1,0,.75-.24,1.51-.73,2.28-.48.76-1.08,1.48-1.81,2.14-.72.65-1.46,1.21-2.23,1.67h5.01v1.05h-6.79v-.92Zm14.8-7.88h-5.07v3.3c.23-.32.57-.57,1.01-.76.44-.19.92-.28,1.44-.28.7,0,1.28.15,1.74.45.47.29.81.68,1.02,1.16.22.48.34,1.01.34,1.6,0,1.02-.29,1.85-.85,2.49-.57.64-1.4.97-2.51.97-.99,0-1.8-.27-2.42-.8-.63-.54-.98-1.26-1.05-2.17h1.26c.1.58.34,1.03.71,1.36.38.32.86.48,1.44.48.72,0,1.26-.22,1.62-.64.36-.43.55-.99.55-1.69s-.19-1.21-.56-1.6c-.37-.38-.9-.57-1.58-.57-.49,0-.91.11-1.27.32-.36.21-.64.49-.83.84h-1.23v-5.59h6.24v1.13Zm1.98,3.86c0,1.59.26,2.82.78,3.71.52.89,1.43,1.33,2.72,1.33s2.19-.44,2.72-1.33c.53-.89.8-2.12.8-3.71s-.27-2.79-.8-3.68c-.52-.89-1.43-1.33-2.72-1.33s-2.19.44-2.72,1.33c-.52.88-.78,2.1-.78,3.68Zm5.75,0c0,.81-.06,1.49-.18,2.04-.11.54-.33.97-.66,1.3-.33.33-.8.49-1.41.49s-1.07-.16-1.4-.49c-.33-.33-.55-.76-.67-1.3-.11-.55-.17-1.23-.17-2.04s.06-1.48.17-2.02c.12-.54.35-.97.67-1.29.33-.33.79-.49,1.4-.49s1.09.16,1.41.49c.33.32.55.75.66,1.29.12.54.18,1.21.18,2.02Zm3.81,4.06c.13.41.2.79.2,1.15,0,.49-.12.87-.36,1.16-.24.3-.61.45-1.09.45v-.55c.23,0,.4-.07.5-.2.11-.12.17-.32.17-.59v-.13h-.71v-1.3h1.3Zm2.92-1.83c.08.59.29,1.04.62,1.36.33.32.77.48,1.34.48.78,0,1.38-.3,1.78-.91.4-.61.6-1.57.6-2.88,0-.25,0-.44-.01-.57-.13.56-.45,1.01-.95,1.34s-1.1.5-1.78.5c-.98,0-1.75-.29-2.31-.88s-.84-1.41-.84-2.46c0-.62.12-1.18.36-1.68.24-.5.61-.9,1.11-1.19.5-.3,1.12-.45,1.86-.45,1.42,0,2.39.44,2.91,1.32.53.87.8,2.06.8,3.58,0,1.74-.27,3.06-.81,3.98-.54.9-1.45,1.36-2.72,1.36-.94,0-1.68-.27-2.23-.8-.53-.54-.85-1.24-.94-2.09h1.2Zm4.2-3.84c0-.67-.2-1.24-.6-1.71-.39-.47-.98-.7-1.78-.7-.65,0-1.18.2-1.57.59-.39.39-.59.94-.59,1.64,0,.75.2,1.32.59,1.72.39.4.93.6,1.61.6.39,0,.77-.08,1.12-.24.36-.16.66-.4.88-.73.22-.33.34-.72.34-1.18Zm6.26-3.53c.63,0,1.18.11,1.64.34s.8.53,1.04.92c.23.39.35.84.35,1.33,0,.62-.18,1.13-.55,1.55-.36.42-.88.67-1.57.76v.08c.72.19,1.28.48,1.68.87.41.39.62.93.62,1.62,0,.81-.27,1.48-.81,1.99-.54.51-1.32.77-2.34.77s-1.84-.26-2.48-.78c-.62-.53-.99-1.31-1.11-2.32h1.26c.08.62.32,1.11.7,1.47.39.36.92.55,1.58.55.62,0,1.11-.16,1.44-.48.34-.33.5-.75.5-1.26,0-.62-.24-1.08-.73-1.4-.48-.33-1.16-.49-2.04-.49h-.34v-1.06h.34c1.72,0,2.58-.57,2.58-1.72,0-.5-.16-.9-.48-1.2-.32-.3-.76-.45-1.32-.45s-1.03.16-1.41.49c-.38.32-.61.79-.67,1.41h-1.25c.07-.93.39-1.66.97-2.18.59-.53,1.39-.8,2.39-.8Z"
  />
  <path
    class="cls-1"
    d="m24.51,42.62h5.21v2.38h-8.32v-15.53h3.1v13.16Zm11.83-9.97c1.03,0,1.91.24,2.64.73s1.25,1.14,1.56,1.96v-2.53h3.08v12.19h-3.08v-2.55c-.31.82-.83,1.48-1.56,1.98-.73.48-1.61.73-2.64.73s-1.95-.25-2.77-.75c-.82-.5-1.47-1.22-1.94-2.16-.45-.95-.68-2.07-.68-3.34s.23-2.38.68-3.32c.47-.95,1.11-1.68,1.94-2.18.82-.5,1.75-.75,2.77-.75Zm.97,2.71c-.97,0-1.75.32-2.33.95-.59.63-.88,1.5-.88,2.6s.29,1.97.88,2.6c.59.62,1.36.92,2.33.92s1.71-.32,2.31-.95c.62-.65.92-1.5.92-2.57s-.31-1.94-.92-2.57c-.6-.65-1.37-.97-2.31-.97Zm13.33-2.71c1.48,0,2.67.37,3.56,1.12s1.45,1.75,1.67,2.99h-2.9c-.12-.59-.38-1.06-.79-1.41-.41-.35-.95-.53-1.61-.53-.53,0-.94.12-1.23.37-.29.25-.44.59-.44,1.01,0,.34.12.61.35.81.23.21.53.37.88.48.35.12.86.26,1.52.42.92.21,1.67.43,2.24.66.59.22,1.09.58,1.5,1.08.43.48.64,1.14.64,1.98,0,1.04-.41,1.88-1.23,2.53-.81.65-1.9.97-3.28.97-1.58,0-2.85-.35-3.81-1.06-.95-.72-1.53-1.74-1.74-3.06h2.97c.07.6.34,1.08.79,1.43.45.34,1.05.51,1.78.51.53,0,.93-.12,1.21-.37.28-.26.42-.6.42-1.01,0-.35-.12-.64-.37-.86-.23-.22-.54-.39-.9-.51-.35-.12-.86-.26-1.52-.42-.91-.21-1.65-.41-2.22-.62-.56-.22-1.04-.56-1.45-1.03-.4-.47-.59-1.11-.59-1.94,0-1.06.4-1.91,1.21-2.57.81-.66,1.92-.99,3.34-.99Zm14.21,9.68v2.66h-1.63c-1.36,0-2.41-.33-3.15-.99-.72-.66-1.08-1.76-1.08-3.3v-5.28h-1.69v-2.62h1.69v-3.01h3.1v3.01h2.73v2.62h-2.73v5.32c0,.59.12,1,.35,1.23s.63.35,1.19.35h1.21Zm17.58-12.87v2.46h-4.29v13.07h-3.1v-13.07h-4.27v-2.46h11.66Zm4.81,5.68c.45-.78,1.06-1.39,1.8-1.83.75-.45,1.58-.68,2.51-.68v3.32h-.9c-2.27,0-3.41,1.06-3.41,3.17v5.87h-3.1v-12.19h3.1v2.33Zm10.8-2.49c1.03,0,1.91.24,2.64.73.73.48,1.25,1.14,1.56,1.96v-2.53h3.08v12.19h-3.08v-2.55c-.31.82-.83,1.48-1.56,1.98-.73.48-1.61.73-2.64.73s-1.95-.25-2.77-.75c-.82-.5-1.47-1.22-1.94-2.16-.45-.95-.68-2.07-.68-3.34s.23-2.38.68-3.32c.47-.95,1.11-1.68,1.94-2.18.82-.5,1.75-.75,2.77-.75Zm.97,2.71c-.97,0-1.75.32-2.33.95-.59.63-.88,1.5-.88,2.6s.29,1.97.88,2.6c.59.62,1.36.92,2.33.92s1.71-.32,2.31-.95c.62-.65.92-1.5.92-2.57s-.31-1.94-.92-2.57c-.6-.65-1.37-.97-2.31-.97Zm16.38-2.73c1.41,0,2.53.46,3.37,1.39s1.25,2.22,1.25,3.89v7.08h-3.08v-6.73c0-.97-.25-1.72-.75-2.24-.5-.54-1.18-.81-2.05-.81s-1.58.29-2.11.86c-.53.57-.79,1.39-.79,2.46v6.47h-3.1v-12.19h3.1v2.44c.32-.82.85-1.46,1.58-1.91.75-.47,1.61-.7,2.57-.7Zm11.55.02c1.48,0,2.67.37,3.56,1.12.89.75,1.45,1.75,1.67,2.99h-2.9c-.12-.59-.38-1.06-.79-1.41-.41-.35-.95-.53-1.61-.53-.53,0-.94.12-1.23.37-.29.25-.44.59-.44,1.01,0,.34.12.61.35.81.23.21.53.37.88.48.35.12.86.26,1.52.42.92.21,1.67.43,2.24.66.59.22,1.09.58,1.5,1.08.43.48.64,1.14.64,1.98,0,1.04-.41,1.88-1.23,2.53-.81.65-1.9.97-3.28.97-1.58,0-2.85-.35-3.81-1.06-.95-.72-1.53-1.74-1.74-3.06h2.97c.07.6.34,1.08.79,1.43.45.34,1.05.51,1.78.51.53,0,.93-.12,1.21-.37.28-.26.42-.6.42-1.01,0-.35-.12-.64-.37-.86-.24-.22-.54-.39-.9-.51-.35-.12-.86-.26-1.52-.42-.91-.21-1.65-.41-2.22-.62-.56-.22-1.04-.56-1.45-1.03-.4-.47-.59-1.11-.59-1.94,0-1.06.4-1.91,1.21-2.57.81-.66,1.92-.99,3.34-.99Zm12.47,0c1.03,0,1.91.24,2.64.73s1.25,1.14,1.56,1.96v-2.53h3.08v12.19h-3.08v-2.55c-.31.82-.83,1.48-1.56,1.98-.73.48-1.61.73-2.64.73s-1.95-.25-2.77-.75c-.82-.5-1.47-1.22-1.94-2.16-.46-.95-.68-2.07-.68-3.34s.23-2.38.68-3.32c.47-.95,1.11-1.68,1.94-2.18.82-.5,1.74-.75,2.77-.75Zm.97,2.71c-.97,0-1.74.32-2.33.95-.59.63-.88,1.5-.88,2.6s.29,1.97.88,2.6c.59.62,1.36.92,2.33.92s1.71-.32,2.31-.95c.62-.65.92-1.5.92-2.57s-.31-1.94-.92-2.57c-.6-.65-1.37-.97-2.31-.97Zm14.6-2.71c1.57,0,2.88.43,3.92,1.28,1.06.85,1.72,2.01,1.98,3.48h-3.28c-.13-.65-.43-1.15-.9-1.52-.47-.38-1.06-.57-1.78-.57-.82,0-1.51.31-2.07.92-.54.6-.81,1.49-.81,2.66s.27,2.07.81,2.68c.56.6,1.25.9,2.07.9.72,0,1.31-.18,1.78-.55.47-.38.77-.89.9-1.54h3.28c-.26,1.47-.92,2.63-1.98,3.48-1.04.85-2.35,1.28-3.92,1.28-1.19,0-2.24-.25-3.17-.75-.92-.51-1.64-1.24-2.16-2.18-.51-.94-.77-2.05-.77-3.32s.26-2.38.77-3.32c.51-.95,1.23-1.68,2.16-2.18.92-.5,1.98-.75,3.17-.75Zm14.61,9.68v2.66h-1.63c-1.36,0-2.41-.33-3.15-.99-.72-.66-1.08-1.76-1.08-3.3v-5.28h-1.69v-2.62h1.69v-3.01h3.1v3.01h2.73v2.62h-2.73v5.32c0,.59.12,1,.35,1.23.24.23.63.35,1.19.35h1.21Zm1.88-13.02c0-.5.18-.9.53-1.21.35-.32.81-.48,1.39-.48s1.03.16,1.39.48c.35.31.53.71.53,1.21s-.18.89-.53,1.21c-.35.31-.81.46-1.39.46s-1.03-.15-1.39-.46c-.35-.32-.53-.73-.53-1.21Zm3.45,3.5v12.19h-3.1v-12.19h3.1Zm8.44-.15c1.19,0,2.25.25,3.19.75.95.5,1.7,1.22,2.24,2.18.54.94.81,2.05.81,3.32s-.27,2.38-.81,3.32c-.54.94-1.29,1.66-2.24,2.18-.94.5-2,.75-3.19.75s-2.26-.25-3.21-.75c-.94-.51-1.68-1.24-2.22-2.18-.54-.94-.81-2.05-.81-3.32s.27-2.38.81-3.32c.54-.95,1.28-1.68,2.22-2.18.95-.5,2.02-.75,3.21-.75Zm0,2.68c-.87,0-1.6.31-2.2.92-.6.6-.9,1.48-.9,2.64s.3,2.05.9,2.66c.6.6,1.33.9,2.2.9s1.6-.3,2.2-.9c.6-.62.9-1.5.9-2.66s-.3-2.04-.9-2.64c-.6-.62-1.34-.92-2.2-.92Zm15.7-2.71c1.41,0,2.53.46,3.37,1.39s1.25,2.22,1.25,3.89v7.08h-3.08v-6.73c0-.97-.25-1.72-.75-2.24-.5-.54-1.18-.81-2.05-.81s-1.58.29-2.11.86c-.53.57-.79,1.39-.79,2.46v6.47h-3.1v-12.19h3.1v2.44c.32-.82.85-1.46,1.58-1.91.75-.47,1.61-.7,2.57-.7Z"
  />
  <path
    class="cls-1"
    d="m82.96,91.34c0,1.12-.23,2.11-.7,2.96-.47.85-1.15,1.52-2.05,2-.89.47-1.94.7-3.17.7h-4.02v-11.3h4.02c1.23,0,2.28.23,3.17.7.9.46,1.58,1.11,2.05,1.97.47.84.7,1.83.7,2.96Zm-6.11,3.65c1.22,0,2.15-.32,2.82-.96.67-.64,1.01-1.54,1.01-2.69s-.34-2.06-1.01-2.7c-.66-.64-1.6-.96-2.82-.96h-1.57v7.31h1.57Zm10.06-5.15c.33-.57.77-1.01,1.31-1.33.54-.33,1.15-.5,1.82-.5v2.42h-.66c-1.65,0-2.48.77-2.48,2.3v4.27h-2.26v-8.86h2.26v1.7Zm4.13-4.24c0-.36.13-.66.38-.88.26-.23.59-.35,1.01-.35s.75.12,1.01.35c.26.22.38.52.38.88s-.13.65-.38.88c-.26.22-.59.34-1.01.34s-.75-.11-1.01-.34c-.26-.23-.38-.53-.38-.88Zm2.51,2.54v8.86h-2.26v-8.86h2.26Zm7.34-.11c.75,0,1.42.18,2.02.54.6.36,1.06.89,1.39,1.58.34.68.51,1.49.51,2.42s-.17,1.74-.51,2.43c-.33.68-.79,1.21-1.39,1.57-.6.36-1.27.54-2.02.54s-1.39-.18-1.92-.53c-.52-.36-.9-.84-1.12-1.44v1.86h-2.26v-11.84h2.26v4.82c.22-.6.6-1.07,1.12-1.42.53-.35,1.17-.53,1.92-.53Zm-.7,1.97c-.68,0-1.25.23-1.7.7-.44.46-.66,1.08-.66,1.87s.22,1.4.66,1.87c.45.46,1.01.69,1.7.69s1.27-.22,1.7-.67c.43-.46.64-1.09.64-1.89s-.21-1.43-.64-1.89c-.43-.46-.99-.69-1.7-.69Zm11.52-1.97c.75,0,1.42.18,2.02.54.6.36,1.06.89,1.39,1.58.34.68.51,1.49.51,2.42s-.17,1.74-.51,2.43c-.33.68-.79,1.21-1.39,1.57-.6.36-1.27.54-2.02.54s-1.39-.18-1.92-.53c-.52-.36-.9-.84-1.12-1.44v1.86h-2.26v-11.84h2.26v4.82c.22-.6.6-1.07,1.12-1.42.53-.35,1.17-.53,1.92-.53Zm-.7,1.97c-.68,0-1.25.23-1.7.7-.44.46-.66,1.08-.66,1.87s.22,1.4.66,1.87c.45.46,1.01.69,1.7.69s1.27-.22,1.7-.67c.43-.46.64-1.09.64-1.89s-.21-1.43-.64-1.89c-.43-.46-.99-.69-1.7-.69Zm11.52-1.97c.75,0,1.42.18,2.02.54.6.36,1.06.89,1.39,1.58.34.68.51,1.49.51,2.42s-.17,1.74-.51,2.43c-.33.68-.79,1.21-1.39,1.57-.6.36-1.27.54-2.02.54s-1.39-.18-1.92-.53c-.52-.36-.9-.84-1.12-1.44v1.86h-2.26v-11.84h2.26v4.82c.22-.6.6-1.07,1.12-1.42.53-.35,1.17-.53,1.92-.53Zm-.7,1.97c-.68,0-1.25.23-1.7.7-.44.46-.66,1.08-.66,1.87s.22,1.4.66,1.87c.45.46,1.01.69,1.7.69s1.27-.22,1.7-.67c.43-.46.64-1.09.64-1.89s-.21-1.43-.64-1.89c-.43-.46-.99-.69-1.7-.69Zm8.48-4.83v11.84h-2.26v-11.84h2.26Zm10.38,7.07c0,.22-.03.48-.08.77h-6.5c.03.79.25,1.37.64,1.74.4.37.89.56,1.47.56.52,0,.96-.13,1.3-.38.35-.26.58-.6.67-1.04h2.38c-.12.62-.37,1.17-.75,1.66-.38.49-.88.87-1.49,1.15-.6.28-1.26.42-2,.42-.86,0-1.63-.18-2.3-.54-.67-.37-1.2-.9-1.57-1.58-.37-.68-.56-1.49-.56-2.42s.19-1.73.56-2.42c.37-.69.9-1.22,1.57-1.58.67-.36,1.44-.54,2.3-.54s1.64.18,2.29.54c.66.36,1.17.86,1.52,1.5.36.63.54,1.35.54,2.16Zm-2.27-.22c.03-.73-.16-1.27-.58-1.65-.4-.37-.91-.56-1.5-.56s-1.12.19-1.54.56c-.42.37-.65.92-.69,1.65h4.3Zm9.61.8v4.19h-2.26v-11.3h4.11c1.33,0,2.34.32,3.01.96.68.64,1.02,1.51,1.02,2.61s-.35,1.94-1.06,2.58c-.69.64-1.69.96-2.98.96h-1.86Zm1.62-1.81c1.32,0,1.98-.58,1.98-1.73,0-.57-.15-1-.46-1.3-.31-.3-.82-.45-1.52-.45h-1.62v3.47h1.62Zm7.99-1.17c.33-.57.77-1.01,1.31-1.33.54-.33,1.15-.5,1.82-.5v2.42h-.66c-1.65,0-2.48.77-2.48,2.3v4.27h-2.26v-8.86h2.26v1.7Zm8.48-1.81c.86,0,1.64.18,2.32.54.69.36,1.24.89,1.63,1.58.39.68.59,1.49.59,2.42s-.2,1.73-.59,2.42c-.4.68-.94,1.21-1.63,1.58-.68.36-1.46.54-2.32.54s-1.64-.18-2.34-.54c-.68-.37-1.22-.9-1.62-1.58-.39-.68-.59-1.49-.59-2.42s.2-1.73.59-2.42c.39-.69.93-1.22,1.62-1.58.69-.36,1.47-.54,2.34-.54Zm0,1.95c-.63,0-1.16.22-1.6.67-.44.44-.66,1.08-.66,1.92s.22,1.49.66,1.94c.44.44.97.66,1.6.66s1.16-.22,1.6-.66c.44-.45.66-1.09.66-1.94s-.22-1.48-.66-1.92c-.44-.45-.97-.67-1.6-.67Z"
  />
  <path
    class="cls-1"
    d="m80.42,149.82v7.68l-5.07-7.68h-2.24v11.18h2.24v-7.66l5.07,7.66h2.24v-11.18h-2.24Zm8.26,4.02c1.15,0,2.08.74,2.11,1.9h-4.21c.18-1.22,1.02-1.9,2.1-1.9Zm4.21,4.38h-2.42c-.29.59-.82,1.07-1.78,1.07-1.12,0-2.02-.74-2.13-2.05h6.48c.05-.29.06-.58.06-.86,0-2.64-1.81-4.38-4.37-4.38s-4.45,1.78-4.45,4.58,1.87,4.58,4.45,4.58c2.19,0,3.66-1.3,4.14-2.93Zm2.21.03c0,2.03,1.14,2.75,2.83,2.75h1.41v-1.89h-1.04c-.7,0-.94-.26-.94-.85v-4.29h1.98v-1.84h-1.98v-2.19h-2.26v2.19h-1.06v1.84h1.06v4.27Zm6.09,2.75h2.27v-7.02h1.55v-1.84h-1.55v-.37c0-.99.37-1.34,1.46-1.31v-1.89c-2.5-.06-3.73.94-3.73,3.12v.45h-1.01v1.84h1.01v7.02Zm5.27,0h2.24v-11.84h-2.24v11.84Zm4.45,0h2.24v-8.86h-2.24v8.86Zm1.14-9.92c.78,0,1.38-.58,1.38-1.31s-.59-1.31-1.38-1.31-1.38.58-1.38,1.31.58,1.31,1.38,1.31Zm8.21,9.92h2.53l-2.94-4.45,2.91-4.42h-2.4l-1.63,2.74-1.81-2.74h-2.53l2.93,4.42-2.9,4.45h2.4l1.62-2.75,1.82,2.75Z"
  />
  <path
    class="cls-1"
    d="m73.1,225h2.24v-7.26l3.01,7.26h1.7l2.99-7.26v7.26h2.24v-11.17h-2.53l-3.55,8.3-3.55-8.3h-2.54v11.17Zm13.81-4.46c0,2.77,1.79,4.61,4.03,4.61,1.41,0,2.42-.67,2.94-1.44v1.3h2.26v-8.86h-2.26v1.26c-.53-.74-1.5-1.41-2.93-1.41-2.26,0-4.05,1.78-4.05,4.54Zm6.98.03c0,1.68-1.12,2.61-2.35,2.61s-2.34-.96-2.34-2.64,1.14-2.58,2.34-2.58,2.35.93,2.35,2.61Zm10.65,4.43h2.24v-5.2c0-2.45-1.47-3.79-3.54-3.79-1.14,0-2.1.48-2.67,1.23v-1.1h-2.24v8.86h2.24v-4.9c0-1.42.78-2.19,2-2.19s1.97.77,1.97,2.19v4.9Zm12.74-8.86h-2.26v4.88c0,1.42-.77,2.19-1.98,2.19s-1.97-.77-1.97-2.19v-4.88h-2.24v5.2c0,2.43,1.49,3.78,3.55,3.78,1.1,0,2.08-.48,2.64-1.23v1.12h2.26v-8.86Zm2.21,8.86h2.24v-11.84h-2.24v11.84Zm4.45,0h2.24v-8.86h-2.24v8.86Zm1.14-9.92c.78,0,1.38-.58,1.38-1.31s-.59-1.31-1.38-1.31-1.38.58-1.38,1.31.58,1.31,1.38,1.31Zm3.56,9.92h2.27v-7.02h1.55v-1.84h-1.55v-.37c0-.99.37-1.34,1.46-1.31v-1.89c-2.5-.06-3.73.94-3.73,3.12v.45h-1.01v1.84h1.01v7.02Zm9.08-7.17c1.15,0,2.08.74,2.11,1.9h-4.21c.18-1.22,1.02-1.9,2.1-1.9Zm4.21,4.38h-2.42c-.29.59-.82,1.07-1.78,1.07-1.12,0-2.02-.74-2.13-2.05h6.48c.05-.29.06-.58.06-.86,0-2.64-1.81-4.38-4.37-4.38s-4.45,1.78-4.45,4.58,1.87,4.58,4.45,4.58c2.19,0,3.66-1.3,4.14-2.93Zm5.13-2.82c0,3.34,2.45,5.7,5.66,5.7,2.48,0,4.5-1.31,5.25-3.62h-2.58c-.53,1.09-1.49,1.62-2.69,1.62-1.95,0-3.34-1.44-3.34-3.7s1.39-3.7,3.34-3.7c1.2,0,2.16.53,2.69,1.6h2.58c-.75-2.29-2.77-3.62-5.25-3.62-3.22,0-5.66,2.37-5.66,5.71Zm12.25,1.14c0,2.77,1.79,4.61,4.03,4.61,1.41,0,2.42-.67,2.94-1.44v1.3h2.26v-8.86h-2.26v1.26c-.53-.74-1.5-1.41-2.93-1.41-2.26,0-4.05,1.78-4.05,4.54Zm6.98.03c0,1.68-1.12,2.61-2.35,2.61s-2.34-.96-2.34-2.64,1.14-2.58,2.34-2.58,2.35.93,2.35,2.61Zm11.32,1.9c-.06-3.25-4.98-2.24-4.98-3.86,0-.51.43-.85,1.26-.85.88,0,1.42.46,1.49,1.15h2.14c-.13-1.76-1.42-2.93-3.57-2.93s-3.5,1.18-3.5,2.66c0,3.25,5.01,2.24,5.01,3.82,0,.51-.48.91-1.36.91s-1.52-.51-1.6-1.18h-2.26c.1,1.65,1.65,2.94,3.87,2.94s3.49-1.15,3.49-2.67Zm1.84,2.53h2.24v-4.9c0-1.42.78-2.19,2-2.19s1.97.77,1.97,2.19v4.9h2.24v-5.2c0-2.45-1.46-3.79-3.46-3.79-1.18,0-2.18.48-2.75,1.23v-4.08h-2.24v11.84Z"
  />
  <circle class="cls-7" cx="40" cy="102" r="20" />
  <circle class="cls-7" cx="40" cy="166" r="20" />
  <circle class="cls-4" cx="40" cy="230" r="20" />
  <path
    class="cls-6"
    d="m243.2,106.25c-.78,1.26-2.62,1.26-3.4,0l-2.91-4.7c-.82-1.33.13-3.05,1.7-3.05h5.81c1.57,0,2.52,1.72,1.7,3.05l-2.91,4.7Z"
  />
  <path
    class="cls-6"
    d="m243.2,170.25c-.78,1.26-2.62,1.26-3.4,0l-2.91-4.7c-.82-1.33.13-3.05,1.7-3.05h5.81c1.57,0,2.52,1.72,1.7,3.05l-2.91,4.7Z"
  />
  <path
    class="cls-5"
    d="m239.8,225.75c.78-1.26,2.62-1.26,3.4,0l2.91,4.7c.82,1.33-.13,3.05-1.7,3.05h-5.81c-1.57,0-2.52-1.72-1.7-3.05l2.91-4.7Z"
  />
  <g class="cls-8">
    <g>
      <path
        class="cls-13"
        d="m40,83.33c10.31,0,18.66,8.34,18.66,18.64s-8.34,18.66-18.66,18.66-18.66-8.34-18.66-18.64,8.34-18.66,18.66-18.66Z"
      />
      <path
        class="cls-12"
        d="m40,121.95c-11.03,0-20-8.95-20-19.97s8.97-19.98,20-19.98,20,8.95,20,19.97-8.97,19.98-20,19.98Zm16.86-17.25c-.58-.19-5.28-1.58-10.64-.73,2.23,6.12,3.14,11.12,3.31,12.16,3.84-2.58,6.58-6.67,7.33-11.42Zm-10.19,13c-.25-1.5-1.25-6.72-3.64-12.94-.03.01-.08.03-.11.03-9.64,3.36-13.09,10.03-13.41,10.66,2.89,2.25,6.53,3.59,10.48,3.59,2.36.01,4.62-.47,6.67-1.34Zm-19.36-4.3c.39-.66,5.08-8.41,13.89-11.26.22-.08.45-.14.67-.2-.42-.97-.89-1.94-1.39-2.89-8.53,2.55-16.81,2.44-17.56,2.42,0,.17-.02.34-.02.51.02,4.39,1.67,8.39,4.41,11.42Zm-4.03-14.91c.77.02,7.8.05,15.8-2.08-2.83-5.03-5.89-9.25-6.33-9.86-4.8,2.25-8.36,6.66-9.47,11.94Zm12.72-13.09c.47.62,3.58,4.84,6.38,9.98,6.08-2.28,8.64-5.72,8.95-6.16-3.02-2.67-6.98-4.3-11.33-4.3-1.38,0-2.72.17-4,.47Zm17.22,5.8c-.36.48-3.22,4.16-9.53,6.73.39.81.78,1.64,1.14,2.47.12.3.25.59.38.88,5.69-.72,11.33.44,11.89.55-.05-4.02-1.48-7.72-3.87-10.62Z"
      />
    </g>
  </g>
  <path
    class="cls-10"
    d="m28.85,170.01c-.46.08-.93.11-1.42.17l-1.49-4.37v4.55c-.46.05-.89.11-1.32.18v-8.34h1.23l1.69,4.73v-4.73h1.31v7.81Zm2.56-4.75c.5,0,1.28-.02,1.74-.02v1.3c-.58,0-1.25,0-1.74.02v1.94c.76-.05,1.53-.11,2.3-.14v1.25l-3.6.29v-7.7h3.6v1.3h-2.3v1.75Zm7.13-1.75h-1.35v6c-.44,0-.88,0-1.3.02v-6.01h-1.35v-1.3h4v1.3Zm2.11,1.66h1.78v1.3h-1.78v2.96h-1.27v-7.23h3.63v1.3h-2.35v1.66Zm4.47,3.12c.74.02,1.49.07,2.21.11v1.29c-1.16-.07-2.32-.15-3.51-.17v-7.32h1.3v6.09Zm3.31,1.49c.41.02.85.05,1.27.1v-7.68h-1.27v7.58Zm6.97-7.58l-1.65,3.97,1.65,4.38c-.49-.07-.97-.15-1.46-.24l-.93-2.41-.95,2.22c-.47-.08-.93-.11-1.4-.17l1.67-3.82-1.51-3.92h1.4l.85,2.19.91-2.19h1.42Z"
  />
  <path
    class="cls-3"
    d="m45.4,223.62v16.28l3.6-3.62v-16.28l-3.6,3.62Zm-7.2,16.28l3.6-3.62v-16.28l-3.6,3.62v16.28Zm-7.2,0l3.6-3.62v-16.28l-3.6,3.62v16.28Z"
  />
</svg>
