<svg
  xmlns="http://www.w3.org/2000/svg"
  xmlns:xlink="http://www.w3.org/1999/xlink"
  viewBox="0 0 227 216"
>
  <defs>
    <style>
      .cls-1 {
        fill: #fff;
      }

      .cls-2 {
        fill: #179bd7;
      }

      .cls-3 {
        fill: rgba(255, 255, 255, 0.7);
      }

      .cls-4 {
        fill: #00030d;
      }

      .cls-5 {
        fill: url(#linear-gradient-2);
        fill-rule: evenodd;
      }

      .cls-6 {
        fill: #253b80;
      }

      .cls-7 {
        fill: #222d65;
      }

      .cls-8 {
        fill: url(#linear-gradient-3);
      }

      .cls-9 {
        fill: url(#linear-gradient);
      }

      .cls-10 {
        fill: url(#linear-gradient-4);
      }
    </style>
    <linearGradient
      id="linear-gradient"
      x1="-738.75"
      y1="445.41"
      x2="239.8"
      y2="60.29"
      gradientTransform="translate(0 218) scale(1 -1)"
      gradientUnits="userSpaceOnUse"
    >
      <stop offset="0" stop-color="#fff" />
      <stop offset="1" stop-color="#14101d" />
    </linearGradient>
    <linearGradient
      id="linear-gradient-2"
      x1="165.03"
      y1="140.86"
      x2="176.51"
      y2="80.43"
      gradientTransform="translate(0 218) scale(1 -1)"
      gradientUnits="userSpaceOnUse"
    >
      <stop offset="0" stop-color="#def9fa" />
      <stop offset=".17" stop-color="#bef3f5" />
      <stop offset=".42" stop-color="#9dedf0" />
      <stop offset=".55" stop-color="#7de7eb" />
      <stop offset=".72" stop-color="#5ce1e6" />
      <stop offset="1" stop-color="#33bbcf" />
    </linearGradient>
    <linearGradient
      id="linear-gradient-3"
      x1="111.4"
      y1="85.16"
      x2="115.86"
      y2="22.87"
      gradientTransform="translate(0 218) scale(1 -1)"
      gradientUnits="userSpaceOnUse"
    >
      <stop offset="0" stop-color="#def9fa" />
      <stop offset=".17" stop-color="#bef3f5" />
      <stop offset=".42" stop-color="#9dedf0" />
      <stop offset=".55" stop-color="#7de7eb" />
      <stop offset=".72" stop-color="#5ce1e6" />
      <stop offset="1" stop-color="#33bbcf" />
    </linearGradient>
    <linearGradient
      id="linear-gradient-4"
      x1="168.46"
      y1="123.06"
      x2="173.89"
      y2="87.85"
      gradientTransform="translate(0 218) scale(1 -1)"
      gradientUnits="userSpaceOnUse"
    >
      <stop offset="0" stop-color="#def9fa" />
      <stop offset=".17" stop-color="#bef3f5" />
      <stop offset=".42" stop-color="#9dedf0" />
      <stop offset=".55" stop-color="#7de7eb" />
      <stop offset=".72" stop-color="#5ce1e6" />
      <stop offset="1" stop-color="#33bbcf" />
    </linearGradient>
  </defs>
  <rect class="cls-9" width="227" height="216" rx="10" ry="10" />
  <path
    class="cls-5"
    d="m204.51,104h-62.87c-1.66,0-3,1.34-3,3v25c0,1.66,1.34,3,3,3h62.87c1.66,0,3-1.34,3-3v-25c0-1.66-1.34-3-3-3Zm-62.87-1c-2.21,0-4,1.79-4,4v25c0,2.21,1.79,4,4,4h62.87c2.21,0,4-1.79,4-4v-25c0-2.21-1.79-4-4-4h-62.87Z"
  />
  <rect
    class="cls-8"
    x="20.54"
    y="160"
    width="187.97"
    height="33"
    rx="10"
    ry="10"
  />
  <circle class="cls-1" cx="48.54" cy="48" r="28" />
  <path
    class="cls-1"
    d="m93.25,36.71v6.29h-3.38v-16.94h6.17c2,0,3.5.48,4.51,1.44,1.02.96,1.54,2.26,1.54,3.91s-.53,2.9-1.58,3.86c-1.04.96-2.53,1.44-4.46,1.44h-2.78Zm2.42-2.71c1.98,0,2.98-.86,2.98-2.59,0-.85-.23-1.5-.7-1.94-.46-.45-1.22-.67-2.28-.67h-2.42v5.21h2.42Zm14.05-4.46c1.12,0,2.08.26,2.88.79.8.53,1.37,1.24,1.7,2.14v-2.76h3.36v13.3h-3.36v-2.78c-.34.9-.9,1.62-1.7,2.16-.8.53-1.76.79-2.88.79s-2.13-.27-3.02-.82c-.9-.54-1.6-1.33-2.11-2.35-.5-1.04-.74-2.26-.74-3.65s.25-2.6.74-3.62c.51-1.04,1.22-1.83,2.11-2.38.9-.54,1.9-.82,3.02-.82Zm1.06,2.95c-1.06,0-1.9.34-2.54,1.03s-.96,1.63-.96,2.83.32,2.14.96,2.83c.64.67,1.49,1.01,2.54,1.01s1.86-.34,2.52-1.03c.67-.7,1.01-1.64,1.01-2.81s-.34-2.12-1.01-2.81c-.66-.7-1.5-1.06-2.52-1.06Zm12.47-2.78l3.62,9.02,3.36-9.02h3.72l-8.14,19.63h-3.74l3-6.72-5.59-12.91h3.77Zm20.48-.17c1.12,0,2.13.27,3.02.82.9.54,1.59,1.34,2.09,2.38.51,1.02.77,2.23.77,3.62s-.26,2.61-.77,3.65c-.5,1.02-1.19,1.81-2.09,2.35-.9.54-1.9.82-3.02.82s-2.08-.26-2.88-.79c-.78-.54-1.34-1.26-1.68-2.16v9.12h-3.38v-19.63h3.38v2.76c.34-.9.9-1.61,1.68-2.14.8-.53,1.76-.79,2.88-.79Zm-1.06,2.95c-1.02,0-1.87.35-2.54,1.06-.66.69-.98,1.62-.98,2.81s.33,2.1.98,2.81c.67.69,1.52,1.03,2.54,1.03s1.9-.34,2.54-1.01c.64-.69.96-1.63.96-2.83s-.32-2.14-.96-2.83-1.49-1.03-2.54-1.03Zm14.78-2.95c1.12,0,2.08.26,2.88.79.8.53,1.37,1.24,1.7,2.14v-2.76h3.36v13.3h-3.36v-2.78c-.34.9-.9,1.62-1.7,2.16-.8.53-1.76.79-2.88.79s-2.13-.27-3.02-.82c-.9-.54-1.6-1.33-2.11-2.35-.5-1.04-.74-2.26-.74-3.65s.25-2.6.74-3.62c.51-1.04,1.22-1.83,2.11-2.38.9-.54,1.9-.82,3.02-.82Zm1.06,2.95c-1.06,0-1.9.34-2.54,1.03s-.96,1.63-.96,2.83.32,2.14.96,2.83c.64.67,1.49,1.01,2.54,1.01s1.86-.34,2.52-1.03c.67-.7,1.01-1.64,1.01-2.81s-.34-2.12-1.01-2.81c-.66-.7-1.5-1.06-2.52-1.06Zm13.58-7.25v17.76h-3.38v-17.76h3.38Z"
  />
  <path
    class="cls-3"
    d="m95.01,59.46c1.03,0,1.88.26,2.56.77.67.5,1.14,1.2,1.39,2.08h-1.15c-.22-.56-.56-1-1.04-1.33-.48-.34-1.07-.5-1.76-.5-.55,0-1.05.14-1.49.41-.43.26-.78.65-1.03,1.15-.25.5-.37,1.08-.37,1.75s.12,1.24.37,1.74c.26.5.6.88,1.03,1.15.44.26.94.4,1.49.4.7,0,1.28-.16,1.76-.49.48-.34.83-.78,1.04-1.34h1.15c-.26.88-.72,1.58-1.39,2.09-.67.5-1.52.76-2.56.76-.79,0-1.49-.18-2.1-.54-.61-.37-1.08-.88-1.43-1.52-.34-.66-.5-1.4-.5-2.23s.17-1.59.5-2.24c.34-.66.82-1.16,1.43-1.52.61-.37,1.31-.55,2.1-.55Zm9,1.85c.77,0,1.39.25,1.86.74.47.49.71,1.2.71,2.12v3.83h-1.09v-3.73c0-.66-.17-1.16-.5-1.51-.34-.35-.79-.53-1.37-.53s-1.08.2-1.44.59c-.36.38-.54.95-.54,1.69v3.49h-1.09v-8.88h1.09v3.85c.17-.54.46-.95.89-1.24.43-.29.93-.43,1.49-.43Zm10.42,3.04c0,.23-.02.43-.05.6h-5.27c.02.75.24,1.32.64,1.69.41.38.9.56,1.49.56.53,0,.97-.13,1.32-.4.36-.27.58-.63.66-1.08h1.16c-.08.46-.26.86-.54,1.22-.27.36-.63.64-1.07.84-.44.2-.94.3-1.49.3-.63,0-1.19-.14-1.68-.41-.49-.27-.87-.66-1.15-1.16-.27-.51-.41-1.11-.41-1.8s.14-1.29.41-1.8c.28-.51.66-.9,1.15-1.18.49-.27,1.05-.41,1.68-.41s1.2.14,1.67.41c.48.27.84.64,1.09,1.09.26.46.38.96.38,1.51Zm-1.1.07c.02-.49-.06-.9-.24-1.22s-.44-.57-.76-.73-.67-.24-1.04-.24c-.6,0-1.1.19-1.51.56-.41.37-.63.91-.66,1.63h4.21Zm5.57-3.08c.84,0,1.54.22,2.09.67.55.45.89,1.05,1.02,1.8h-1.15c-.08-.47-.3-.84-.66-1.1-.35-.27-.79-.41-1.32-.41-.38,0-.74.09-1.06.26-.31.18-.56.45-.76.82-.19.36-.29.81-.29,1.34s.1.99.29,1.36c.19.36.44.63.76.8.32.18.67.26,1.06.26.53,0,.97-.14,1.32-.41.36-.27.58-.64.66-1.12h1.15c-.13.76-.47,1.36-1.02,1.81-.55.44-1.25.66-2.09.66-.63,0-1.19-.14-1.68-.41-.49-.27-.87-.66-1.15-1.16-.27-.51-.41-1.11-.41-1.8s.14-1.29.41-1.8c.28-.51.66-.9,1.15-1.18s1.05-.41,1.68-.41Zm8.27,6.67l-2.52-2.96v2.96h-1.09v-8.88h1.09v5.16l2.48-2.87h1.33l-2.95,3.28,3.02,3.31h-1.37Zm5.44-6.67c.63,0,1.2.14,1.69.41.5.27.9.66,1.18,1.18.29.51.43,1.11.43,1.8s-.14,1.29-.43,1.8c-.28.5-.67.89-1.18,1.16-.5.27-1.06.41-1.69.41s-1.2-.14-1.7-.41c-.5-.27-.89-.66-1.18-1.16-.29-.51-.43-1.11-.43-1.8s.14-1.29.43-1.8c.29-.51.68-.9,1.18-1.18.5-.27,1.07-.41,1.7-.41Zm0,.96c-.39,0-.76.09-1.09.26-.33.18-.6.45-.8.82-.2.36-.3.81-.3,1.34s.1.98.3,1.34c.21.36.48.63.8.8.34.18.7.26,1.09.26s.75-.09,1.08-.26c.34-.18.6-.44.8-.8.21-.37.31-.82.31-1.34s-.1-.98-.31-1.34c-.2-.37-.47-.64-.8-.82-.33-.18-.69-.26-1.08-.26Zm10.7-.88v6.59h-1.09v-1.55c-.17.54-.47.95-.9,1.24-.42.28-.92.42-1.49.42-.76,0-1.38-.24-1.85-.73-.47-.5-.71-1.2-.71-2.12v-3.84h1.09v3.73c0,.66.17,1.16.5,1.52.34.35.79.53,1.37.53s1.08-.19,1.44-.58c.36-.39.54-.96.54-1.7v-3.5h1.09Zm5.01,5.63v.96h-.82c-.67,0-1.18-.16-1.51-.48-.33-.32-.49-.86-.49-1.61v-3.55h-.98v-.95h.98v-1.64h1.1v1.64h1.7v.95h-1.7v3.58c0,.42.08.72.23.88.16.15.43.23.82.23h.67Z"
  />
  <path
    class="cls-10"
    d="m152.53,115.46c1.03,0,1.88.26,2.56.77.67.5,1.14,1.2,1.39,2.08h-1.15c-.22-.56-.56-1-1.04-1.33-.48-.34-1.07-.5-1.76-.5-.55,0-1.05.14-1.49.41-.43.26-.78.65-1.03,1.15-.25.5-.37,1.08-.37,1.75s.12,1.24.37,1.74c.26.5.6.88,1.03,1.15.44.26.94.4,1.49.4.7,0,1.28-.16,1.76-.49.48-.34.83-.78,1.04-1.34h1.15c-.26.88-.72,1.58-1.39,2.09-.67.5-1.52.76-2.56.76-.79,0-1.49-.18-2.1-.54-.61-.37-1.08-.88-1.43-1.52-.34-.66-.5-1.4-.5-2.23s.17-1.59.5-2.24c.34-.66.82-1.16,1.43-1.52.61-.37,1.31-.55,2.1-.55Zm9,1.85c.77,0,1.39.25,1.86.74.47.49.71,1.2.71,2.12v3.83h-1.09v-3.73c0-.66-.17-1.16-.5-1.51-.34-.35-.79-.53-1.37-.53s-1.08.2-1.44.59c-.36.38-.54.95-.54,1.69v3.49h-1.09v-8.88h1.09v3.85c.17-.54.46-.95.89-1.24.43-.29.93-.43,1.49-.43Zm7.06.02c.64,0,1.18.16,1.62.48.45.32.76.75.94,1.28v-1.68h1.09v6.59h-1.09v-1.68c-.18.54-.49.96-.94,1.28-.44.32-.98.48-1.62.48-.58,0-1.1-.14-1.56-.41-.46-.27-.82-.66-1.08-1.16-.26-.51-.38-1.11-.38-1.8s.13-1.29.38-1.8c.26-.51.62-.9,1.08-1.18.46-.27.98-.41,1.56-.41Zm.31.97c-.67,0-1.21.22-1.62.65-.4.42-.6,1.01-.6,1.76s.2,1.34.6,1.78c.41.42.95.64,1.62.64.43,0,.82-.1,1.15-.3.34-.2.61-.48.8-.84.19-.37.29-.79.29-1.27s-.1-.9-.29-1.27c-.19-.37-.46-.65-.8-.84-.34-.2-.72-.3-1.15-.3Zm8.66-1c.77,0,1.39.25,1.86.74.47.49.71,1.2.71,2.12v3.83h-1.09v-3.73c0-.66-.17-1.16-.5-1.51-.34-.35-.79-.53-1.37-.53s-1.08.2-1.44.59c-.36.38-.54.95-.54,1.69v3.49h-1.09v-6.59h1.09v1.56c.17-.54.46-.95.89-1.24.43-.29.93-.43,1.49-.43Zm7.06.02c.64,0,1.18.16,1.62.48.45.32.76.75.94,1.28v-1.68h1.09v6.7c0,.61-.13,1.15-.38,1.62s-.62.84-1.08,1.1-1,.4-1.62.4c-.89,0-1.61-.22-2.17-.65-.56-.42-.92-1-1.07-1.73h1.08c.13.44.37.78.72,1.03.36.26.82.38,1.38.38.59,0,1.08-.19,1.46-.58.39-.38.59-.9.59-1.58v-1.79c-.18.54-.49.96-.94,1.28-.44.32-.98.48-1.62.48-.58,0-1.1-.14-1.56-.41-.46-.27-.82-.66-1.08-1.16-.26-.51-.38-1.11-.38-1.8s.13-1.29.38-1.8c.26-.51.62-.9,1.08-1.18.46-.27.98-.41,1.56-.41Zm.31.97c-.67,0-1.21.22-1.62.65-.4.42-.6,1.01-.6,1.76s.2,1.34.6,1.78c.41.42.95.64,1.62.64.43,0,.82-.1,1.15-.3.34-.2.61-.48.8-.84.19-.37.29-.79.29-1.27s-.1-.9-.29-1.27c-.19-.37-.46-.65-.8-.84-.34-.2-.72-.3-1.15-.3Zm11.25,2.04c0,.23-.02.43-.05.6h-5.27c.02.75.24,1.32.64,1.69.41.38.9.56,1.49.56.53,0,.97-.13,1.32-.4.36-.27.58-.63.66-1.08h1.16c-.08.46-.26.86-.54,1.22-.27.36-.63.64-1.07.84-.44.2-.94.3-1.49.3-.63,0-1.19-.14-1.68-.41-.49-.27-.87-.66-1.15-1.16-.27-.51-.41-1.11-.41-1.8s.14-1.29.41-1.8c.28-.51.66-.9,1.15-1.18.49-.27,1.05-.41,1.68-.41s1.2.14,1.67.41c.48.27.84.64,1.09,1.09.26.46.38.96.38,1.51Zm-1.1.07c.02-.49-.06-.9-.24-1.22-.18-.33-.44-.57-.76-.73-.32-.16-.67-.24-1.04-.24-.6,0-1.1.19-1.51.56-.41.37-.63.91-.66,1.63h4.21Z"
  />
  <path
    class="cls-4"
    d="m77.4,172.66v8.34h-1.38v-6.25l-2.41,6.25h-1.2l-2.42-6.25v6.25h-1.37v-8.34h1.66l2.76,6.66,2.71-6.66h1.66Zm4.42,1.64c.6,0,1.11.15,1.54.44.42.3.72.69.9,1.18v-1.54h1.37v6.61h-1.37v-1.54c-.18.49-.48.88-.9,1.18-.42.3-.94.44-1.54.44s-1.09-.14-1.55-.41c-.45-.27-.8-.66-1.06-1.18-.26-.51-.38-1.12-.38-1.81s.13-1.29.38-1.8c.26-.51.61-.9,1.06-1.18.46-.27.97-.41,1.55-.41Zm.42,1.2c-.61,0-1.1.2-1.46.59-.36.38-.54.92-.54,1.6s.18,1.22.54,1.61c.37.38.86.58,1.46.58.38,0,.73-.09,1.03-.26.3-.18.54-.44.72-.77s.26-.71.26-1.15-.09-.81-.26-1.14c-.18-.34-.42-.59-.72-.77-.3-.18-.65-.28-1.03-.28Zm8.89,5.5l-2.38-2.94v2.94h-1.37v-8.88h1.37v5.09l2.35-2.82h1.64l-2.88,3.29,2.95,3.32h-1.69Zm8.85-3.62c0,.22-.02.42-.05.59h-5.09c.02.68.21,1.18.56,1.51.35.33.79.49,1.31.49.46,0,.84-.12,1.15-.35.32-.23.52-.54.59-.92h1.46c-.09.46-.27.88-.55,1.24s-.64.64-1.09.85c-.45.2-.95.3-1.5.3-.64,0-1.21-.14-1.7-.41-.49-.27-.87-.66-1.15-1.18-.28-.51-.42-1.12-.42-1.81s.14-1.29.42-1.8c.28-.51.66-.9,1.15-1.18.5-.27,1.06-.41,1.7-.41s1.21.14,1.69.41c.49.26.86.63,1.12,1.1.26.46.4.98.4,1.56Zm-1.38-.04c.02-.43-.06-.79-.23-1.08-.16-.3-.38-.51-.67-.65-.28-.14-.59-.22-.92-.22-.54,0-.98.16-1.34.49s-.56.81-.59,1.45h3.76Zm7.12.37v3.29h-1.37v-8.47h2.88c.98,0,1.71.23,2.2.7.5.46.74,1.1.74,1.91s-.25,1.43-.76,1.9c-.5.46-1.23.68-2.18.68h-1.51Zm1.37-1.12c1.13,0,1.69-.49,1.69-1.46,0-.48-.14-.84-.41-1.09-.26-.26-.69-.38-1.28-.38h-1.37v2.94h1.37Zm7.06-2.29c.6,0,1.11.15,1.54.44.42.3.72.69.9,1.18v-1.54h1.37v6.61h-1.37v-1.54c-.18.49-.48.88-.9,1.18-.42.3-.94.44-1.54.44s-1.09-.14-1.55-.41c-.45-.27-.8-.66-1.06-1.18-.26-.51-.38-1.12-.38-1.81s.13-1.29.38-1.8c.26-.51.61-.9,1.06-1.18.46-.27.97-.41,1.55-.41Zm.42,1.2c-.61,0-1.1.2-1.46.59-.36.38-.54.92-.54,1.6s.18,1.22.54,1.61c.37.38.86.58,1.46.58.38,0,.73-.09,1.03-.26.3-.18.54-.44.72-.77.18-.33.26-.71.26-1.15s-.09-.81-.26-1.14c-.18-.34-.42-.59-.72-.77-.3-.18-.65-.28-1.03-.28Zm5.93-1.12l1.98,4.86,1.84-4.86h1.52l-4,9.76h-1.52l1.43-3.3-2.78-6.46h1.54Zm14.63-.11c.78,0,1.41.25,1.87.74.47.5.71,1.2.71,2.12v3.85h-1.37v-3.71c0-.58-.14-1.02-.43-1.33-.29-.32-.68-.48-1.19-.48-.54,0-.96.17-1.28.52-.31.34-.47.83-.47,1.49v3.52h-1.37v-3.71c0-.58-.14-1.02-.43-1.33-.29-.32-.68-.48-1.19-.48-.54,0-.96.17-1.28.52-.31.34-.47.83-.47,1.49v3.52h-1.37v-6.61h1.37v1.38c.17-.48.45-.85.84-1.1.39-.26.85-.38,1.38-.38s1.03.14,1.43.41c.41.27.7.66.89,1.18.19-.5.5-.88.92-1.16s.9-.42,1.44-.42Zm10.44,3.1c0,.22-.02.42-.05.59h-5.09c.02.68.21,1.18.56,1.51s.79.49,1.31.49c.46,0,.84-.12,1.15-.35.32-.23.52-.54.59-.92h1.46c-.09.46-.27.88-.55,1.24s-.64.64-1.09.85c-.45.2-.95.3-1.5.3-.64,0-1.21-.14-1.7-.41-.49-.27-.87-.66-1.15-1.18-.28-.51-.42-1.12-.42-1.81s.14-1.29.42-1.8c.28-.51.66-.9,1.15-1.18.5-.27,1.06-.41,1.7-.41s1.21.14,1.69.41c.49.26.86.63,1.12,1.1.26.46.4.98.4,1.56Zm-1.38-.04c.02-.43-.06-.79-.23-1.08-.16-.3-.38-.51-.67-.65-.28-.14-.59-.22-.92-.22-.54,0-.98.16-1.34.49s-.56.81-.59,1.45h3.76Zm6.52-3.06c.77,0,1.38.25,1.85.74.46.5.7,1.2.7,2.12v3.85h-1.37v-3.71c0-.59-.15-1.05-.46-1.37-.3-.33-.72-.49-1.25-.49s-.98.18-1.31.53c-.33.34-.49.85-.49,1.52v3.52h-1.37v-6.61h1.37v1.45c.18-.5.47-.88.89-1.15s.9-.41,1.44-.41Zm7.59,5.53v1.19h-.84c-.7,0-1.24-.17-1.61-.5-.36-.34-.54-.91-.54-1.7v-3.24h-.95v-1.16h.95v-1.64h1.38v1.64h1.6v1.16h-1.6v3.26c0,.38.07.64.2.78.14.14.39.22.74.22h.66Z"
  />
  <path
    class="cls-3"
    d="m20.95,104.52h2.29v7.48h1.09v-7.48h2.28v-.89h-5.66v.89Zm13.37,4.18c0-2.08-1.45-3.38-3.32-3.38s-3.32,1.31-3.32,3.38,1.42,3.41,3.28,3.41,3.37-1.32,3.37-3.41Zm-5.53,0c0-1.66,1.04-2.44,2.2-2.44s2.22.78,2.22,2.44-1.12,2.45-2.26,2.45-2.16-.78-2.16-2.45Zm7.33,1.5c0,1.32.66,1.8,1.82,1.8h.98v-.92h-.8c-.67,0-.91-.23-.91-.88v-3.88h1.72v-.9h-1.72v-1.66h-1.09v1.66h-.85v.9h.85v3.88Zm3.84-1.51c0,2.04,1.36,3.42,3.11,3.42,1.21,0,2.06-.62,2.46-1.33v1.22h1.1v-6.58h-1.1v1.2c-.38-.68-1.22-1.31-2.45-1.31-1.76,0-3.12,1.32-3.12,3.37Zm5.57.01c0,1.55-1.03,2.45-2.23,2.45s-2.22-.91-2.22-2.46,1.02-2.42,2.22-2.42,2.23.91,2.23,2.44Zm3.07,3.3h1.09v-8.88h-1.09v8.88Z"
  />
  <path
    class="cls-1"
    d="m25.4,136.57h1.17v-1.48c2.43-.22,3.76-1.91,3.76-3.65,0-2.54-1.96-3.02-3.76-3.46v-3.89c.86.22,1.37.88,1.44,1.6h2.2c-.16-2.03-1.57-3.17-3.64-3.35v-1.46h-1.17v1.48c-2.23.2-3.78,1.58-3.78,3.6,0,2.54,1.98,3.04,3.78,3.49v3.96c-1.01-.18-1.51-.85-1.58-1.75h-2.2c0,2.03,1.58,3.24,3.78,3.44v1.46Zm2.86-5.02c0,.94-.61,1.69-1.69,1.87v-3.65c.97.31,1.69.76,1.69,1.78Zm-4.55-5.69c0-1.1.7-1.69,1.69-1.82v3.64c-.97-.31-1.69-.77-1.69-1.82Zm9.64,8.96h8.75v-1.71h-5.71c2.11-1.93,5.35-4.36,5.35-7.54,0-2.36-1.51-3.96-4.18-3.96-2.32,0-4.16,1.39-4.23,4.23h1.98c.05-1.48.83-2.48,2.27-2.48,1.53,0,2.12.94,2.12,2.3,0,2.57-3.26,4.95-6.35,7.67v1.49Zm12.13.18h2.07v-13.12h-3.74v1.87h1.67v11.25Zm5.07-6.73c0,3.82,1.01,6.7,4.68,6.7s4.68-2.88,4.68-6.7-1.01-6.62-4.68-6.62-4.68,2.88-4.68,6.62Zm7.34,0c0,2.57-.27,4.82-2.66,4.82s-2.66-2.25-2.66-4.82.27-4.75,2.66-4.75,2.66,2.3,2.66,4.75Z"
  />
  <path
    class="cls-6"
    d="m43.36,62.59l.53-3.37-1.19-.03h-5.66l3.93-24.87c.01-.08.05-.15.11-.2.06-.05.13-.08.21-.08h9.55c3.17,0,5.36.66,6.5,1.96.54.61.88,1.24,1.04,1.94.17.73.18,1.61,0,2.68v.08s-.01.69-.01.69l.54.3c.41.21.78.49,1.08.82.46.52.75,1.18.88,1.97.13.81.09,1.77-.13,2.85-.24,1.25-.64,2.34-1.17,3.23-.47.8-1.1,1.49-1.86,2.03-.71.5-1.55.88-2.5,1.13-.92.24-1.97.36-3.13.36h-.74c-.53,0-1.05.19-1.45.53-.4.35-.67.82-.76,1.35l-.06.3-.94,5.94-.04.22c-.01.07-.03.1-.06.13-.03.02-.06.04-.1.04h-4.59Z"
  />
  <path
    class="cls-2"
    d="m59.43,40.77c-.03.18-.06.37-.1.56-1.26,6.45-5.56,8.68-11.06,8.68h-2.8c-.67,0-1.24.49-1.34,1.15l-1.43,9.08-.41,2.57c-.02.1,0,.21.02.31.03.1.08.19.14.27.07.08.15.14.24.18.09.04.2.07.3.07h4.97c.59,0,1.09-.43,1.18-1.01l.05-.25.93-5.92.06-.33c.09-.58.59-1.01,1.18-1.01h.74c4.81,0,8.58-1.95,9.68-7.59.46-2.36.22-4.33-.99-5.71-.39-.43-.85-.78-1.36-1.05Z"
  />
  <path
    class="cls-7"
    d="m58.14,40.32c-.4-.12-.82-.21-1.23-.27-.82-.13-1.65-.19-2.48-.18h-7.52c-.29,0-.56.1-.78.29-.22.18-.36.44-.41.72l-1.6,10.06-.05.29c.05-.32.21-.61.46-.82.25-.21.56-.33.89-.33h2.82c5.53,0,9.86-2.23,11.13-8.67.04-.19.07-.38.1-.56-.33-.17-.68-.32-1.04-.44-.09-.03-.19-.06-.28-.09Z"
  />
  <path
    class="cls-6"
    d="m45.79,40.85c.04-.28.19-.54.4-.72.22-.19.49-.29.78-.29h7.49c.89,0,1.71.06,2.47.18.51.08,1.02.2,1.51.36.37.12.72.27,1.04.44.37-2.39,0-4.02-1.3-5.5-1.42-1.62-4-2.32-7.29-2.32h-9.55c-.67,0-1.25.49-1.35,1.15l-3.98,25.24c-.02.12-.01.24.02.35.03.11.09.22.17.31.08.09.17.16.28.21.11.05.22.08.34.08h5.9l1.48-9.4,1.59-10.1Z"
  />
</svg>
