<svg
  xmlns="http://www.w3.org/2000/svg"
  xmlns:xlink="http://www.w3.org/1999/xlink"
  viewBox="0 0 324 54"
>
  <defs>
    <style>
      .cls-1 {
        fill: #fff;
      }

      .cls-2 {
        fill: #00ae1c;
      }

      .cls-3 {
        clip-path: url(#clippath);
      }

      .cls-4 {
        fill: none;
      }

      .cls-5 {
        fill: #080915;
      }
    </style>
    <clipPath id="clippath">
      <rect class="cls-4" x="20" y="15" width="24" height="24" />
    </clipPath>
  </defs>
  <rect class="cls-1" y="0" width="324" height="54" rx="10" ry="10" />
  <path
    class="cls-5"
    d="m59.49,22.03c1.18,0,2.16.29,2.94.87.78.58,1.3,1.37,1.55,2.37h-1.68c-.21-.53-.57-.96-1.06-1.27-.49-.32-1.06-.48-1.74-.48-.62,0-1.17.14-1.67.43-.49.29-.87.7-1.15,1.23-.27.53-.41,1.16-.41,1.88,0,.76.14,1.4.42,1.95.28.54.67.96,1.18,1.25.51.28,1.11.42,1.78.42.82,0,1.53-.25,2.11-.76.59-.51.94-1.21,1.06-2.1h-3.63v-1.18h4.97v1.53c-.11.73-.37,1.39-.78,1.99-.4.59-.94,1.06-1.61,1.41-.66.35-1.42.53-2.28.53-.96,0-1.81-.21-2.55-.64-.74-.43-1.31-1.02-1.71-1.78-.4-.77-.6-1.64-.6-2.62s.2-1.85.6-2.6c.4-.77.97-1.36,1.69-1.78.74-.43,1.59-.64,2.55-.64Zm8.04,3.77c.26-.5.63-.9,1.12-1.19.49-.3,1.05-.45,1.68-.45v1.74h-.48c-.7,0-1.26.17-1.69.52-.42.34-.63.9-.63,1.68v3.91h-1.6v-7.71h1.6v1.51Zm11.3,1.97c0,.26-.02.49-.06.69h-5.94c.03.79.25,1.38.66,1.76.41.38.92.57,1.53.57.53,0,.98-.14,1.34-.41.37-.27.6-.63.69-1.08h1.71c-.1.54-.32,1.02-.64,1.44-.33.42-.75.75-1.27.99-.52.23-1.11.35-1.75.35-.75,0-1.41-.16-1.99-.48-.57-.32-1.02-.77-1.34-1.37s-.49-1.3-.49-2.11.16-1.5.49-2.1c.33-.6.78-1.05,1.34-1.37.58-.32,1.24-.48,1.99-.48s1.41.16,1.97.48c.57.31,1,.74,1.3,1.29.31.54.46,1.15.46,1.82Zm-1.61-.04c.02-.5-.07-.92-.27-1.26-.19-.35-.45-.6-.78-.76-.33-.17-.69-.25-1.08-.25-.62,0-1.15.19-1.57.57-.42.38-.65.95-.69,1.69h4.38Zm6.39-3.54c.7,0,1.3.17,1.79.52.5.35.85.8,1.05,1.37v-1.79h1.6v7.71h-1.6v-1.79c-.2.57-.55,1.03-1.05,1.37-.5.35-1.09.52-1.79.52s-1.27-.16-1.81-.48c-.52-.32-.93-.77-1.23-1.37-.3-.6-.45-1.3-.45-2.11s.15-1.5.45-2.1c.3-.6.71-1.05,1.23-1.37.53-.32,1.13-.48,1.81-.48Zm.49,1.4c-.71,0-1.28.23-1.71.69-.42.45-.63,1.07-.63,1.86s.21,1.42.63,1.88c.43.45,1,.67,1.71.67.45,0,.85-.1,1.2-.31.35-.21.64-.51.84-.9.21-.38.31-.83.31-1.34s-.1-.95-.31-1.33c-.2-.39-.49-.69-.84-.9-.36-.21-.76-.32-1.2-.32Zm9.88,5.03v1.39h-.98c-.82,0-1.45-.2-1.88-.59-.42-.4-.63-1.06-.63-1.99v-3.78h-1.11v-1.36h1.11v-1.92h1.61v1.92h1.86v1.36h-1.86v3.81c0,.44.08.74.24.91.17.17.46.25.87.25h.77Zm3.88-8.81l-.21,7.1h-1.34l-.21-7.1h1.76Zm.04,8.43v1.76h-1.82v-1.76h1.82Zm13.27-8.12l-3.29,6.29v3.6h-1.61v-3.6l-3.3-6.29h1.85l2.27,4.58,2.27-4.58h1.82Zm4.86,2.07c.75,0,1.42.16,2.02.48.6.32,1.06.77,1.4,1.37.34.6.5,1.3.5,2.1s-.17,1.52-.5,2.11-.8,1.05-1.4,1.37c-.6.32-1.27.48-2.02.48s-1.42-.16-2.02-.48c-.59-.32-1.05-.77-1.4-1.37-.34-.61-.5-1.31-.5-2.11s.17-1.5.5-2.1c.35-.6.81-1.05,1.4-1.37.6-.32,1.27-.48,2.02-.48Zm0,1.39c-.41,0-.79.09-1.13.28s-.62.48-.84.87c-.21.38-.31.85-.31,1.41s.1,1.05.31,1.43c.21.38.49.67.84.85s.72.28,1.13.28.79-.09,1.13-.28.62-.47.83-.85c.22-.38.32-.86.32-1.43s-.11-1.03-.32-1.41c-.2-.39-.48-.68-.83-.87s-.72-.28-1.13-.28Zm12.71-1.29v7.71h-1.61v-1.68c-.2.57-.54,1.01-1.02,1.33-.49.31-1.05.46-1.69.46-.9,0-1.62-.29-2.16-.87-.54-.58-.81-1.4-.81-2.48v-4.48h1.6v4.31c0,.7.18,1.24.53,1.62.35.37.84.56,1.46.56s1.14-.21,1.53-.62c.38-.41.57-1.01.57-1.79v-4.09h1.61Zm3.65,1.51c.26-.5.63-.9,1.12-1.19.49-.3,1.04-.45,1.68-.45v1.74h-.48c-.7,0-1.26.17-1.69.52-.42.34-.63.9-.63,1.68v3.91h-1.6v-7.71h1.6v1.51Zm9.15,2.37v3.84h-1.6v-9.88h3.36c1.14,0,1.99.27,2.56.81.58.54.87,1.28.87,2.23s-.29,1.67-.88,2.21c-.59.53-1.44.8-2.55.8h-1.76Zm1.6-1.3c1.32,0,1.97-.57,1.97-1.71,0-.56-.16-.98-.48-1.27-.31-.3-.81-.45-1.5-.45h-1.6v3.43h1.6Zm8.23-2.67c.7,0,1.3.17,1.79.52.49.35.84.8,1.05,1.37v-1.79h1.6v7.71h-1.6v-1.79c-.21.57-.56,1.03-1.05,1.37-.49.35-1.09.52-1.79.52s-1.27-.16-1.81-.48c-.52-.32-.93-.77-1.23-1.37-.3-.6-.45-1.3-.45-2.11s.15-1.5.45-2.1c.3-.6.71-1.05,1.23-1.37.53-.32,1.13-.48,1.81-.48Zm.49,1.4c-.71,0-1.28.23-1.71.69-.42.45-.63,1.07-.63,1.86s.21,1.42.63,1.88c.43.45,1,.67,1.71.67.45,0,.85-.1,1.2-.31.35-.21.63-.51.84-.9.21-.38.31-.83.31-1.34s-.1-.95-.31-1.33c-.21-.39-.49-.69-.84-.9-.35-.21-.76-.32-1.2-.32Zm6.91-1.3l2.31,5.67,2.14-5.67h1.78l-4.66,11.38h-1.78l1.67-3.85-3.25-7.53h1.79Zm17.07-.13c.92,0,1.64.29,2.18.87.55.58.83,1.4.83,2.48v4.49h-1.6v-4.33c0-.67-.17-1.19-.5-1.55-.34-.37-.8-.56-1.39-.56-.62,0-1.12.2-1.5.6-.36.39-.55.97-.55,1.74v4.1h-1.6v-4.33c0-.67-.17-1.19-.5-1.55-.34-.37-.8-.56-1.39-.56-.62,0-1.12.2-1.5.6-.36.39-.55.97-.55,1.74v4.1h-1.6v-7.71h1.6v1.61c.2-.56.52-.99.98-1.29.46-.3.99-.45,1.61-.45s1.2.16,1.67.48c.48.32.82.77,1.04,1.37.22-.58.58-1.03,1.08-1.36.49-.33,1.05-.49,1.68-.49Zm12.18,3.61c0,.26-.02.49-.06.69h-5.94c.03.79.25,1.38.66,1.76.41.38.92.57,1.53.57.53,0,.98-.14,1.34-.41.37-.27.6-.63.69-1.08h1.71c-.1.54-.32,1.02-.64,1.44-.33.42-.75.75-1.27.99-.52.23-1.11.35-1.75.35-.75,0-1.41-.16-1.99-.48-.57-.32-1.02-.77-1.34-1.37-.33-.6-.49-1.3-.49-2.11s.16-1.5.49-2.1c.33-.6.77-1.05,1.34-1.37.58-.32,1.24-.48,1.99-.48s1.41.16,1.97.48c.57.31,1,.74,1.3,1.29.31.54.46,1.15.46,1.82Zm-1.61-.04c.02-.5-.07-.92-.27-1.26-.19-.35-.45-.6-.78-.76-.33-.17-.69-.25-1.08-.25-.63,0-1.15.19-1.57.57-.42.38-.65.95-.69,1.69h4.38Zm7.6-3.57c.9,0,1.61.29,2.16.87.54.58.81,1.4.81,2.48v4.49h-1.6v-4.33c0-.69-.18-1.22-.53-1.6-.35-.38-.84-.57-1.46-.57s-1.14.21-1.53.62c-.38.4-.57.99-.57,1.78v4.1h-1.6v-7.71h1.6v1.69c.21-.58.55-1.03,1.04-1.34.49-.32,1.04-.48,1.68-.48Zm8.85,6.45v1.39h-.98c-.82,0-1.45-.2-1.88-.59-.42-.4-.63-1.06-.63-1.99v-3.78h-1.11v-1.36h1.11v-1.92h1.61v1.92h1.86v1.36h-1.86v3.81c0,.44.08.74.24.91.17.17.46.25.87.25h.77Zm4.83-8.57c0-.27.09-.49.28-.67.19-.18.43-.27.74-.27s.56.09.74.27c.2.18.29.4.29.67s-.1.49-.29.66c-.19.17-.43.25-.74.25s-.56-.08-.74-.25c-.19-.17-.28-.39-.28-.66Zm1.82,2.24v7.71h-1.6v-7.71h1.6Zm4.6-.1c.9,0,1.63.23,2.17.7.55.46.89,1.07,1.01,1.85h-1.51c-.07-.42-.25-.76-.55-1.01-.29-.26-.68-.39-1.16-.39-.4,0-.71.1-.94.29-.21.19-.32.44-.32.77,0,.24.08.44.24.59s.35.27.59.35c.24.08.58.18,1.02.28.58.13,1.04.27,1.4.41.36.14.67.36.92.67.26.3.39.71.39,1.23,0,.64-.25,1.17-.74,1.57-.49.4-1.14.6-1.97.6-.96,0-1.74-.22-2.34-.67-.59-.45-.94-1.07-1.06-1.88h1.55c.05.42.23.76.56,1.02.33.26.76.39,1.29.39.38,0,.68-.1.9-.29.22-.21.34-.46.34-.77,0-.27-.08-.49-.25-.64s-.38-.28-.63-.36c-.25-.09-.6-.19-1.04-.28-.56-.13-1.02-.26-1.37-.39-.35-.13-.64-.34-.9-.63-.24-.3-.36-.7-.36-1.2,0-.65.24-1.18.73-1.58.5-.41,1.18-.62,2.04-.62Zm10.96,0c.9,0,1.63.23,2.17.7.55.46.89,1.07,1.01,1.85h-1.51c-.07-.42-.25-.76-.55-1.01-.29-.26-.68-.39-1.16-.39-.4,0-.71.1-.94.29-.21.19-.32.44-.32.77,0,.24.08.44.24.59.16.15.35.27.59.35.24.08.58.18,1.02.28.58.13,1.05.27,1.4.41.36.14.67.36.92.67.26.3.39.71.39,1.23,0,.64-.25,1.17-.74,1.57-.49.4-1.14.6-1.97.6-.96,0-1.74-.22-2.34-.67-.59-.45-.94-1.07-1.06-1.88h1.55c.05.42.23.76.56,1.02.33.26.76.39,1.29.39.38,0,.68-.1.9-.29.22-.21.34-.46.34-.77,0-.27-.08-.49-.25-.64s-.38-.28-.63-.36c-.25-.09-.6-.19-1.04-.28-.56-.13-1.02-.26-1.37-.39-.35-.13-.64-.34-.9-.63-.24-.3-.36-.7-.36-1.2,0-.65.24-1.18.73-1.58.49-.41,1.18-.62,2.04-.62Zm12.11.1v7.71h-1.61v-1.68c-.2.57-.54,1.01-1.02,1.33-.49.31-1.05.46-1.69.46-.9,0-1.61-.29-2.16-.87-.54-.58-.81-1.4-.81-2.48v-4.48h1.6v4.31c0,.7.18,1.24.53,1.62.35.37.84.56,1.46.56s1.14-.21,1.53-.62c.38-.41.57-1.01.57-1.79v-4.09h1.61Zm5.48-.1c1,0,1.82.27,2.48.8.65.52,1.06,1.24,1.22,2.14h-1.69c-.09-.49-.32-.86-.69-1.13-.35-.28-.8-.42-1.34-.42-.62,0-1.13.22-1.54.66-.41.43-.62,1.06-.62,1.9s.21,1.48.62,1.92c.41.44.92.66,1.54.66.54,0,.99-.14,1.34-.42.36-.28.59-.66.69-1.15h1.69c-.16.91-.57,1.62-1.22,2.16-.65.53-1.48.8-2.48.8-.75,0-1.41-.16-1.99-.48-.57-.32-1.02-.77-1.34-1.37-.33-.6-.49-1.3-.49-2.11s.16-1.5.49-2.1c.33-.6.77-1.05,1.34-1.37.58-.32,1.24-.48,1.99-.48Zm8.81,0c1,0,1.83.27,2.48.8.65.52,1.06,1.24,1.22,2.14h-1.69c-.09-.49-.32-.86-.69-1.13-.35-.28-.8-.42-1.34-.42-.62,0-1.13.22-1.54.66-.41.43-.62,1.06-.62,1.9s.21,1.48.62,1.92c.41.44.92.66,1.54.66.54,0,.99-.14,1.34-.42.36-.28.59-.66.69-1.15h1.69c-.16.91-.56,1.62-1.22,2.16-.65.53-1.48.8-2.48.8-.75,0-1.41-.16-1.99-.48-.57-.32-1.02-.77-1.34-1.37-.33-.6-.49-1.3-.49-2.11s.16-1.5.49-2.1c.33-.6.77-1.05,1.34-1.37.58-.32,1.24-.48,1.99-.48Zm12.55,3.58c0,.26-.02.49-.06.69h-5.94c.03.79.25,1.38.66,1.76.41.38.92.57,1.53.57.53,0,.98-.14,1.34-.41.37-.27.6-.63.69-1.08h1.71c-.1.54-.32,1.02-.64,1.44-.33.42-.75.75-1.27.99-.52.23-1.11.35-1.75.35-.75,0-1.41-.16-1.99-.48-.57-.32-1.02-.77-1.34-1.37-.33-.6-.49-1.3-.49-2.11s.16-1.5.49-2.1c.33-.6.77-1.05,1.34-1.37.58-.32,1.24-.48,1.99-.48s1.41.16,1.97.48c.57.31,1,.74,1.3,1.29.31.54.46,1.15.46,1.82Zm-1.61-.04c.02-.5-.07-.92-.27-1.26-.19-.35-.45-.6-.78-.76-.33-.17-.69-.25-1.08-.25-.62,0-1.15.19-1.57.57-.42.38-.65.95-.69,1.69h4.38Zm5.83-3.54c.91,0,1.63.23,2.17.7.55.46.89,1.07,1.01,1.85h-1.51c-.07-.42-.25-.76-.55-1.01-.29-.26-.68-.39-1.16-.39-.4,0-.71.1-.94.29-.21.19-.32.44-.32.77,0,.24.08.44.24.59.16.15.35.27.59.35.24.08.58.18,1.02.28.58.13,1.05.27,1.4.41.36.14.67.36.92.67.26.3.39.71.39,1.23,0,.64-.25,1.17-.74,1.57-.48.4-1.14.6-1.97.6-.96,0-1.74-.22-2.34-.67-.59-.45-.94-1.07-1.06-1.88h1.55c.05.42.23.76.56,1.02.33.26.76.39,1.29.39.38,0,.68-.1.9-.29.22-.21.34-.46.34-.77,0-.27-.08-.49-.25-.64s-.38-.28-.63-.36c-.25-.09-.6-.19-1.04-.28-.56-.13-1.02-.26-1.37-.39-.34-.13-.64-.34-.9-.63-.24-.3-.36-.7-.36-1.2,0-.65.24-1.18.73-1.58.49-.41,1.18-.62,2.04-.62Zm8.6-1.5c-.62-.03-1.06.07-1.32.31-.25.22-.38.61-.38,1.16v.13h1.69v1.37h-1.69v6.34h-1.61v-6.34h-1.05v-1.37h1.05v-.25c0-.94.27-1.65.83-2.11.55-.48,1.38-.69,2.48-.63v1.4Zm8.54,1.6v7.71h-1.61v-1.68c-.2.57-.54,1.01-1.02,1.33-.49.31-1.05.46-1.69.46-.9,0-1.62-.29-2.16-.87-.54-.58-.81-1.4-.81-2.48v-4.48h1.6v4.31c0,.7.18,1.24.53,1.62.35.37.84.56,1.46.56s1.14-.21,1.53-.62c.38-.41.57-1.01.57-1.79v-4.09h1.61Zm3.65-2.65v10.36h-1.6v-10.36h1.6Zm3.67,0v10.36h-1.6v-10.36h1.6Zm2.98,2.65l2.31,5.67,2.14-5.67h1.78l-4.66,11.38h-1.78l1.67-3.85-3.25-7.53h1.79Zm8.68,5.95v1.76h-1.81v-1.76h1.81Z"
  />
  <g class="cls-3">
    <path
      class="cls-2"
      d="m32,15c-6.63,0-12,5.37-12,12s5.37,12,12,12,12-5.37,12-12-5.37-12-12-12Zm6.35,8.72l-7.69,7.69c-.31.31-.82.31-1.13,0l-3.89-3.89c-.31-.31-.31-.82,0-1.13s.82-.31,1.13,0l3.32,3.32,7.12-7.12c.31-.31.82-.31,1.13,0,.31.31.31.82,0,1.13Z"
    />
  </g>
</svg>
