<svg xmlns="http://www.w3.org/2000/svg" viewBox="0 0 20.99 20.99">
  <path
    d="m19.49,0H1.51C.68,0,0,.68,0,1.51v17.97c0,.84.68,1.51,1.51,1.51h17.97c.84,0,1.51-.68,1.51-1.51V1.51c0-.84-.68-1.51-1.51-1.51h.01ZM7.45,15.87h-2.56v-7.69h2.56v7.69Zm-1.28-8.74h-.02c-.86,0-1.41-.59-1.41-1.33s.57-1.33,1.45-1.33,1.41.57,1.43,1.33c0,.74-.55,1.33-1.45,1.33Zm10.5,8.74h-2.56v-4.12c0-1.03-.37-1.74-1.3-1.74-.71,0-1.13.48-1.31.94-.07.16-.08.39-.08.62v4.3h-2.56s.03-6.97,0-7.69h2.56v1.09c.34-.52.95-1.27,2.3-1.27,1.68,0,2.94,1.1,2.94,3.46v4.41h.01Z"
  />
</svg>
