<svg xmlns="http://www.w3.org/2000/svg" viewBox="0 0 21 21">
  <path
    d="m20.95,6.17c-.05-1.11-.23-1.87-.49-2.54-.27-.71-.68-1.34-1.21-1.86-.53-.53-1.16-.95-1.86-1.21-.67-.26-1.43-.44-2.55-.49-1.12-.05-1.48-.07-4.33-.07s-3.21,0-4.33.06c-1.12.05-1.88.23-2.55.49-.71.27-1.34.68-1.86,1.21-.53.53-.95,1.16-1.21,1.86-.26.67-.44,1.43-.49,2.55-.05,1.12-.07,1.48-.07,4.33s0,3.21.06,4.33c.05,1.12.23,1.88.49,2.55.27.71.68,1.34,1.21,1.86.53.53,1.16.95,1.86,1.21.67.26,1.43.44,2.55.49,1.12.05,1.48.06,4.33.06s3.21-.01,4.33-.06c1.12-.05,1.88-.23,2.55-.49,1.41-.55,2.53-1.66,3.07-3.07.26-.67.44-1.43.49-2.55.05-1.12.06-1.48.06-4.33s0-3.21-.05-4.33Zm-1.88,8.58h-.01c-.05,1.03-.22,1.58-.36,1.95-.35.91-1.08,1.64-1.99,1.99-.37.14-.93.32-1.95.36-1.11.05-1.44.06-4.24.06s-3.14,0-4.24-.06c-1.03-.05-1.58-.22-1.95-.36-.46-.17-.87-.43-1.21-.78-.35-.34-.62-.75-.78-1.21-.14-.37-.32-.93-.36-1.95-.05-1.11-.06-1.44-.06-4.24s0-3.14.06-4.24c.05-1.03.22-1.58.36-1.95.17-.46.44-.87.79-1.21.34-.35.75-.62,1.21-.78.37-.14.93-.32,1.95-.36,1.11-.05,1.44-.06,4.24-.06s3.14,0,4.24.06c1.03.05,1.58.22,1.95.36.46.17.87.43,1.21.78.35.34.62.75.78,1.21.14.37.32.93.36,1.95.05,1.11.06,1.44.06,4.24s0,3.13-.06,4.24Z"
  />
  <path
    d="m10.5,6.01c-2.48,0-4.5,2.02-4.5,4.5s2.02,4.5,4.5,4.5,4.5-2.02,4.5-4.5-2.02-4.5-4.5-4.5Zm0,7.42c-1.61,0-2.92-1.31-2.92-2.92s1.31-2.92,2.92-2.92,2.92,1.31,2.92,2.92-1.31,2.92-2.92,2.92Z"
  />
  <path
    d="m16.5,7.01c.83,0,1.5-.67,1.5-1.5s-.67-1.5-1.5-1.5-1.5.67-1.5,1.5.67,1.5,1.5,1.5Z"
  />
</svg>
