<svg xmlns="http://www.w3.org/2000/svg" viewBox="0 0 9.19 9.19">
  <path
    d="m1.99,2c-.22.22-.51.34-.82.34-.3,0-.59-.12-.82-.34-.22-.22-.35-.52-.35-.83S.12.58.34.35c.12-.12.26-.21.4-.26C1.14-.09,1.68.01,1.99.35c.11.11.2.24.26.37.06.14.09.3.09.45,0,.32-.13.61-.36.83ZM8.85.34c-.45-.45-1.19-.45-1.65,0L.35,7.19c-.45.45-.45,1.19,0,1.65.22.22.51.34.83.34s.6-.12.82-.34L8.85,1.99c.45-.46.45-1.19,0-1.65Zm-.38,6.61c-.43-.18-.94-.08-1.29.26-.07.08-.17.21-.24.36-.07.16-.08.34-.08.45s0,.29.08.45c.07.15.15.27.25.38.24.22.52.34.83.34s.59-.12.83-.34c.21-.21.33-.51.33-.82s-.12-.61-.33-.83c-.12-.12-.26-.21-.39-.25Z"
  />
</svg>
