<svg xmlns="http://www.w3.org/2000/svg" viewBox="0 0 27.19 32">
  <path
    fill-rule="evenodd"
    d="m27.12,6.44c0-1.22-.81-2.32-2-2.71L14.51.16c-.64-.22-1.34-.21-1.97.01L1.97,3.86c-1.19.41-1.97,1.51-1.97,2.74l.07,10.62c.02,3.23,1.24,6.34,3.42,8.76,1,1.11,2.28,2.06,3.91,2.91l5.76,2.98h0c.18.08.38.13.57.13.2,0,.39-.05.57-.14l5.71-3.05c1.62-.86,2.89-1.83,3.88-2.95,2.15-2.45,3.32-5.57,3.3-8.79l-.07-10.63Zm-7.52,6.77l-6.24,6.15c-.23.23-.54.35-.85.35s-.62-.11-.86-.34h0s-3.07-2.96-3.07-2.96c-.47-.45-.48-1.2-.01-1.66.47-.46,1.23-.47,1.71-.01l2.21,2.12,5.39-5.31c.47-.45,1.23-.46,1.71,0,.46.45.47,1.2,0,1.66Z"
  />
</svg>
