<svg xmlns="http://www.w3.org/2000/svg" viewBox="0 0 26.67 26.68">
 <path
  d="m13.33,26.68c-1.03,0-2.05-.39-2.83-1.17l-.97-.97c-.38-.38-.88-.58-1.42-.59h-1.37c-2.21,0-4.01-1.8-4.01-4.01v-1.37c0-.53-.21-1.04-.59-1.42l-.96-.96c-1.57-1.56-1.57-4.11,0-5.68l.97-.97c.38-.38.58-.88.59-1.42v-1.37c0-2.21,1.8-4.02,4.01-4.02h1.37c.53,0,1.04-.21,1.42-.59l.96-.96c1.56-1.57,4.11-1.58,5.68,0l.97.97c.38.38.88.59,1.42.59h1.37c2.21,0,4.01,1.8,4.01,4.02v1.37c0,.53.21,1.04.59,1.42l.96.96c.76.75,1.18,1.76,1.18,2.83s-.41,2.07-1.16,2.83l-.04.04-.95.95c-.38.38-.58.88-.59,1.42v1.37c0,2.21-1.8,4.01-4.01,4.01h-1.37c-.53,0-1.04.21-1.42.59l-.96.96c-.78.79-1.81,1.18-2.84,1.18Z"
 />
</svg>
