<svg xmlns="http://www.w3.org/2000/svg" viewBox="0 0 32 30.4">
  <path
    d="m25.47,18.91c-.41.4-.6.98-.51,1.55l1.42,7.87c.12.67-.16,1.34-.72,1.73-.55.4-1.28.45-1.87.13l-7.09-3.7c-.25-.13-.52-.2-.8-.21h-.43c-.15.02-.3.07-.43.14l-7.09,3.71c-.35.18-.75.24-1.14.18-.95-.18-1.58-1.08-1.42-2.03l1.42-7.87c.09-.57-.1-1.16-.51-1.57L.53,13.25c-.48-.47-.65-1.17-.43-1.81.21-.63.76-1.1,1.42-1.2l7.95-1.15c.6-.06,1.14-.43,1.41-.97L14.38.93c.08-.16.19-.31.32-.43l.14-.11c.08-.08.16-.15.26-.21l.17-.06.27-.11h.67c.6.06,1.13.42,1.41.96l3.55,7.15c.26.52.75.89,1.33.97l7.95,1.15c.67.1,1.23.56,1.46,1.2.21.64.03,1.35-.46,1.81l-5.98,5.66Z"
  />
</svg>
