<svg xmlns="http://www.w3.org/2000/svg" viewBox="0 0 89.71 89.58">
 <defs>
  <style>
   .cls-1 {
    fill: #5ce1e6;
   }
  </style>
 </defs>
 <path
  class="cls-1"
  d="m44.81,0c-8.9,0-17.5,2.6-24.9,7.6C12.51,12.6,6.81,19.5,3.41,27.7,0,35.8-.89,44.8.91,53.5s6,16.7,12.3,22.9c6.3,6.3,14.2,10.5,22.9,12.3s17.7.8,25.9-2.6c8.2-3.4,15.2-9.1,20.1-16.5s7.6-16,7.6-24.9h-22.5c0,4.4-1.3,8.8-3.8,12.4-2.5,3.7-6,6.5-10,8.3-4.1,1.7-8.6,2.1-12.9,1.3-4.3-.9-8.3-3-11.5-6.1s-5.3-7.1-6.1-11.5c-.9-4.3-.4-8.9,1.3-12.9,1.7-4.1,4.6-7.6,8.2-10s8-3.8,12.4-3.8V0h0Z"
 />
 <path
  class="cls-1"
  d="m44.81,0c-5.9,0-11.7,1.2-17.1,3.4-5.5,2.3-10.4,5.6-14.6,9.7s-7.5,9.1-9.7,14.5c-2.2,5.5-3.41,11.3-3.41,17.2h22.4c0-2.9.6-5.8,1.7-8.6,1.1-2.7,2.8-5.2,4.9-7.3s4.5-3.7,7.3-4.9c2.7-1.1,5.6-1.7,8.6-1.7L44.8,0h0Z"
 />
 <circle class="cls-1" cx="44.81" cy="44.8" r="14" />
 <path
  class="cls-1"
  d="m58.81,44.8c0-1.8-.4-3.7-1.1-5.4-.7-1.7-1.7-3.2-3-4.5s-2.8-2.3-4.5-3-3.5-1.1-5.4-1.1-3.7.4-5.4,1.1-3.2,1.7-4.5,3-2.3,2.8-3,4.5-1.1,3.5-1.1,5.4h28Z"
 />
</svg>
