<svg
 width="0"
 height="0"
 class="hidden"
 aria-hidden="true"
 style="position: absolute; width: 0; height: 0; overflow: hidden"
 version="1.1"
 xmlns="http://www.w3.org/2000/svg"
 xmlns:xlink="http://www.w3.org/1999/xlink"
>
 <g id="logo-app-store" viewBox="0 0 108.75 27.54">
  <rect x="53.68" y="0" width=".97" height="6.88"></rect>
  <path
   d="m65.8,6.88v-3.38c0-1.05-.7-1.66-1.93-1.66-1.12,0-1.91.55-2.01,1.4h.94c.11-.35.48-.55,1.03-.55.66,0,1.01.3,1.01.82v.43l-1.33.08c-1.17.07-1.83.59-1.83,1.48,0,.21.05.42.13.61.08.19.21.36.36.5.15.14.34.24.53.31.2.06.41.09.61.07.29.01.58-.05.84-.19.26-.14.48-.34.63-.59h.08v.7h.93Zm-.97-1.82c-.01.16-.05.31-.12.45-.07.14-.17.26-.29.36s-.26.18-.41.22c-.15.05-.31.06-.46.05-.53,0-.91-.26-.91-.7s.31-.67.99-.71l1.2-.08v.41Z"
  ></path>
  <path
   d="m33.51,3.58c.05-.43.01-.86-.12-1.27-.13-.41-.35-.78-.65-1.09-.29-.31-.65-.55-1.05-.71-.4-.16-.83-.22-1.25-.19h-2.36s0,6.56,0,6.56h2.36c1.94,0,3.07-1.2,3.07-3.3Zm-4.41,2.37V1.25h1.23c.3-.02.61.03.89.15.28.11.53.29.74.51.21.22.36.49.45.78.09.29.12.6.08.9.04.3.02.61-.07.91-.09.29-.24.56-.45.79s-.46.4-.74.52c-.28.11-.59.17-.89.15h-1.23Z"
  ></path>
  <path
   d="m97.07,14.67c-.43.33-.74.79-.87,1.32h-.05v-1.69h-1.94v9.95h2.03v-5.9c-.03-.3,0-.59.09-.88.09-.28.24-.54.45-.76.2-.22.45-.39.72-.5.27-.11.57-.17.86-.15.31,0,.62.03.91.12v-1.91c-.23-.05-.46-.08-.7-.08-.54-.02-1.07.15-1.51.47Z"
  ></path>
  <path
   d="m13.19,4.15c.89-1.07,1.32-2.45,1.22-3.84-1.35.14-2.61.79-3.51,1.82-.44.5-.78,1.09-.99,1.72-.21.63-.3,1.3-.26,1.97.68,0,1.35-.14,1.96-.43.61-.29,1.15-.72,1.58-1.25Z"
  ></path>
  <path
   d="m17.04,15.94c-.57-.86-.87-1.87-.87-2.9.01-.92.25-1.82.7-2.61.45-.8,1.09-1.47,1.87-1.95-.49-.71-1.14-1.29-1.9-1.7-.76-.41-1.6-.64-2.46-.67-1.84-.19-3.61,1.1-4.55,1.1s-2.39-1.09-3.94-1.05c-1,.03-1.98.33-2.84.85-.86.53-1.56,1.27-2.05,2.15-2.11,3.68-.54,9.09,1.49,12.07,1.01,1.46,2.2,3.08,3.75,3.03,1.52-.06,2.08-.97,3.91-.97s2.34.97,3.92.94c1.63-.03,2.65-1.46,3.63-2.93.73-1.04,1.29-2.19,1.66-3.4-.95-.4-1.75-1.08-2.32-1.93Z"
  ></path>
  <path
   d="m69.12,6.96c.31.01.62-.06.89-.22.27-.15.5-.38.65-.65h.08v.78h.93V0h-.97v2.72h-.07c-.14-.27-.36-.5-.63-.65-.27-.15-.57-.23-.88-.21-1.24,0-2.04.99-2.04,2.55s.79,2.56,2.04,2.56Zm.28-4.24c.81,0,1.32.65,1.32,1.68s-.51,1.68-1.32,1.68-1.31-.63-1.31-1.68.5-1.68,1.31-1.68Z"
  ></path>
  <path
   d="m71.86,16.54l-1.5-.37c-1.75-.43-2.46-1-2.46-1.97,0-1.21,1.12-2.04,2.76-2.04s2.76.82,2.88,2.18h2.05c-.07-2.36-2.03-3.97-4.9-3.97s-4.94,1.62-4.94,3.97c0,1.9,1.16,3.07,3.65,3.68l1.76.43c1.76.43,2.5,1.07,2.5,2.13,0,1.22-1.23,2.11-2.94,2.11s-3.09-.89-3.24-2.24h-2.08c.13,2.47,2.16,4.03,5.17,4.03,3.22,0,5.24-1.6,5.24-4.15,0-2-1.16-3.12-3.94-3.78Z"
  ></path>
  <path
   d="m99.26,5.39c.09.31.26.6.47.84.22.24.48.44.78.57.3.13.62.19.94.18.47.05.93-.06,1.33-.33.39-.26.67-.65.81-1.11h-.93c-.11.21-.29.37-.49.48-.21.11-.44.15-.68.12-.18,0-.36-.03-.53-.11-.17-.07-.32-.18-.44-.31-.12-.13-.22-.29-.28-.46-.06-.17-.08-.36-.07-.54v-.05h3.47v-.34c0-1.55-.83-2.5-2.19-2.5-.33,0-.65.06-.94.2s-.56.33-.78.57c-.22.25-.38.53-.47.85s-.12.64-.08.97c-.04.32-.02.65.08.96Zm1.01-1.93c.06-.16.16-.3.28-.42.12-.12.26-.21.41-.28.16-.06.32-.1.49-.09.17,0,.33.03.48.09.15.06.29.16.4.28.11.12.2.26.26.42.05.16.08.32.07.49h-2.49c0-.17.03-.34.09-.49Z"
  ></path>
  <path
   d="m90.32,5.57c0,.95.43,1.34,1.51,1.34.18,0,.35-.02.53-.05v-.81c-.12.01-.25.02-.37.02-.48,0-.7-.23-.7-.75v-2.55h1.07v-.82h-1.07V.7h-.97v1.25h-.78v.82h.78v2.8Z"
  ></path>
  <path
   d="m108.75,19.78v-.7c0-3.02-1.72-4.91-4.46-4.91s-4.58,2.02-4.58,5.15,1.79,5.05,4.66,5.05c2.24,0,3.99-1.24,4.26-3.05h-1.93c-.18.45-.5.83-.91,1.08-.41.25-.89.36-1.37.32-.36.01-.73-.05-1.07-.19-.34-.14-.64-.35-.9-.62-.25-.27-.44-.58-.57-.93-.12-.35-.17-.72-.13-1.08v-.12h6.99Zm-6.79-2.4c.13-.31.31-.59.55-.82.23-.23.51-.42.82-.55.31-.13.63-.19.96-.19.33,0,.65.05.96.18.3.13.58.31.8.55.23.24.4.52.52.83.11.31.16.64.15.97h-4.95c0-.33.06-.66.19-.97Z"
  ></path>
  <path
   d="m83.78,2.73c.72,0,1.06.4,1.06,1.19v2.96h.97v-3.2c.04-.24.02-.48-.05-.71-.07-.23-.19-.44-.36-.62-.16-.18-.36-.31-.59-.4-.22-.09-.46-.12-.7-.11-.31-.02-.61.05-.87.2-.26.16-.47.39-.59.68h-.07v-.79h-.93v4.95h.97v-2.9c-.02-.16,0-.33.05-.48.05-.16.14-.3.25-.42.11-.12.25-.21.4-.27.15-.06.31-.09.48-.08Z"
  ></path>
  <path
   d="m51.16,6.88h.97v-3.2c.04-.24.02-.48-.05-.71-.07-.23-.19-.44-.36-.62-.16-.18-.36-.31-.59-.4-.22-.09-.46-.12-.7-.11-.31-.02-.61.05-.87.2-.26.16-.47.39-.59.68h-.07v-.79h-.93v4.95h.97v-2.9c-.02-.16,0-.33.05-.48.05-.16.14-.3.25-.42.11-.12.25-.21.4-.27.15-.06.31-.09.48-.08.72,0,1.06.4,1.06,1.19v2.96Z"
  ></path>
  <path
   d="m78.01,6.98c.33,0,.65-.07.94-.2.3-.13.56-.33.78-.57.22-.24.38-.53.49-.84.1-.31.14-.64.11-.97.03-.33,0-.65-.11-.96-.1-.31-.27-.6-.49-.84-.22-.24-.48-.43-.78-.57-.3-.13-.62-.2-.94-.2s-.65.07-.94.2c-.3.13-.56.33-.78.57s-.38.53-.49.84c-.1.31-.14.64-.11.96-.03.33,0,.65.11.97.1.31.27.6.49.84.22.24.49.44.78.57.3.13.62.2.94.2Zm0-4.27c.84,0,1.32.63,1.32,1.7s-.48,1.7-1.32,1.7-1.32-.62-1.32-1.7.47-1.7,1.32-1.7Z"
  ></path>
  <path
   d="m56.1,14.19c-.63-.02-1.26.13-1.82.44-.55.31-1.02.77-1.33,1.32h-.04v-1.66h-1.97v13.24h2.03v-4.93h.05c.3.55.76,1.01,1.31,1.32.55.31,1.18.45,1.81.42,2.48,0,4.13-1.99,4.13-5.08s-1.66-5.08-4.17-5.08Zm-.54,8.43c-1.55,0-2.6-1.34-2.6-3.35s1.04-3.34,2.6-3.34,2.61,1.32,2.61,3.34-1.04,3.35-2.61,3.35Z"
  ></path>
  <path
   d="m80.18,11.94h-2.04v2.36h-1.44v1.62h1.44v5.7c0,1.93.78,2.69,2.78,2.69.38,0,.76-.02,1.13-.09v-1.61c-.22.03-.44.04-.67.05-.83,0-1.2-.4-1.2-1.25v-5.49h1.88v-1.62h-1.88v-2.36Z"
  ></path>
  <path
   d="m60.05,2.6c-.22-.24-.48-.44-.78-.57-.3-.13-.62-.2-.94-.2s-.65.07-.94.2c-.3.13-.56.33-.78.57-.22.24-.38.53-.49.84-.1.31-.14.64-.11.96-.03.33,0,.65.11.96s.27.6.49.84c.22.24.49.44.78.57.3.13.62.2.94.2s.65-.07.94-.2c.3-.13.56-.33.78-.57.22-.24.38-.53.49-.84s.14-.64.11-.96c.03-.33,0-.65-.11-.96-.1-.31-.27-.6-.49-.84Zm-1.72,3.5c-.84,0-1.32-.62-1.32-1.7s.47-1.7,1.32-1.7,1.32.63,1.32,1.7-.48,1.7-1.32,1.7Z"
  ></path>
  <path
   d="m94.66,3.99c-.01-.17,0-.34.06-.5s.15-.3.27-.42c.12-.12.26-.21.42-.27.16-.06.32-.08.49-.07.69,0,1.05.4,1.05,1.19v2.95h.97v-3.2c.03-.24.01-.48-.06-.71-.07-.23-.19-.44-.36-.62-.16-.18-.36-.31-.58-.4-.22-.09-.46-.13-.7-.12-.31-.03-.62.05-.89.2s-.48.4-.61.68h-.08V0h-.96v6.88h.97v-2.89Z"
  ></path>
  <path
   d="m38.7,2.6c-.22-.24-.48-.43-.78-.57-.3-.13-.62-.2-.94-.2s-.65.07-.94.2c-.3.13-.56.33-.78.57s-.38.53-.49.84c-.1.31-.14.64-.11.96-.03.33,0,.65.11.97.1.31.27.6.49.84.22.24.49.44.78.57.3.13.62.2.94.2s.65-.07.94-.2c.3-.13.56-.33.78-.57.22-.24.38-.53.49-.84.1-.31.14-.64.11-.97.03-.33,0-.65-.11-.96-.1-.31-.27-.6-.49-.84Zm-1.72,3.5c-.84,0-1.32-.62-1.32-1.7s.47-1.7,1.32-1.7,1.32.63,1.32,1.7-.48,1.7-1.32,1.7Z"
  ></path>
  <path
   d="m31.62,10.6l-4.9,13.65h2.19l1.24-3.69h5.17l1.24,3.69h2.23l-4.9-13.65h-2.28Zm-.93,8.26l2.02-5.99h.06l2.02,5.99h-4.1Z"
  ></path>
  <path
   d="m45.22,14.19c-.63-.02-1.26.13-1.82.44-.55.31-1.02.77-1.33,1.32h-.04v-1.66h-1.97v13.24h2.03v-4.93h.05c.3.55.76,1.01,1.31,1.32.55.31,1.18.45,1.81.42,2.48,0,4.13-1.99,4.13-5.08s-1.66-5.08-4.17-5.08Zm-.54,8.43c-1.55,0-2.6-1.34-2.6-3.35s1.04-3.34,2.6-3.34,2.61,1.32,2.61,3.34-1.04,3.35-2.61,3.35Z"
  ></path>
  <path
   d="m87.85,14.17c-2.86,0-4.69,1.97-4.69,5.1s1.82,5.1,4.69,5.1,4.69-1.96,4.69-5.1-1.82-5.1-4.69-5.1Zm0,8.51c-1.65,0-2.62-1.26-2.62-3.41s.98-3.42,2.62-3.42,2.62,1.27,2.62,3.42-.98,3.41-2.62,3.41Z"
  ></path>
  <polygon
   points="42.35 6.88 43.36 3.24 43.44 3.24 44.45 6.88 45.46 6.88 46.81 1.93 45.84 1.93 44.97 5.71 44.89 5.71 43.88 1.93 42.95 1.93 41.93 5.71 41.86 5.71 40.98 1.93 39.99 1.93 41.35 6.88 42.35 6.88"
  ></polygon>
 </g>
 <g id="logo-binance" viewBox="0 0 192.25 38.63">
  <rect
   x="31.2"
   y="16.23"
   width="6.17"
   height="6.17"
   transform="translate(-3.61 29.9) rotate(-45)"
  ></rect>
  <rect
   x="1.28"
   y="16.24"
   width="6.17"
   height="6.17"
   transform="translate(-12.38 8.74) rotate(-45)"
  ></rect>
  <polygon
   points="19.32 8.72 26.8 16.2 31.16 11.84 19.32 0 7.48 11.84 11.84 16.2 19.32 8.72"
  ></polygon>
  <rect
   x="16.24"
   y="16.24"
   width="6.17"
   height="6.17"
   transform="translate(-8 19.32) rotate(-45)"
  ></rect>
  <polygon
   points="19.32 29.91 11.84 22.43 7.48 26.79 19.32 38.63 31.16 26.79 26.8 22.43 19.32 29.91"
  ></polygon>
  <polygon
   points="143.66 21.77 133.73 8.72 129.43 8.72 129.43 29.91 134.03 29.91 134.03 16.44 144.29 29.91 148.27 29.91 148.28 29.92 148.28 8.72 143.66 8.72 143.66 21.77"
  ></polygon>
  <path
   d="m163.82,25.98c-3.63,0-6.15-3.02-6.15-6.66v-.06c0-3.63,2.57-6.6,6.15-6.6,2.12,0,3.77.91,5.42,2.39l2.96-3.42c-1.97-1.94-4.36-3.27-8.35-3.27-6.51,0-11.05,4.93-11.05,10.95v.06c0,6.09,4.63,10.9,10.87,10.9,4.08.01,6.5-1.44,8.68-3.77l-2.96-3c-1.67,1.51-3.15,2.48-5.57,2.48Z"
  ></path>
  <polygon
   points="180.73 25.77 180.73 21.31 190.72 21.31 190.72 17.16 180.73 17.16 180.73 12.88 192.09 12.88 192.09 8.73 176.1 8.73 176.1 29.92 192.25 29.92 192.25 25.77 180.73 25.77"
  ></polygon>
  <polygon
   points="95.6 21.77 85.67 8.72 81.37 8.72 81.37 29.91 85.97 29.91 85.97 16.44 96.23 29.91 100.21 29.91 100.22 29.92 100.22 8.72 95.6 8.72 95.6 21.77"
  ></polygon>
  <rect x="70.48" y="8.72" width="4.68" height="21.19"></rect>
  <path
   d="m65.38,24.04c0-2.85-1.51-4.27-3.97-5.21,1.51-.85,2.79-2.18,2.79-4.57v-.06c0-3.33-2.67-5.48-7-5.48h-9.83v21.19h10.08c4.78,0,7.94-1.94,7.94-5.81h0v-.06Zm-13.46-11.23h4.6c1.97,0,3.06.79,3.06,2.18v.05h0c0,1.57-1.3,2.24-3.36,2.24h-4.29v-4.47Zm8.83,10.71h-.01c0,1.57-1.24,2.3-3.3,2.3h-5.53v-4.65h5.39c2.39,0,3.45.88,3.45,2.3v.05Z"
  ></path>
  <path
   d="m112.65,8.57l-9.08,21.35h4.75l1.94-4.75h8.96l1.94,4.75h4.89l-9.1-21.35h-4.3Zm-.72,12.48l2.82-6.87,2.83,6.87h-5.65Z"
  ></path>
 </g>
 <g id="logo-coinbase" viewBox="0 0 189.01 41.25">
  <rect x="52.52" y="14.18" width="5.92" height="26.46"></rect>
  <path
   d="m35.08,13.57c-7.89,0-13.64,5.67-13.64,13.86s5.67,13.81,13.62,13.81,13.7-5.57,13.7-13.81-5.75-13.86-13.68-13.86Zm0,22.6c-4.42,0-7.65-3.37-7.65-8.74s3.22-8.79,7.65-8.79,7.72,3.47,7.72,8.79-3.3,8.74-7.72,8.74Z"
  ></path>
  <polygon points="35.07 13.57 35.08 13.57 35.08 13.57 35.07 13.57"></polygon>
  <path
   d="m14.71,36.05h0c-5.15,0-8.73-3.37-8.73-8.63,0-5.56,3.7-8.6,8.47-8.6,1.41,0,2.77.24,4.09.76l2.52-4.25c-2.18-1.16-4.37-1.76-7.13-1.76C6.14,13.57,0,18.94,0,27.43s5.86,13.83,13.94,13.81c2.65.04,5.25-.59,7.58-1.84-.05-.01-2.68-4.09-2.68-4.14-1.29.52-2.67.79-4.13.79Z"
  ></path>
  <path
   d="m55.44,2.55c-.94,0-1.85.35-2.54,1-.69.64-1.11,1.53-1.17,2.47h.02c0,.99.39,1.94,1.08,2.65.69.7,1.63,1.11,2.62,1.13.99-.02,1.93-.42,2.62-1.13.69-.71,1.08-1.66,1.08-2.65-.06-.94-.48-1.82-1.17-2.47-.69-.64-1.6-1-2.54-1Z"
  ></path>
  <path
   d="m189.01,28.76v-2.99c0-7.23-3.64-12.19-11.36-12.19-7.29,0-12.79,5.69-12.79,14.05s5.61,13.62,13.86,13.62c3.4,0,6.93-.77,9.32-2.46v-5.2c-2.63,1.73-5.26,2.58-8.9,2.58-4.14,0-8.19-2.58-8.55-7.31v-.1h18.42Zm-11.56-10.23c3.83,0,5.86,2.26,5.99,6.39h-12.68c.78-4,3.29-6.39,6.69-6.39Z"
  ></path>
  <path
   d="m153.8,24.8c-3.05-.85-4.17-1.73-4.17-3.46s1.37-2.99,3.94-2.99c2.7.05,5.31,1,7.42,2.68v-5.43c-2.22-1.38-4.6-2.03-7.59-2.03-5.39,0-9.45,2.63-9.45,8,0,4.61,2.32,6.82,7.83,8.08,3.4.9,4.96,1.74,4.96,3.83s-1.73,2.99-4.36,2.99c-2.94-.11-5.77-1.16-8.08-2.99v5.61c2.48,1.46,5.31,2.2,8.19,2.14,5.73,0,9.97-2.5,9.97-8.08,0-4.77-2.61-7.04-8.66-8.35Z"
  ></path>
  <polygon points="144.29 33.47 144.3 33.48 144.3 33.47 144.29 33.47"></polygon>
  <path
   d="m130.08,13.58c-3-.03-5.96.71-8.6,2.14v5.15c2.21-1.26,4.71-2.16,7.64-2.16s5.1,1.32,5.1,4.19h-.02v2.2h-2.93c-7.65,0-12.25,2.63-12.25,8.02,0,5.98,5.02,8.06,11.89,8.06,2.99,0,6.57-.41,9.09-1.07v-17.51c0-6.63-4.12-9.02-9.92-9.02Zm4.13,15.48v7.42c-1.07.17-2.33.28-3.23.28-3.58,0-6.1-1.11-6.1-3.81s2.69-3.91,6.82-3.91h2.53l-.02.02Z"
  ></path>
  <path
   d="m75.74,13.56c-4.15.04-8.25.81-12.13,2.27h0s.02.01.02.01v24.77h5.91v-20.9c1.56-.49,3.66-.77,5.75-.77,3.29,0,5.67,1.37,5.67,5.2v16.49h5.84v-17.04c0-7.46-4.29-10.03-11.06-10.03Z"
  ></path>
  <path
   d="m103.71,13.57c-2.33,0-4.77.65-6.03,1.31V0h-5.93v39.52c2.7.94,6.05,1.73,9.88,1.73,9.8,0,15.47-5.78,15.47-14.29s-5.74-13.39-13.39-13.39Zm-1.9,22.61c-1.5,0-3-.19-4.13-.55v-15.47c1.19-.66,2.99-1.26,5.32-1.26,4.48,0,8.13,3.04,8.13,8.19,0,6.1-3.89,9.09-9.32,9.09Z"
  ></path>
 </g>
 <g id="logo-dropbox" viewBox="0 0 192.25 37.86">
  <polygon
   points="33.41 0 22.31 7.13 33.47 14.19 22.32 21.31 33.41 28.48 44.57 21.36 33.41 14.24 44.57 7.12 33.41 0"
  ></polygon>
  <polygon
   points="11.15 28.48 22.31 21.36 11.15 14.24 22.31 7.12 22.32 7.12 11.16 0 0 7.12 11.16 14.18 0 21.3 11.15 28.48"
  ></polygon>
  <polygon points="11.1 30.74 22.26 37.86 33.42 30.74 22.26 23.62 11.1 30.74"></polygon>
  <polygon points="22.31 21.31 22.32 21.31 22.31 21.3 22.31 21.31"></polygon>
  <path
   d="m62.3,7.12h-9.02v23.62h9.2c5.87,0,10.32-3.45,10.32-11.1v-1.6c0-7.6-4.74-10.92-10.5-10.92Zm5.34,12.4c0,4.74-2.2,6.88-5.46,6.88h-3.86v-15.01h3.68c3.33,0,5.64,2.13,5.64,6.88v1.25Z"
  ></path>
  <polygon
   points="185.07 20.78 191.89 11.64 186.19 11.64 182.27 17.4 178.41 11.64 172.65 11.64 179.36 20.84 179.38 20.84 172.08 30.75 177.95 30.75 182.22 24.4 186.61 30.75 192.25 30.75 185.07 20.78"
  ></polygon>
  <path
   d="m80.15,16.08l-.65-4.45h-3.97v19.16h4.98v-8.78c0-4.04,1.01-5.46,5.1-5.46h2.08v-5.1h-1.25c-3.56,0-5.52,1.6-6.29,4.63Z"
  ></path>
  <path
   d="m143.4,11.15c-3.03,0-5.16,1.37-6.23,3.86V5.22h-4.87v25.52h4.27l.42-3.5h0c1.01,2.48,3.09,3.96,6.29,4.02,4.87,0,8.07-3.62,8.07-9.97v-.59c0-6.35-3.38-9.49-7.95-9.55Zm2.85,10.16h0c0,3.81-1.72,5.65-4.63,5.65-2.73,0-4.57-2.08-4.57-5.64v-.42c0-3.32,1.96-5.52,4.63-5.52s4.57,1.96,4.57,5.46v.47Z"
  ></path>
  <path
   d="m172.83,21.08c0-6.41-4.09-9.91-9.67-9.91s-9.67,3.5-9.67,9.91v.53c0,6.29,3.5,9.61,9.67,9.67,5.75,0,9.67-3.38,9.67-9.67v-.53Zm-5.04.47c0,3.44-1.78,5.34-4.63,5.4-2.85,0-4.63-1.96-4.63-5.4v-.47c0-3.74,1.78-5.7,4.63-5.7s4.63,2.14,4.63,5.7v.47Z"
  ></path>
  <path
   d="m98.37,11.16c-5.58,0-9.67,3.5-9.67,9.91v.53c0,6.29,3.5,9.61,9.67,9.67,5.81,0,9.67-3.38,9.67-9.67v-.53c0-6.41-4.09-9.91-9.67-9.91Zm4.57,10.38c0,3.44-1.78,5.34-4.63,5.4-2.85,0-4.63-1.96-4.63-5.4v-.47c0-3.74,1.78-5.7,4.63-5.7s4.63,2.14,4.63,5.7v.47Z"
  ></path>
  <path
   d="m121.56,11.16c-3.15,0-5.28,1.66-6.29,4.09l-.47-3.62h-4.16l-.06,25.75h4.87v-9.67c1.01,2.2,3.08,3.56,6.11,3.56,4.51,0,8.07-3.32,8.07-9.61v-.53c0-6.47-3.2-9.97-8.07-9.97Zm3.03,10.38c0,3.56-1.78,5.4-4.63,5.46-2.79,0-4.57-2.14-4.57-5.52v-.36c0-3.56,1.84-5.7,4.63-5.7,2.61,0,4.57,1.9,4.57,5.7v.42Z"
  ></path>
 </g>
 <g id="logo-google-play" viewBox="0 0 74.26 24.18">
  <g>
   <path
    d="m15.64,13.22c-2.05,0-3.72,1.57-3.72,3.73s1.67,3.73,3.72,3.73,3.72-1.59,3.72-3.73-1.67-3.73-3.72-3.73Zm0,6c-1.12,0-2.09-.94-2.09-2.27s.97-2.27,2.09-2.27,2.09.92,2.09,2.27-.97,2.27-2.09,2.27Z"
   ></path>
   <path
    d="m15.64,20.82c-2.16,0-3.86-1.7-3.86-3.87s1.66-3.87,3.86-3.87,3.85,1.7,3.85,3.87-1.69,3.87-3.85,3.87Zm0-7.47c-2.04,0-3.59,1.55-3.59,3.6s1.54,3.6,3.59,3.6,3.59-1.58,3.59-3.6-1.58-3.6-3.59-3.6Zm0,6c-1.25,0-2.23-1.05-2.23-2.4s.98-2.4,2.23-2.4,2.23,1.05,2.23,2.4-.98,2.4-2.23,2.4Zm0-4.53c-1.1,0-1.96.94-1.96,2.13s.86,2.13,1.96,2.13,1.96-.92,1.96-2.13-.84-2.13-1.96-2.13Z"
   ></path>
  </g>
  <g>
   <path
    d="m5.98,14.37v1.58h3.77c-.11.89-.41,1.54-.86,2-.55.55-1.41,1.16-2.91,1.16-2.31,0-4.13-1.88-4.13-4.22s1.81-4.22,4.13-4.22c1.25,0,2.16.49,2.84,1.13l1.11-1.12c-.94-.9-2.19-1.6-3.95-1.6C2.8,9.09.13,11.69.13,14.89s2.67,5.8,5.85,5.8c1.71,0,3.01-.57,4.01-1.63,1.04-1.05,1.36-2.52,1.36-3.71,0-.37-.03-.7-.09-.99h-5.29Z"
   ></path>
   <path
    d="m5.98,20.83c-3.3,0-5.98-2.66-5.98-5.94s2.68-5.94,5.98-5.94c1.57,0,2.89.54,4.04,1.64l.1.1-1.3,1.31-.1-.09c-.77-.73-1.69-1.1-2.75-1.1-2.24,0-3.99,1.79-3.99,4.08s1.75,4.08,3.99,4.08c1.53,0,2.34-.64,2.81-1.12.41-.42.68-1.01.8-1.77h-3.75v-1.85h5.53l.02.11c.06.28.09.62.09,1.01,0,.89-.18,2.58-1.4,3.8-1.06,1.12-2.41,1.67-4.11,1.67Zm0-11.6C2.83,9.23.27,11.77.27,14.9s2.56,5.67,5.71,5.67c1.62,0,2.9-.52,3.92-1.58,1.15-1.16,1.32-2.76,1.32-3.62,0-.33-.02-.61-.06-.85h-5.04v1.31h3.78l-.02.15c-.11.89-.41,1.59-.9,2.07-.51.51-1.38,1.2-3.01,1.2-2.39,0-4.26-1.91-4.26-4.35s1.87-4.35,4.26-4.35c1.08,0,2.03.36,2.83,1.08l.92-.93c-1.07-.99-2.3-1.47-3.76-1.47Z"
   ></path>
  </g>
  <g>
   <polygon points="5.97 14.37 5.98 14.37 5.98 14.37 5.97 14.37"></polygon>
   <polygon points="5.98 14.51 5.67 14.51 6.12 14.02 6.12 14.5 5.98 14.51"></polygon>
  </g>
  <g>
   <path
    d="m23.76,13.22c-2.05,0-3.72,1.57-3.72,3.73s1.67,3.73,3.72,3.73,3.72-1.59,3.72-3.73-1.67-3.73-3.72-3.73Zm0,6c-1.12,0-2.09-.94-2.09-2.27s.97-2.27,2.09-2.27,2.09.92,2.09,2.27-.97,2.27-2.09,2.27Z"
   ></path>
   <path
    d="m23.76,20.82c-2.16,0-3.86-1.7-3.86-3.87s1.66-3.87,3.86-3.87,3.86,1.7,3.86,3.87-1.69,3.87-3.86,3.87Zm0-7.47c-2.04,0-3.59,1.55-3.59,3.6s1.54,3.6,3.59,3.6,3.59-1.58,3.59-3.6-1.58-3.6-3.59-3.6Zm0,6c-1.25,0-2.23-1.05-2.23-2.4s.98-2.4,2.23-2.4,2.23,1.05,2.23,2.4-.98,2.4-2.23,2.4Zm0-4.53c-1.1,0-1.96.94-1.96,2.13s.86,2.13,1.96,2.13,1.96-.92,1.96-2.13-.84-2.13-1.96-2.13Z"
   ></path>
  </g>
  <g>
   <rect x="36.4" y="9.49" width="1.63" height="10.98"></rect>
   <path d="m38.16,20.6h-1.9v-11.25h1.9v11.25Zm-1.63-.27h1.36v-10.71h-1.36v10.71Z"></path>
  </g>
  <g>
   <path
    d="m63.22,13.2h0c-1.18,0-2.4.52-2.9,1.68l1.45.61c.31-.61.88-.8,1.48-.8.84,0,1.69.51,1.71,1.41v.11c-.29-.17-.93-.42-1.69-.42-1.56,0-3.14.86-3.14,2.47,0,1.47,1.28,2.42,2.71,2.42,1.09,0,1.7-.49,2.07-1.07h.06v.85h1.57v-4.21c0-1.95-1.45-3.04-3.31-3.04Zm-.2,6.02c-.53,0-1.28-.27-1.28-.94,0-.85.93-1.17,1.73-1.17.71,0,1.05.16,1.48.37-.12,1.01-.99,1.74-1.94,1.74Z"
   ></path>
   <path
    d="m62.83,20.81c-1.62,0-2.84-1.1-2.84-2.55,0-1.71,1.65-2.6,3.27-2.6.62,0,1.17.16,1.55.33-.09-.75-.85-1.16-1.57-1.16-.66,0-1.12.25-1.36.73l-.06.11-1.69-.71.05-.12c.56-1.3,1.93-1.76,3.03-1.76h0c2.06,0,3.44,1.27,3.44,3.17v4.34h-1.84v-.65c-.48.58-1.15.87-2,.87Zm.43-4.89c-1.49,0-3,.8-3,2.33s1.33,2.28,2.57,2.28c.88,0,1.52-.33,1.96-1.01l.04-.06h.27v.85h1.3v-4.07c0-1.76-1.25-2.9-3.17-2.9h0c-.97,0-2.18.39-2.72,1.47l1.2.5c.3-.5.84-.77,1.54-.77.88,0,1.83.54,1.85,1.54v.35l-.2-.12c-.32-.19-.93-.4-1.62-.4Zm-.24,3.44c-.68,0-1.41-.38-1.41-1.07,0-.9.93-1.31,1.86-1.31.76,0,1.12.18,1.54.38l.09.04v.1c-.14,1.06-1.03,1.86-2.08,1.86Zm.45-2.11c-.59,0-1.59.22-1.59,1.04,0,.58.7.8,1.14.8.87,0,1.63-.66,1.79-1.53-.37-.18-.69-.31-1.34-.31Z"
   ></path>
  </g>
  <g>
   <rect x="57.59" y="9.49" width="1.63" height="10.98"></rect>
   <path d="m59.35,20.6h-1.9v-11.25h1.9v11.25Zm-1.63-.27h1.36v-10.71h-1.36v10.71Z"></path>
  </g>
  <g>
   <path
    d="m33.73,14.05h0s-.06,0-.06,0c-.37-.44-1.07-.84-1.96-.84-1.86,0-3.55,1.64-3.55,3.75s1.7,3.72,3.55,3.72c.88,0,1.59-.4,1.96-.85h.06v.54c0,1.43-.76,2.19-1.98,2.19-.99,0-1.62-.72-1.87-1.33l-1.42.59c.41.99,1.49,2.21,3.29,2.21,1.91,0,3.52-1.13,3.52-3.89v-6.7h-1.54v.61Zm-1.87,5.17c-1.12,0-2.07-.95-2.07-2.25s.94-2.28,2.07-2.28,1.98.96,1.98,2.28-.87,2.25-1.98,2.25Z"
   ></path>
   <path
    d="m31.75,24.18c-1.83,0-2.98-1.23-3.41-2.29l-.05-.12,1.67-.7.05.12c.25.6.85,1.25,1.75,1.25,1.17,0,1.85-.75,1.85-2.06v-.26c-.39.37-1.04.71-1.88.71-2,0-3.69-1.77-3.69-3.86s1.69-3.88,3.69-3.88c.83,0,1.49.33,1.88.7v-.47h1.81v6.84c0,2.52-1.37,4.03-3.66,4.03Zm-3.11-2.27c.44.95,1.49,2,3.11,2,1.02,0,3.39-.37,3.39-3.76v-6.57h-1.27v.61h-.26l-.04-.05c-.32-.38-.97-.79-1.85-.79-1.85,0-3.42,1.66-3.42,3.61s1.56,3.59,3.42,3.59c.89,0,1.54-.41,1.85-.8l.04-.05h.26v.67c0,1.46-.79,2.33-2.12,2.33-.97,0-1.62-.64-1.94-1.29l-1.17.49Zm3.22-2.55c-1.23,0-2.2-1.05-2.2-2.39s.97-2.41,2.2-2.41,2.12,1.04,2.12,2.41-.91,2.39-2.12,2.39Zm0-4.53c-1.08,0-1.93.94-1.93,2.14s.85,2.12,1.93,2.12,1.85-.91,1.85-2.12-.79-2.14-1.85-2.14Z"
   ></path>
  </g>
  <g>
   <polygon
    points="72.25 13.45 70.38 18.21 70.32 18.21 68.39 13.45 66.64 13.45 69.54 20.1 67.88 23.8 69.58 23.8 74.05 13.45 72.25 13.45"
   ></polygon>
   <path
    d="m69.67,23.93h-1.99l1.71-3.84-2.96-6.79h2.05l1.87,4.61,1.8-4.61h2.1l-.08.19-4.51,10.43Zm-1.57-.27h1.4l4.36-10.08h-1.51l-1.86,4.76h-.24l-1.94-4.76h-1.46l2.84,6.52-.02.05-1.57,3.51Z"
   ></path>
  </g>
  <g>
   <path
    d="m45.49,15.6h0c-.31-.84-1.25-2.38-3.17-2.38s-3.5,1.51-3.5,3.73c0,2.09,1.58,3.73,3.68,3.73,1.7,0,2.68-1.05,3.09-1.65l-1.26-.85c-.42.63-.99,1.03-1.82,1.03s-1.42-.38-1.8-1.13l4.96-2.07-.17-.42Zm-5.06,1.24c-.04-1.44,1.11-2.18,1.94-2.18.65,0,1.2.32,1.38.79l-3.32,1.39Z"
   ></path>
   <path
    d="m42.49,20.82c-2.18,0-3.82-1.66-3.82-3.87s1.56-3.87,3.63-3.87,3.06,1.86,3.27,2.39l.03.07.22.55-4.94,2.06c.36.63.89.93,1.61.93s1.27-.32,1.71-.97l.08-.11,1.49,1-.08.11c-.35.51-1.36,1.71-3.2,1.71Zm-.18-7.47c-1.92,0-3.36,1.55-3.36,3.6s1.53,3.6,3.55,3.6c1.59,0,2.52-.96,2.9-1.48l-1.04-.7c-.48.65-1.1.98-1.86.98-.87,0-1.51-.41-1.92-1.21l-.07-.13,4.97-2.07-.13-.3c-.14-.38-.95-2.29-3.04-2.29Zm-2.01,3.69v-.2c-.03-.83.32-1.37.62-1.67.39-.4.95-.65,1.45-.65.7,0,1.3.35,1.51.88l.05.12-3.62,1.52Zm2.07-2.25c-.43,0-.91.22-1.25.57-.24.24-.51.65-.54,1.27l3-1.25c-.21-.36-.67-.59-1.2-.59Z"
   ></path>
  </g>
  <g>
   <path
    d="m53.12,9.49h-3.9v10.98h1.63v-4.16h2.27c1.8,0,3.58-1.32,3.58-3.41s-1.77-3.41-3.58-3.41Zm.04,5.3h0s-2.31,0-2.31,0v-3.76h2.31c1.22,0,1.91,1.01,1.91,1.88s-.69,1.88-1.91,1.88Z"
   ></path>
   <path
    d="m50.98,20.6h-1.9v-11.25h4.03c1.83,0,3.71,1.33,3.71,3.55s-1.89,3.55-3.71,3.55h-2.13v4.16Zm-1.63-.27h1.36v-4.16h2.4c1.69,0,3.44-1.23,3.44-3.28s-1.75-3.28-3.44-3.28h-3.76v10.71Zm3.8-5.41h-2.45v-4.04h2.45c1.26,0,2.04,1.05,2.04,2.02s-.78,2.02-2.04,2.02Zm-2.18-.28h2.31c1.02-.07,1.64-.94,1.64-1.74s-.68-1.75-1.77-1.75h-2.18v3.49Z"
   ></path>
  </g>
  <g>
   <path
    d="m26.63,5.67c.77,0,1.4-.26,1.92-.8.52-.53.78-1.18.78-1.96s-.26-1.43-.78-1.96c-.52-.54-1.16-.8-1.92-.8s-1.4.26-1.92.8c-.52.53-.78,1.18-.78,1.96s.26,1.44.78,1.96c.52.53,1.16.8,1.92.8Zm-1.43-4.27c.39-.4.86-.6,1.44-.6s1.05.2,1.43.6c.39.39.58.9.58,1.51s-.19,1.12-.58,1.51c-.38.4-.86.6-1.43.6s-1.05-.2-1.44-.6c-.38-.4-.57-.9-.57-1.51s.19-1.11.57-1.51Z"
   ></path>
   <path
    d="m26.63,5.8c-.81,0-1.47-.27-2.02-.84-.54-.54-.82-1.23-.82-2.06s.27-1.51.82-2.06C25.16.29,25.82.01,26.63.01s1.47.28,2.02.84c.55.55.82,1.22.82,2.05s-.27,1.51-.82,2.06c-.55.56-1.21.84-2.02.84Zm0-5.52c-.73,0-1.33.25-1.83.76-.5.5-.74,1.11-.74,1.87s.25,1.38.74,1.87c.5.51,1.1.76,1.83.76s1.33-.25,1.83-.76c.5-.5.74-1.11.74-1.87s-.24-1.36-.74-1.86c-.5-.51-1.1-.76-1.83-.76Zm0,4.87c-.61,0-1.11-.21-1.54-.64-.4-.43-.61-.97-.61-1.61s.2-1.18.61-1.61h0c.42-.43.93-.64,1.54-.64s1.11.21,1.53.64c.41.41.62.96.62,1.61s-.21,1.19-.62,1.61c-.41.42-.92.64-1.53.64Zm-1.34-3.67c-.36.38-.53.84-.53,1.42s.17,1.04.53,1.42c.37.37.81.56,1.34.56s.98-.19,1.33-.56c.37-.37.54-.83.54-1.42s-.18-1.06-.54-1.42c-.36-.38-.8-.56-1.34-.56s-.97.18-1.34.56Z"
   ></path>
  </g>
  <g>
   <polygon
    points="30.93 2.26 30.91 1.23 30.93 1.23 33.6 5.55 34.31 5.55 34.31 .25 33.63 .25 33.63 3.35 33.66 4.37 33.63 4.37 31.08 .26 30.26 .26 30.26 5.54 30.93 5.54 30.93 2.26"
   ></polygon>
   <path
    d="m34.44,5.68h-.92l-2.47-4v.57s.01,3.42.01,3.42h-.94V.13h1.03l2.35,3.79v-.57s-.01-3.23-.01-3.23h.94v5.56Zm-.77-.27h.5V.39h-.4v2.96l.03,1.16h-.21l-.07-.06L31.01.4h-.61v5.01h.4v-3.15l-.03-1.16h.21l.07.06,2.63,4.25Z"
   ></path>
  </g>
  <g>
   <rect x="16.62" y=".26" width=".67" height="5.28"></rect>
   <path d="m17.43,5.68h-.94V.13h.94v5.55Zm-.67-.27h.4V.4h-.4v5.01Z"></path>
  </g>
  <g>
   <polygon points="5.68 2.71 5.68 2.72 5.69 2.72 5.68 2.71"></polygon>
   <polygon points="6.01 2.85 5.58 2.85 5.55 2.74 5.46 2.31 6.01 2.85"></polygon>
  </g>
  <g>
   <polygon
    points="9.74 4.89 7.35 4.89 7.35 3.21 9.51 3.21 9.51 2.58 7.35 2.58 7.35 .91 9.74 .91 9.74 .25 6.67 .25 6.67 .26 6.67 5.54 9.74 5.54 9.74 4.89"
   ></polygon>
   <path
    d="m9.88,5.68h-3.34V.13h.13s3.2,0,3.2,0v.92h-2.39v1.4h2.16v.9h-2.16v1.41h2.39v.92Zm-3.07-.27h2.8v-.38h-2.39v-1.95h2.16v-.36h-2.16V.77h2.39v-.38h-2.8v5.02Z"
   ></path>
  </g>
  <g>
   <polygon
    points="20.28 5.54 20.28 .91 21.75 .91 21.75 .25 18.14 .25 18.14 .91 19.61 .91 19.61 5.54 20.28 5.54"
   ></polygon>
   <path
    d="m20.42,5.68h-.94V1.04h-1.46V.12h3.87v.92h-1.46v4.64Zm-.67-.27h.4V.77h1.46v-.38h-3.33v.38h1.46v4.64Z"
   ></path>
  </g>
  <g>
   <polygon
    points="12.57 5.54 12.57 .91 14.03 .91 14.03 .25 10.43 .25 10.43 .91 11.89 .91 11.89 5.54 12.57 5.54"
   ></polygon>
   <path
    d="m12.7,5.68h-.94V1.04h-1.46V.12h3.87v.92h-1.46v4.64Zm-.67-.27h.4V.77h1.46v-.38h-3.33v.38h1.46v4.64Z"
   ></path>
  </g>
  <g>
   <path
    d="m3.14,5.65c.8,0,1.44-.26,1.93-.78.43-.43.65-1.03.65-1.77,0-.12-.01-.25-.04-.39h-2.54v.63h1.9c-.05.52-.26.92-.6,1.22s-.78.44-1.31.44c-.57,0-1.05-.2-1.45-.6-.39-.41-.59-.91-.59-1.51s.2-1.11.59-1.51c.4-.4.88-.6,1.45-.6.29,0,.58.05.83.16.26.11.46.26.62.47l.48-.49c-.22-.25-.5-.44-.84-.59-.35-.14-.71-.2-1.09-.2-.76,0-1.41.26-1.94.8-.53.53-.79,1.19-.79,1.96s.26,1.44.79,1.96c.53.53,1.17.8,1.94.8Z"
   ></path>
   <path
    d="m3.14,5.79c-.8,0-1.48-.28-2.03-.84-.55-.55-.83-1.24-.83-2.06s.28-1.5.83-2.06c.55-.56,1.23-.84,2.03-.84.41,0,.78.07,1.14.21.37.15.66.36.89.62l.08.09-.68.69-.09-.12c-.14-.18-.32-.32-.57-.43-.23-.1-.49-.15-.78-.15-.52,0-.98.19-1.36.56-.37.38-.55.85-.55,1.42s.18,1.03.55,1.42c.37.37.81.56,1.35.56.49,0,.9-.14,1.22-.41.29-.25.47-.57.54-.98h-1.88v-.9h2.79l.02.11c.03.15.04.29.04.41,0,.77-.23,1.4-.69,1.86-.51.55-1.19.82-2.02.82ZM3.14.27c-.72,0-1.34.25-1.84.76-.51.51-.75,1.12-.75,1.87s.25,1.37.75,1.87c.51.51,1.11.76,1.84.76s1.37-.24,1.83-.74c.41-.41.62-.98.62-1.67,0-.08,0-.16-.02-.25h-2.29v.36h1.92l-.02.15c-.05.55-.27.99-.65,1.31-.37.31-.84.47-1.4.47-.61,0-1.13-.21-1.55-.64-.42-.44-.63-.98-.63-1.61s.21-1.18.63-1.61c.43-.43.95-.64,1.55-.64.32,0,.62.06.88.18.23.1.42.23.57.39l.29-.29c-.19-.19-.43-.34-.71-.46-.33-.13-.67-.19-1.04-.19Z"
   ></path>
  </g>
 </g>
 <g id="logo-airbnb" viewBox="0 0 192.22 59.99">
  <path
   d="m131.39,21.49c-3.96,0-5.83,2.4-5.83,2.4v-12.67h-5.76v33.45h4.86c.48,0,.84-.42.84-.84v-1.02s1.86,2.46,5.83,2.46c6.55,0,11.65-5.05,11.65-11.89.06-6.85-5.04-11.89-11.59-11.89Zm-.96,18.33h0c-2.22-.01-3.96-1.15-4.86-2.47v-8.05c.9-1.2,2.82-2.46,4.86-2.46,3.84,0,6.79,2.4,6.79,6.49s-2.94,6.49-6.79,6.49Z"
  ></path>
  <path
   d="m54.95,42.63c-.3-.72-.6-1.5-.9-2.16-.48-1.08-.96-2.1-1.38-3.06l-.06-.06c-4.14-9.01-8.59-18.14-13.27-27.15l-.18-.36c-.48-.9-.96-1.86-1.44-2.82-.6-1.08-1.2-2.22-2.16-3.3-1.92-2.4-4.68-3.72-7.63-3.72s-5.71,1.32-7.69,3.6c-.9,1.08-1.56,2.22-2.16,3.3-.48.96-.96,1.92-1.44,2.82l-.18.36c-4.62,9.01-9.13,18.14-13.27,27.15l-.06.12c-.42.96-.9,1.98-1.38,3.06-.3.66-.6,1.38-.9,2.16-.78,2.22-1.02,4.32-.72,6.49.66,4.5,3.66,8.29,7.81,9.97,1.56.66,3.18.96,4.86.96.48,0,1.08-.06,1.56-.12,1.98-.24,4.02-.9,6.01-2.04,2.46-1.38,4.8-3.36,7.45-6.25,2.64,2.88,5.04,4.86,7.45,6.25,1.98,1.14,4.02,1.8,6.01,2.04.48.06,1.08.12,1.56.12,1.68,0,3.36-.3,4.86-.96,4.2-1.68,7.15-5.53,7.81-9.97.48-2.1.24-4.2-.54-6.43h-.02Zm-27.09,3.12c-3.24-4.08-5.35-7.93-6.07-11.17-.3-1.38-.36-2.58-.18-3.66.12-.96.48-1.8.96-2.52,1.14-1.62,3.06-2.64,5.29-2.64s4.2.96,5.29,2.64c.48.72.84,1.56.96,2.52.18,1.08.12,2.34-.18,3.66-.72,3.18-2.82,7.03-6.07,11.17Zm23.94,2.82h.02c-.42,3.12-2.52,5.83-5.47,7.03-1.44.6-3,.78-4.56.6-1.5-.18-3-.66-4.56-1.56-2.16-1.2-4.32-3.06-6.85-5.83,3.96-4.86,6.37-9.31,7.27-13.27.42-1.86.48-3.54.3-5.11-.24-1.5-.78-2.88-1.62-4.08-1.86-2.7-4.99-4.26-8.47-4.26s-6.61,1.62-8.47,4.26c-.84,1.2-1.38,2.58-1.62,4.08-.24,1.56-.18,3.3.3,5.11.9,3.96,3.36,8.47,7.27,13.33-2.46,2.76-4.68,4.62-6.85,5.83-1.56.9-3.06,1.38-4.56,1.56-1.62.18-3.18-.06-4.56-.6-2.94-1.2-5.04-3.9-5.47-7.03-.18-1.5-.06-3,.54-4.68.18-.6.48-1.2.78-1.92.42-.96.9-1.98,1.38-3l.06-.12c4.14-8.95,8.59-18.08,13.21-26.97l.18-.36c.48-.9.96-1.86,1.44-2.76.48-.96,1.02-1.86,1.68-2.64,1.26-1.44,2.94-2.22,4.8-2.22s3.54.78,4.8,2.22c.66.78,1.2,1.68,1.68,2.64.48.9.96,1.86,1.44,2.76l.18.36c4.56,8.95,9.01,18.08,13.15,27.03v.06c.48.96.9,2.04,1.38,3,.3.72.6,1.32.78,1.92.48,1.56.66,3.06.42,4.62Z"
  ></path>
  <path
   d="m180.63,21.49c-3.96,0-5.83,2.4-5.83,2.4v-12.67h-5.77v33.45h4.87c.48,0,.84-.42.84-.84v-1.02s1.86,2.46,5.83,2.46c6.55,0,11.65-5.05,11.65-11.89s-5.1-11.89-11.59-11.89Zm-.96,18.33h0c-2.22-.01-3.96-1.15-4.86-2.47v-8.05c.9-1.2,2.82-2.46,4.86-2.46,3.84,0,6.79,2.4,6.79,6.49s-2.94,6.49-6.79,6.49Z"
  ></path>
  <path
   d="m163.22,23.65c-1.69-1.44-3.79-2.16-6.31-2.16-2.23,0-4.45.66-6.13,2.4v-.96c0-.42-.36-.84-.84-.84h-4.56v22.58h5.77v-15.74c1.14-1.32,2.94-2.22,4.68-2.22,3.25,0,4.45,1.51,4.45,5.23v12.79h5.76v-13.45c0-3.79-.78-5.95-2.82-7.63Z"
  ></path>
  <path
   d="m97.4,11.17c-2.22,0-3.9,1.74-3.9,3.9s1.74,3.9,3.9,3.9,3.9-1.74,3.9-3.9-1.68-3.84-3.9-3.9Z"
  ></path>
  <path
   d="m114.81,21.5c-1.81,0-4.15,1.14-5.23,2.4v-.96c0-.42-.36-.84-.84-.84h-4.86v22.64h5.77v-15.8c3.01-3.42,7.81-1.8,7.81-1.8v-5.35s-.9-.3-2.64-.3h-.01Z"
  ></path>
  <path
   d="m85.2,22.94v.96s-1.86-2.4-5.83-2.4c-6.55,0-11.65,4.99-11.65,11.89s5.04,11.89,11.65,11.89c4.02,0,5.83-2.46,5.83-2.46v1.02c0,.48.36.84.84.84h4.86v-22.58h-4.86c-.48,0-.84.42-.84.84Zm0,14.46h0c-.9,1.33-2.7,2.47-4.86,2.47-3.84,0-6.79-2.4-6.79-6.49s2.94-6.49,6.79-6.49c2.1,0,4.02,1.2,4.86,2.46v8.05Z"
  ></path>
  <rect x="94.5" y="22.09" width="5.77" height="22.58"></rect>
 </g>
</svg>
