<svg
 aria-hidden="true"
 style="position: absolute; width: 0; height: 0; overflow: hidden"
 version="1.1"
 xmlns="http://www.w3.org/2000/svg"
 xmlns:xlink="http://www.w3.org/1999/xlink"
>
 <symbol id="ic-inst" viewBox="0 0 21 21">
  <path
   d="m20.95,6.17c-.05-1.11-.23-1.87-.49-2.54-.27-.71-.68-1.34-1.21-1.86-.53-.53-1.16-.95-1.86-1.21-.67-.26-1.43-.44-2.55-.49-1.12-.05-1.48-.07-4.33-.07s-3.21,0-4.33.06c-1.12.05-1.88.23-2.55.49-.71.27-1.34.68-1.86,1.21-.53.53-.95,1.16-1.21,1.86-.26.67-.44,1.43-.49,2.55-.05,1.12-.07,1.48-.07,4.33s0,3.21.06,4.33c.05,1.12.23,1.88.49,2.55.27.71.68,1.34,1.21,1.86.53.53,1.16.95,1.86,1.21.67.26,1.43.44,2.55.49,1.12.05,1.48.06,4.33.06s3.21-.01,4.33-.06c1.12-.05,1.88-.23,2.55-.49,1.41-.55,2.53-1.66,3.07-3.07.26-.67.44-1.43.49-2.55.05-1.12.06-1.48.06-4.33s0-3.21-.05-4.33Zm-1.88,8.58h-.01c-.05,1.03-.22,1.58-.36,1.95-.35.91-1.08,1.64-1.99,1.99-.37.14-.93.32-1.95.36-1.11.05-1.44.06-4.24.06s-3.14,0-4.24-.06c-1.03-.05-1.58-.22-1.95-.36-.46-.17-.87-.43-1.21-.78-.35-.34-.62-.75-.78-1.21-.14-.37-.32-.93-.36-1.95-.05-1.11-.06-1.44-.06-4.24s0-3.14.06-4.24c.05-1.03.22-1.58.36-1.95.17-.46.44-.87.79-1.21.34-.35.75-.62,1.21-.78.37-.14.93-.32,1.95-.36,1.11-.05,1.44-.06,4.24-.06s3.14,0,4.24.06c1.03.05,1.58.22,1.95.36.46.17.87.43,1.21.78.35.34.62.75.78,1.21.14.37.32.93.36,1.95.05,1.11.06,1.44.06,4.24s0,3.13-.06,4.24Z"
  />
  <path
   d="m10.5,6.01c-2.48,0-4.5,2.02-4.5,4.5s2.02,4.5,4.5,4.5,4.5-2.02,4.5-4.5-2.02-4.5-4.5-4.5Zm0,7.42c-1.61,0-2.92-1.31-2.92-2.92s1.31-2.92,2.92-2.92,2.92,1.31,2.92,2.92-1.31,2.92-2.92,2.92Z"
  />
  <path
   d="m16.5,7.01c.83,0,1.5-.67,1.5-1.5s-.67-1.5-1.5-1.5-1.5.67-1.5,1.5.67,1.5,1.5,1.5Z"
  />
 </symbol>

 <symbol id="ic-percent" viewBox="0 0 9.19 9.19">
  <path
   d="m1.99,2c-.22.22-.51.34-.82.34-.3,0-.59-.12-.82-.34-.22-.22-.35-.52-.35-.83S.12.58.34.35c.12-.12.26-.21.4-.26C1.14-.09,1.68.01,1.99.35c.11.11.2.24.26.37.06.14.09.3.09.45,0,.32-.13.61-.36.83ZM8.85.34c-.45-.45-1.19-.45-1.65,0L.35,7.19c-.45.45-.45,1.19,0,1.65.22.22.51.34.83.34s.6-.12.82-.34L8.85,1.99c.45-.46.45-1.19,0-1.65Zm-.38,6.61c-.43-.18-.94-.08-1.29.26-.07.08-.17.21-.24.36-.07.16-.08.34-.08.45s0,.29.08.45c.07.15.15.27.25.38.24.22.52.34.83.34s.59-.12.83-.34c.21-.21.33-.51.33-.82s-.12-.61-.33-.83c-.12-.12-.26-.21-.39-.25Z"
  />
 </symbol>

 <symbol id="ic-quote" viewBox="0 0 42.6 27.6">
  <path d="m11.4,27.6L18.6,0h-6.6L0,27.6h11.4Zm24,0L42.6,0h-6.6l-12,27.6h11.4Z" />
 </symbol>

 <symbol id="ic-secure" viewBox="0 0 27.19 32">
  <path
   fill-rule="evenodd"
   d="m27.12,6.44c0-1.22-.81-2.32-2-2.71L14.51.16c-.64-.22-1.34-.21-1.97.01L1.97,3.86c-1.19.41-1.97,1.51-1.97,2.74l.07,10.62c.02,3.23,1.24,6.34,3.42,8.76,1,1.11,2.28,2.06,3.91,2.91l5.76,2.98h0c.18.08.38.13.57.13.2,0,.39-.05.57-.14l5.71-3.05c1.62-.86,2.89-1.83,3.88-2.95,2.15-2.45,3.32-5.57,3.3-8.79l-.07-10.63Zm-7.52,6.77l-6.24,6.15c-.23.23-.54.35-.85.35s-.62-.11-.86-.34h0s-3.07-2.96-3.07-2.96c-.47-.45-.48-1.2-.01-1.66.47-.46,1.23-.47,1.71-.01l2.21,2.12,5.39-5.31c.47-.45,1.23-.46,1.71,0,.46.45.47,1.2,0,1.66Z"
  />
 </symbol>

 <symbol id="ic-star" viewBox="0 0 32 30.4">
  <path
   d="m25.47,18.91c-.41.4-.6.98-.51,1.55l1.42,7.87c.12.67-.16,1.34-.72,1.73-.55.4-1.28.45-1.87.13l-7.09-3.7c-.25-.13-.52-.2-.8-.21h-.43c-.15.02-.3.07-.43.14l-7.09,3.71c-.35.18-.75.24-1.14.18-.95-.18-1.58-1.08-1.42-2.03l1.42-7.87c.09-.57-.1-1.16-.51-1.57L.53,13.25c-.48-.47-.65-1.17-.43-1.81.21-.63.76-1.1,1.42-1.2l7.95-1.15c.6-.06,1.14-.43,1.41-.97L14.38.93c.08-.16.19-.31.32-.43l.14-.11c.08-.08.16-.15.26-.21l.17-.06.27-.11h.67c.6.06,1.13.42,1.41.96l3.55,7.15c.26.52.75.89,1.33.97l7.95,1.15c.67.1,1.23.56,1.46,1.2.21.64.03,1.35-.46,1.81l-5.98,5.66Z"
  />
 </symbol>

 <symbol id="ic-transfer" viewBox="0 0 32 32">
  <path
   d="m31.1.93c-.8-.82-1.98-1.13-3.09-.81L2.25,7.62c-1.17.32-1.99,1.25-2.21,2.43-.23,1.2.57,2.73,1.6,3.36l8.05,4.95c.83.51,1.89.38,2.58-.31l9.22-9.28c.46-.48,1.23-.48,1.7,0,.46.47.46,1.22,0,1.71l-9.24,9.28c-.69.69-.81,1.76-.31,2.59l4.92,8.13c.58.97,1.57,1.51,2.66,1.51.13,0,.27,0,.4-.02,1.25-.16,2.24-1.01,2.61-2.22l7.64-25.72c.34-1.1.03-2.29-.77-3.11Z"
  />
 </symbol>

 <symbol viewBox="0 0 23 19" id="ic-tw">
  <path
   d="m23,2.25c-.86.38-1.77.63-2.72.76.98-.59,1.72-1.53,2.07-2.65-.91.55-1.92.94-2.99,1.16-.87-.94-2.1-1.52-3.44-1.52-2.61,0-4.71,2.15-4.71,4.8,0,.38.03.75.11,1.09C7.4,5.69,3.93,3.78,1.6.87c-.41.72-.65,1.54-.65,2.42,0,1.66.84,3.13,2.09,3.98-.76-.01-1.5-.24-2.13-.59v.05c0,2.33,1.63,4.26,3.78,4.71-.38.11-.8.16-1.24.16-.3,0-.61-.02-.89-.08.61,1.9,2.34,3.29,4.41,3.34-1.6,1.28-3.64,2.04-5.85,2.04-.39,0-.76-.02-1.13-.07,2.09,1.37,4.56,2.15,7.23,2.15,8.68,0,13.42-7.31,13.42-13.64,0-.21,0-.42-.02-.62.94-.68,1.72-1.52,2.36-2.49Z"
  />
 </symbol>

 <symbol id="ic-arrow" viewBox="0 0 12.45 11.36">
  <path
   d="m12.45,1.42v-.05s-.02-.06-.02-.09c0-.04,0-.08-.03-.13-.02-.05-.04-.08-.07-.12-.02-.03-.02-.05-.04-.08,0,0-.01,0-.02,0-.05-.05-.1-.09-.16-.13-.02,0-.03-.03-.05-.04-.08-.04-.16-.07-.26-.07L3.64,0h-.11c-.35.02-.64.3-.67.66-.03.4.26.74.66.78l6.42.55L.26,10.1l-.07.07c-.24.26-.25.67-.02.94.26.3.71.34,1.01.09L10.86,3.08l-.57,6.42v.11c.02.35.29.64.65.67.4.04.74-.26.78-.65l.73-8.15v-.06Z"
  />
 </symbol>

 <symbol id="ic-copyright" viewBox="0 0 16 16">
  <path
   d="m9.68,9.76c-.44.39-1.01.6-1.61.6-1.33,0-2.4-1.04-2.4-2.32s1.08-2.31,2.4-2.31c.61,0,1.18.21,1.61.59l.5.44,1.13-1.13-.57-.5c-.74-.65-1.69-1-2.67-1-2.21,0-4,1.75-4,3.91s1.8,3.92,4,3.92c.98,0,1.93-.36,2.68-1.01l.59-.52-1.18-1.1-.48.43Z"
  />
  <path
   d="m8,0C3.59,0,0,3.59,0,8s3.59,8,8,8,8-3.59,8-8S12.41,0,8,0Zm0,13.82c-3.21,0-5.82-2.61-5.82-5.82s2.61-5.82,5.82-5.82,5.82,2.61,5.82,5.82-2.61,5.82-5.82,5.82Z"
  />
 </symbol>

 <symbol id="ic-fb" viewBox="0 0 21 21">
  <path
   d="m10.5,0C4.7,0,0,4.72,0,10.54c0,5.22,3.79,9.55,8.75,10.39v-8.19h-2.53v-2.95h2.53v-2.17c0-2.52,1.53-3.89,3.77-3.89,1.07,0,1.99.08,2.26.12v2.63h-1.55c-1.22,0-1.45.58-1.45,1.43v1.88h2.91l-.38,2.95h-2.53v8.26c5.2-.63,9.22-5.07,9.22-10.46C21,4.72,16.3,0,10.5,0Z"
  />
 </symbol>

 <symbol id="ic-in" viewBox="0 0 20.99 20.99">
  <path
   d="m19.49,0H1.51C.68,0,0,.68,0,1.51v17.97c0,.84.68,1.51,1.51,1.51h17.97c.84,0,1.51-.68,1.51-1.51V1.51c0-.84-.68-1.51-1.51-1.51h.01ZM7.45,15.87h-2.56v-7.69h2.56v7.69Zm-1.28-8.74h-.02c-.86,0-1.41-.59-1.41-1.33s.57-1.33,1.45-1.33,1.41.57,1.43,1.33c0,.74-.55,1.33-1.45,1.33Zm10.5,8.74h-2.56v-4.12c0-1.03-.37-1.74-1.3-1.74-.71,0-1.13.48-1.31.94-.07.16-.08.39-.08.62v4.3h-2.56s.03-6.97,0-7.69h2.56v1.09c.34-.52.95-1.27,2.3-1.27,1.68,0,2.94,1.1,2.94,3.46v4.41h.01Z"
  />
 </symbol>

 <symbol id="ic-shape-stamp" viewBox="0 0 26.67 26.68">
  <path
   d="m13.33,26.66c-1.03,0-2.05-.39-2.83-1.17l-.97-.97c-.38-.38-.88-.58-1.42-.59h-1.37c-2.21,0-4.01-1.8-4.01-4.01v-1.37c0-.53-.21-1.04-.59-1.42l-.96-.96c-1.57-1.56-1.57-4.11-.01-5.68l.97-.97c.38-.38.58-.88.59-1.42v-1.37c0-2.21,1.8-4.02,4.01-4.02h1.37c.53,0,1.04-.21,1.42-.59l.96-.96c1.56-1.57,4.11-1.58,5.68-.01l.97.97c.38.38.88.59,1.42.59h1.37c2.21,0,4.01,1.8,4.01,4.02v1.37c0,.53.21,1.04.59,1.42l.96.96c.76.75,1.18,1.76,1.18,2.83,0,1.07-.41,2.07-1.16,2.83-.01.01-.03.03-.04.04l-.95.95c-.38.38-.58.88-.59,1.42v1.37c0,2.21-1.8,4.01-4.01,4.01h-1.37c-.53,0-1.04.21-1.42.59l-.96.96c-.78.79-1.81,1.18-2.84,1.18Z"
  />
 </symbol>
</svg>
