<svg xmlns="http://www.w3.org/2000/svg" viewBox="0 0 23 19">
  <path
    d="m23,2.25c-.86.38-1.77.63-2.72.76.98-.59,1.72-1.53,2.07-2.65-.91.55-1.92.94-2.99,1.16-.87-.94-2.1-1.52-3.44-1.52-2.61,0-4.71,2.15-4.71,4.8,0,.38.03.75.11,1.09C7.4,5.69,3.93,3.78,1.6.87c-.41.72-.65,1.54-.65,2.42,0,1.66.84,3.13,2.09,3.98-.76-.01-1.5-.24-2.13-.59v.05c0,2.33,1.63,4.26,3.78,4.71-.38.11-.8.16-1.24.16-.3,0-.61-.02-.89-.08.61,1.9,2.34,3.29,4.41,3.34-1.6,1.28-3.64,2.04-5.85,2.04-.39,0-.76-.02-1.13-.07,2.09,1.37,4.56,2.15,7.23,2.15,8.68,0,13.42-7.31,13.42-13.64,0-.21,0-.42-.02-.62.94-.68,1.72-1.52,2.36-2.49Z"
  />
</svg>
